<?xml version="1.0" encoding="utf-8"?>
<!-- Generator: Adobe Illustrator 24.0.1, SVG Export Plug-In . SVG Version: 6.00 Build 0)  -->
<svg version="1.1" id="Layer_1" xmlns="http://www.w3.org/2000/svg" xmlns:xlink="http://www.w3.org/1999/xlink" x="0px" y="0px"
	 viewBox="0 0 1165.5 750" style="enable-background:new 0 0 1165.5 750;" xml:space="preserve">
<style type="text/css">
	.st0{fill:url(#SVGID_1_);}
	.st1{fill:url(#SVGID_2_);}
	.st2{fill:url(#SVGID_3_);}
	.st3{fill:url(#SVGID_4_);}
	.st4{fill:url(#SVGID_5_);}
	.st5{fill:url(#SVGID_6_);}
	.st6{fill:url(#SVGID_7_);}
	.st7{fill:url(#SVGID_8_);}
	.st8{fill:url(#SVGID_9_);}
	.st9{fill:url(#SVGID_10_);}
	.st10{fill:url(#SVGID_11_);}
	.st11{fill:url(#SVGID_12_);}
	.st12{fill:url(#SVGID_13_);}
	.st13{fill:url(#SVGID_14_);}
	.st14{fill:url(#SVGID_15_);}
	.st15{fill:url(#SVGID_16_);}
	.st16{fill:url(#SVGID_17_);}
	.st17{fill:url(#SVGID_18_);}
	.st18{fill:url(#SVGID_19_);}
	.st19{fill:url(#SVGID_20_);}
	.st20{fill:url(#SVGID_21_);}
	.st21{fill:url(#SVGID_22_);}
	.st22{fill:url(#SVGID_23_);}
	.st23{fill:url(#SVGID_24_);}
	.st24{fill:url(#SVGID_25_);}
	.st25{fill:url(#SVGID_26_);}
	.st26{fill:url(#SVGID_27_);}
	.st27{fill:url(#SVGID_28_);}
	.st28{fill:url(#SVGID_29_);}
	.st29{fill:url(#SVGID_30_);}
	.st30{fill:url(#SVGID_31_);}
	.st31{fill:url(#SVGID_32_);}
	.st32{fill:url(#SVGID_33_);}
	.st33{fill:url(#SVGID_34_);}
	.st34{fill:url(#SVGID_35_);}
	.st35{fill:url(#SVGID_36_);}
	.st36{fill:url(#SVGID_37_);}
	.st37{fill:url(#SVGID_38_);}
	.st38{fill:url(#SVGID_39_);}
	.st39{fill:url(#SVGID_40_);}
	.st40{fill:url(#SVGID_41_);}
	.st41{fill:url(#SVGID_42_);}
	.st42{fill:url(#SVGID_43_);}
	.st43{fill:url(#SVGID_44_);}
	.st44{fill:url(#SVGID_45_);}
	.st45{fill:url(#SVGID_46_);}
	.st46{fill:url(#SVGID_47_);}
	.st47{fill:url(#SVGID_48_);}
	.st48{fill:url(#SVGID_49_);}
	.st49{fill:url(#SVGID_50_);}
	.st50{fill:url(#SVGID_51_);}
	.st51{fill:url(#SVGID_52_);}
	.st52{fill:url(#SVGID_53_);}
	.st53{fill:url(#SVGID_54_);}
	.st54{fill:url(#SVGID_55_);}
	.st55{fill:url(#SVGID_56_);}
	.st56{fill:url(#SVGID_57_);}
	.st57{fill:url(#SVGID_58_);}
	.st58{fill:url(#SVGID_59_);}
	.st59{fill:url(#SVGID_60_);}
	.st60{fill:url(#SVGID_61_);}
	.st61{fill:url(#SVGID_62_);}
	.st62{fill:url(#SVGID_63_);}
	.st63{fill:url(#SVGID_64_);}
	.st64{fill:url(#SVGID_65_);}
	.st65{fill:url(#SVGID_66_);}
	.st66{fill:url(#SVGID_67_);}
	.st67{fill:url(#SVGID_68_);}
	.st68{fill:url(#SVGID_69_);}
	.st69{fill:url(#SVGID_70_);}
	.st70{fill:url(#SVGID_71_);}
	.st71{fill:url(#SVGID_72_);}
	.st72{fill:url(#SVGID_73_);}
	.st73{fill:url(#SVGID_74_);}
	.st74{fill:url(#SVGID_75_);}
	.st75{fill:url(#SVGID_76_);}
	.st76{fill:url(#SVGID_77_);}
	.st77{fill:url(#SVGID_78_);}
	.st78{fill:url(#SVGID_79_);}
	.st79{fill:url(#SVGID_80_);}
	.st80{fill:url(#SVGID_81_);}
	.st81{fill:url(#SVGID_82_);}
	.st82{fill:url(#SVGID_83_);}
	.st83{fill:url(#SVGID_84_);}
	.st84{fill:url(#SVGID_85_);}
	.st85{fill:url(#SVGID_86_);}
	.st86{fill:url(#SVGID_87_);}
	.st87{fill:url(#SVGID_88_);}
	.st88{fill:url(#SVGID_89_);}
	.st89{fill:url(#SVGID_90_);}
	.st90{fill:url(#SVGID_91_);}
	.st91{fill:url(#SVGID_92_);}
	.st92{fill:url(#SVGID_93_);}
	.st93{fill:url(#SVGID_94_);}
	.st94{fill:url(#SVGID_95_);}
	.st95{fill:url(#SVGID_96_);}
	.st96{fill:url(#SVGID_97_);}
	.st97{fill:url(#SVGID_98_);}
	.st98{fill:url(#SVGID_99_);}
	.st99{fill:url(#SVGID_100_);}
	.st100{fill:url(#SVGID_101_);}
	.st101{fill:url(#SVGID_102_);}
	.st102{fill:url(#SVGID_103_);}
	.st103{fill:url(#SVGID_104_);}
	.st104{fill:url(#SVGID_105_);}
	.st105{fill:url(#SVGID_106_);}
	.st106{fill:url(#SVGID_107_);}
	.st107{fill:url(#SVGID_108_);}
	.st108{fill:url(#SVGID_109_);}
	.st109{fill:url(#SVGID_110_);}
	.st110{fill:url(#SVGID_111_);}
	.st111{fill:url(#SVGID_112_);}
	.st112{fill:url(#SVGID_113_);}
	.st113{fill:url(#SVGID_114_);}
	.st114{fill:url(#SVGID_115_);}
	.st115{fill:url(#SVGID_116_);}
	.st116{fill:url(#SVGID_117_);}
	.st117{fill:url(#SVGID_118_);}
	.st118{fill:url(#SVGID_119_);}
	.st119{fill:url(#SVGID_120_);}
	.st120{fill:url(#SVGID_121_);}
	.st121{fill:url(#SVGID_122_);}
	.st122{fill:url(#SVGID_123_);}
	.st123{fill:url(#SVGID_124_);}
	.st124{fill:url(#SVGID_125_);}
	.st125{fill:url(#SVGID_126_);}
	.st126{fill:url(#SVGID_127_);}
	.st127{fill:url(#SVGID_128_);}
	.st128{fill:url(#SVGID_129_);}
	.st129{fill:url(#SVGID_130_);}
	.st130{fill:url(#SVGID_131_);}
	.st131{fill:url(#SVGID_132_);}
	.st132{fill:url(#SVGID_133_);}
	.st133{fill:url(#SVGID_134_);}
	.st134{fill:url(#SVGID_135_);}
	.st135{fill:url(#SVGID_136_);}
	.st136{fill:url(#SVGID_137_);}
	.st137{fill:url(#SVGID_138_);}
	.st138{fill:url(#SVGID_139_);}
	.st139{fill:url(#SVGID_140_);}
	.st140{fill:url(#SVGID_141_);}
	.st141{fill:url(#SVGID_142_);}
	.st142{fill:url(#SVGID_143_);}
	.st143{fill:url(#SVGID_144_);}
	.st144{fill:url(#SVGID_145_);}
	.st145{fill:url(#SVGID_146_);}
	.st146{fill:url(#SVGID_147_);}
	.st147{fill:url(#SVGID_148_);}
	.st148{fill:url(#SVGID_149_);}
	.st149{fill:url(#SVGID_150_);}
	.st150{fill:url(#SVGID_151_);}
	.st151{fill:url(#SVGID_152_);}
	.st152{fill:url(#SVGID_153_);}
	.st153{fill:url(#SVGID_154_);}
	.st154{fill:url(#SVGID_155_);}
	.st155{fill:url(#SVGID_156_);}
	.st156{fill:url(#SVGID_157_);}
	.st157{fill:url(#SVGID_158_);}
	.st158{fill:url(#SVGID_159_);}
	.st159{fill:url(#SVGID_160_);}
	.st160{fill:url(#SVGID_161_);}
</style>
<g>
	<linearGradient id="SVGID_1_" gradientUnits="userSpaceOnUse" x1="958.6755" y1="471.9116" x2="959.0244" y2="471.9116">
		<stop  offset="0" style="stop-color:#ED312D"/>
		<stop  offset="1" style="stop-color:#F79A29;stop-opacity:0.82"/>
	</linearGradient>
	<path class="st0" d="M958.8,471.9c0.1,0.1,0.1,0.2,0.2,0.3c0-0.1,0-0.3,0-0.4c-0.1-0.1-0.2-0.2-0.2-0.2c0,0-0.1,0-0.1,0
		C958.7,471.7,958.8,471.8,958.8,471.9C958.8,471.9,958.8,471.9,958.8,471.9z"/>
	<linearGradient id="SVGID_2_" gradientUnits="userSpaceOnUse" x1="0" y1="375" x2="1070.0002" y2="375">
		<stop  offset="0" style="stop-color:#ED312D"/>
		<stop  offset="1" style="stop-color:#F79A29;stop-opacity:0.82"/>
	</linearGradient>
	<path class="st1" d="M1069.1,95.6c-1.9,0.1-3.1-1.5-4.3-3.1c-0.8-1-1.5-2.3-2.3-3.4c-1.3-1.9-2.6-4-4-5.7c-1.7-2-2-4.9-3.1-7.2
		c-1.3-2.5-2.3-5.1-3.1-8c-0.8-2.7-2.4-5-3.6-7.6c-0.1-0.3,0.1-1,0.2-1.5c1.1,0.1,2,0.2,2.9,0.4c0.5-1.8,0-2.7-1-3.5
		c-1.5-1.1-1.8,1.3-2.9,1.6c-1.5-0.6-2-2-1.9-3.9c0.6-0.7,1-1.5,1.6-2c0.6-0.5,1.4-0.8,2.1-1.2c-1.4-2.7-2.6-5.2-3.9-7.8
		c0.9-0.4,1.6-0.7,2.2-1c1.4-2.5,1.2-4.9-0.2-7.2c-2.9-4.9-4.7-10.6-6.4-16.3c-3.4-1.6-3.7-2.1-4.4-6.4c1.4-1.4,1.6,1.5,2.7,1.3
		c-0.3-1.7-0.3-3.7-1-4.8c-1.6-2.5-2.4-5.4-3.2-8.3H0l0,750l1007.6,0c1.4,0,2.6-0.4,2.8-2.2c-0.1-1.7-0.2-3.3-0.3-4.6
		c2.4-2.3,2.2,1.1,3.4,2c0.3-0.7,0.7-1.2,0.9-1.8c0.4-1.2,0.6-2.7,1.7-2.9c1.4-0.2,1.7,1.6,2.3,2.8c0.1,0.3,0.1,0.7,0.1,0.9
		c-0.5,1.2-0.9,2.2-1.4,3.3c1.9-0.2,3-2.4,4.5-3.5c3.5,0.9,3.5,0.9,7.9-0.5c0.8-0.2,1.6-0.4,2.4-0.5c0.4-1.4,1.7-2.1,1.6-3.8
		c-1.8,0.3-3.4,0.7-5,1c-0.5-0.8-1-1.4-1.5-2.1c-0.9,1-1.7,2.1-2.6,2.7c-1.3,0.9-2.5,0.3-3.1-1.6c-0.8,0.4-1.5,0.8-2.4,1.3
		c-0.3-1.4-0.4-2.5-0.7-3.5c-0.3-1.2-0.9-2.3-1.2-3.6c-0.7-2.9-1.8-5.5-4.2-6.7c-1.1-0.6-1.3-1.9-1.2-3.3c0.1-0.9,0.3-1.8,0.5-2.5
		c2.8-0.3,2.9-0.4,3.7,1.8c0.8,2.1,1.6,3.9,3,5.1c1.4-1.5,2.7-2.9,4.1-4.3c3.2,1.8,4,5.2,4.3,9c1.1,0.5,2,0.9,2.8,1.3
		c1-2.2,1.2-2.4,2.3-3c-0.4-2.7-0.3-2.8,1.2-5.3c-0.4-1.3-0.7-2.8-1.3-4c-0.4-0.7-1-0.3-1.3,0.5c0.2,0.2,0.5,0.4,0.6,0.6
		c0.1,0.2,0.1,0.6,0.1,0.9c-0.2-0.1-0.4-0.1-0.6-0.3c-0.2-0.3-0.3-0.6-0.4-0.9c-1.2,0.5-2.6-1.2-3.8,0.6c-0.1,0.2-1-0.4-1.5-0.6
		c-0.4-0.2-0.7-0.7-1.1-0.7c-0.7-0.1-1.5,0.6-1.9-0.5c-0.3-0.8-0.6-1.7-0.6-2.6c-0.2-4.2-1-8.1-3.1-11.5c0.7-1.8,1.3-3.4,1.9-5.1
		c1.9,0.4,3.6,0.5,4.7,2.7c-0.6,0.9-1.1,1.7-1.6,2.7c1.7,0,1.7,0,4.1-2.5c-0.2-0.3-0.4-0.6-0.5-0.9c-0.7-2.2-0.7-2.6,1.1-2.9
		c0.8-0.1,1.3-0.4,1.4-1.4c0.3-0.2,0.6-0.5,0.9-0.7c0.1-1.5,0.6-2.5,1.9-2.8c-0.1-1.1-0.3-2.2-0.3-3.3c0-1.1,0.6-1.4,1.3-1.8
		c-0.1-1.1-0.1-2.1-0.2-3.2c1.6-1.4,2.3-1.4,2.6,0.3c0.4,2.7,1.9,3.9,3.3,5.5c1.6,2,3.4,2.4,5.4,2.5c0.4,0,1.2,0.1,1.2-1.2
		c-0.2-0.3-0.6-0.9-0.9-0.9c-1.9,0.1-3.1-1.5-4.3-3.1c-0.8-1-1.5-2.3-2.3-3.4c-1.3-1.9-2.6-4-4-5.7c-1.7-2-2-4.9-3.1-7.2
		c-1.3-2.5-2.3-5.1-3.1-8c-0.8-2.7-2.4-5-3.6-7.6c-0.2-0.3,0.1-1,0.2-1.5c1.1,0.1,2,0.2,2.9,0.4c0.5-1.8,0-2.7-1-3.5
		c-1.5-1.1-1.8,1.3-2.9,1.6c-1.5-0.6-2-2-1.9-3.9c0.6-0.7,1-1.5,1.6-2c0.6-0.5,1.4-0.8,2.1-1.2c-1.4-2.7-2.6-5.2-3.9-7.8
		c0.9-0.4,1.6-0.7,2.2-1c1.4-2.5,1.2-4.9-0.2-7.2c-2.9-4.9-4.7-10.6-6.4-16.3c-3.4-1.6-3.7-2.1-4.4-6.4c1.4-1.4,1.6,1.5,2.7,1.3
		c-0.3-1.7-0.3-3.7-1-4.8c-2.6-4-3.1-9.1-4.6-13.7c1.5-0.2,1.5-0.2,2.3,3.2c2.5,1.1,2.5,1.1,4.2,4c0.3,0.6,0.8,1,1.2,1.5
		c0.6,0.7,1.4,1.4,1.9,2.2c2,3.1,4,6.3,6,9.4c0.4,0.6,0.9,0.9,1.3,1.5c0.8,1.2,1.8,0.8,2.7,0.3c0.3-2.9-1.1-4.6-2.8-5.5
		c-1.3-0.7-2.1-1.7-3-3c-1.6-2.5-3.6-4.8-3.8-8.4c0-0.5-0.4-1-0.6-1.5c-0.5-1.5-0.9-2.9-1.3-4.4c0.5,0,1.2-0.2,1.4,0.2
		c1.6,2.1,3.1,4.4,4.5,6.7c1.5,2.3,2.7,4.9,4.3,7c2.5,3.3,5.1,6.5,7.2,10.4c1,1.7,2.4,3.1,3.9,5c-0.2-1.2-0.1-1.8-0.3-2.2
		c-2.9-4.7-5.6-9.4-8.8-13.8c-1.4-1.9-2.6-3.9-3.9-6c-2.6-4.4-4.8-9.3-7.8-13.2c-1.7-2.2-3.2-4.6-5.5-6c-0.7,0.8-1.3,1.6-1.9,2.5
		c-0.5-0.4-1-0.8-1.4-1.2c-2.2-2-2.2-2-0.8-5.3c0.1-0.3,0.3-0.6,0.5-0.8c1.4-0.6,2.7-1.1,4.2-1.8c-0.5-3.8-2.4-5.9-5.1-8.9
		c0.9,2.7,1.4,4.3,2.1,6.3c-1.6,0.2-2.8,0.1-3.7-1.5c-1.3-2.4-3-3.3-5.2-2.4c-0.1,0.1-0.3,0-0.4,0c-0.9-0.1-1.1-1-0.7-2.9
		c0.6,0.2,1.2,0.4,2,0.7c-0.2-1.8-0.4-3.4-0.7-5.2c-1.2,0.4-2.3,0.8-3.5,1.2c0.4-2.1,0.7-3.9,1-6c-2,0.9-3.3-0.4-4.7-1
		c-2.1-2.9-2.1-2.9-2.5-6c-2.8-2.6-5.3-5.6-7-9.7c-0.4-1-0.9-2-1.5-2.7c-1.3-1.5-2.4-3.1-2.8-5.5c-0.1-0.7-0.8-1.4-1.3-1.9
		c-0.3-0.4-0.8-0.5-1.1-0.8c-2.5-2.6-3.9-6.8-7.1-8.5c-0.1-0.1-0.2-0.3-0.2-0.4c-1.8-3.3-3.3-6.6-1.7-10.8c0.2-0.6,0.2-1.4,0.3-2.2
		c1,0.3,1.8,0.6,2.8,0.9c-0.7-3-1.3-5.7-1.8-8.4c-0.3-1.5-0.7-2.8-1.6-3.9c-0.8-1-1.6-2-2.4-3c-0.6-1.7-1.5-3.3-1.8-5
		c-0.3-1.4-0.8-2.5-1.5-3.6c0.8,0,1.5-0.7,1.5-1.6c0-0.9-0.7-1.6-1.6-1.6c-0.7,0-1.3,0.5-1.5,1.1c-0.2-0.3-0.5-0.5-0.7-0.8
		c-0.3,0.7-0.8,1.4-0.7,1.8c0.5,1.5,1,3.3,1.9,4.3c1.3,1.4,2.2,2.8,2.8,4.8c0.1,0.4,1,0.4,1.5,0.5c0.8,2.2,1.6,4.4,2.2,6.7
		c0.4,1.2,0.6,2.6-0.2,3.7c-0.3,0.5-0.9,0.8-1.4,0.9c-0.3,0-0.9-0.7-0.9-0.9c0.2-2.2-0.8-3.5-1.9-4.6c-0.3-0.3-0.7-0.8-0.8-1.3
		c-0.6-4-2.7-6.9-4.1-10.3c-0.4-1-1-2.4-0.8-3.1c0.7-2-0.7-3.5-0.5-4.9c0.7-1.6,2.2,0.5,2.5-2c-0.6-0.9-1.3-2-2-3.1
		c-0.1,0.9-0.1,1.8-0.2,2.9c-0.5,0.1-1,0.4-1.3,0.2c-1.6-1-2.2-2.1-1.6-3.1c0.5-1,1.2-1.2,2.8-0.5c-0.8-1.7-1.2-3.8-2.6-5.2
		c-0.8-0.8-1.2-2.5-1.7-3.9c-0.4-1-0.6-2.2-1.1-3c-3.4-5-5.9-10.7-8.9-16.1c1.2-0.4,2-1.6,2-2.9c0-1.7-1.4-3.1-3.1-3.1
		c-0.5,0-0.9,0.1-1.3,0.3c-1.2-1.8-2.4-3.7-3.3-5.6c-1.7-3.7-4.6-6.2-5.9-10.3c-0.1-0.5-0.6-0.9-0.9-1.1c-2.4-1.1-3.3-4-4.5-6.4
		c-0.9-1.7-1.5-3.4-3-4.5c-0.8-0.6-1.3-1.9-2-2.9c-0.8-1.1-1.6-2.1-2.4-3.1c-1.3-2.1-2.6-4.1-4-6.1c-0.1-0.2-0.4-0.2-0.7-0.3
		c0.1,1.2,0.1,2.5,0.4,3.7c0.8,3.1,1.3,3.4,4.2,2.8c0.1,1.2,1.1,2.4-0.2,3.7c-0.6-0.1-1.3-0.4-2-0.5c-0.8-0.1-1.7-0.1-2.3-0.1
		c-1.5,2.5,0.5,4.5,0.2,6.5c-1.9,2.1-3.3-2.4-5.1-0.3c0.2,0.9,0.4,1.8,0.7,3.2c-1.2-0.6-2-1.1-2.8-1.3c-0.9-0.2-1.9-0.2-3.1-0.3
		c0-2.3-0.5-4.2,0.1-5.8c1.4-1,2.3,1.3,3.7-0.3c-0.4-1.1-0.9-2.2-1.4-3.2c-0.4-0.9-0.9-1.7-1.5-2.8c0.4-0.4,0.6-0.9,0.8-1.5
		c0.9-0.7,1.7-1.3,2.6-2c-1.1,0.1-1.9,0-2.5-0.4c-0.2-0.8-0.6-1.5-1.2-2c0-0.4-0.1-0.8,0-1.3c0.3-2,0.1-3.6-0.6-5.3
		c-0.2-0.4,0.2-1.5,0.5-1.8c0.4-0.3,1.1-0.2,1.6,0c0.4,0.1,0.6,0.7,0.9,1.1c0.9,1.2,1.7,2.5,2.6,3.6c0.6,0.7,1.3,1.4,2.2,0.8
		c0-0.4,0-0.9-0.1-1.1c-2.1-2.4-3.2-6.1-5.8-8c-0.4-0.3-0.8-0.8-1.1-1.3c1.1-0.9,1.9-2.3,1.9-3.9c0-2.8-2.3-5.1-5.1-5.1
		c-0.1,0-0.2,0-0.3,0c0-0.1,0-0.2,0-0.2c-0.1,0.1-0.2,0.2-0.4,0.3c-0.6,0.1-1.1,0.2-1.6,0.5c-0.6-0.1-1.2-0.6-1.8-1.4
		c-1.5-2.4-3-4.8-3.4-7.7c-3.4-0.9-5.5-3.8-7.7-6.5c0,0,0,0,0-0.1c0-2.8-2.3-5-5-5c-1.3,0-2.5,0.5-3.3,1.3c-0.1-0.6,0-1.2,0.3-1.7
		c1.3-2.4,0.7-4.1-0.6-5.8c-0.4,0.9-0.7,2.3-1.2,2.6c-1.4,0.7-2,1.8-2.4,3.6c-0.2,0.9-0.7,1.6-1.2,2.1c-0.1-0.2-0.2-0.4-0.2-0.6
		c-1.5-4-3-8-4-10.7c0.1-1.8,0.2-2.6,0.2-3.4c0,0,0,0,0,0c0.5,0.8,0.8,1.8,0.9,2.9c0.2,1.4,0.7,2.7,1,3.8c2.2,0.7,2.9-0.9,3.5-2.6
		c0.4-0.1,0.8-0.2,1.2-0.3c0.2,0.3,0.3,0.7,0.3,1.2c1.6-0.7,2.5,2.1,4.1,1.5c-1.2-3-1.4-3.6-2.9-4.7c-0.1-0.6-0.4-1.2-0.7-1.6
		c-0.1-0.1-0.3-0.2-0.5-0.3c0.1-0.2,0.2-0.4,0.3-0.6c0.7,1.9,2.5,3.4,4.6,3.6c0,0.1,0,0.2,0,0.3c1.9,0.5,2.9,1.9,3.4,4.1
		c0.3,1.6,0.5,3.3,0.9,4.9c0.6,2.4,1.1,2.6,3.8,1.7c-0.2-0.9-0.4-1.7-0.6-2.6c-0.8,0.1-1.4-0.3-1.6-1.3c-0.1-0.7-0.2-1.6,0.1-2.1
		c0.9-1.6,1.9-3.3,3.7-4.3c2,1.4,4.2,2.8,6.2,4.6c1.3,1.1,2.4,2.6,3.6,3.9c-2.6,0.5-4.6,2.9-4.6,5.6c0,3.2,2.6,5.8,5.8,5.8
		c2.5,0,4.6-1.6,5.4-3.8c0.2,0.2,0.5,0.4,0.8,0.6c1-0.4,1.9-0.9,3.1,0.1c3.4,2.7,6.9,5.3,10.9,6.3c0.8,0.2,1.6,0.8,2.4,1.3
		c1.2,0.8,2.2,1.8,2.1,3.9c0,0.2,0.6,0.4,1,0.5c0.6,1.3,1.3,2.4,1.7,3.8c0.6,2,1.7,2.9,3.1,3.5c1.1-0.6,2.1-1.3,3.3-1.9
		c0.4,0.4,0.8,0.8,1.2,1.2c0.3,1.9,1.5,3.4,3.2,4.2c0.8,1,1.7,1.4,2.7,1.6c2.1,0.4,3.6,2,5.1,3.6c1.5,1.6,2.5,3.3,2.8,6
		c0.4,4,1.2,4.4,4.4,2.9c0.9-0.4,2-0.3,2.2-2c1.8-1.4,2.4-4.5,4.6-5.4c0.3-0.1,0.5-0.9,0.8-1.3c0.4-0.5,0.7-1.4,1.1-1.5
		c1.8-0.5,3.6-1.3,5.5-0.6c0.9,0.3,1.5,1,1.4,2.4c0,0.4-0.2,0.8-0.2,1.1c0.2,0.6,0.6,1.2,0.9,1.7c0,0.1,0.5-0.5,0.8-0.7
		c1.4-1.2,2.8-2.4,3.9-3.4c2,0.2,2.6,2.4,3.8,3.2c1.2,0.8,2.8,0.6,4.1,0.8c0.5-1.6,0.8-2.9,0-4.4c-0.7-1.3-1.3-2.8-1.8-4.2
		c0.1,0,0.2,0,0.4,0c2.8,0,5.1-2.3,5.1-5.1c0-2.8-2.3-5.1-5.1-5.1c-1.1,0-2.2,0.4-3,1c-1.5-4.7-3.1-9.2-4.8-13.8
		c-1.1-3.1-2.4-6.1-3.8-9.6c-0.8,2.3-0.9,3.8,0.3,5.2c1.1,1.3,1.9,2.8,2.2,4.7c0.5,3.3,1.5,6.4,2.9,9.3c0.9,1.8,1.3,3.9,1.7,6
		c-0.4,0.7-0.6,1.5-0.6,2.4c0,1.1,0.3,2.1,0.9,2.9c0,0.1,0,0.2-0.1,0.4c-0.8-1-1.4-1.6-1.7-2.3c-0.4-1.4-0.5-2.9-1.5-4
		c-1.2-1.4-1.8-3.4-2.2-5.4c-0.5-2.8-1.5-5.4-3.3-7c-0.6-0.6-1.2-1.3-1.6-2c0.4-0.8,0.6-1.7,0.6-2.7c0-2.7-1.7-5-4.1-6
		c-1.1-2.4-2.6-4.5-4-6.6c0,0,0,0,0,0c0,0,0,0.1,0,0.1c-0.4,0.2-0.7,0.5-1.1,0.7c0,0.4,0,0.8,0.1,1.1c0.6,1.5,1.2,3,2,4.3
		c-1.6,0.2-3,1-4,2.1c0,0,0-0.1-0.1-0.1c-0.4-0.7-0.4-1.8-0.7-2.6c-1.2-2.5-1.8-5.5-4.2-6.8c-0.7-0.4-1.5-1.3-1.8-2.2
		c-0.3-1-0.7-1.7-1.3-2.4c0.2-0.6,0.3-1.3,0.3-1.9c0-1.9-0.7-3.6-1.8-4.9c-0.1-0.1-0.2-0.2-0.2-0.3c-0.6-0.7-1.4-1.2-2.2-1.6
		c0.2-2,0.4-4-0.9-5.6c1.2-0.4,2.3-1,3.2-1.9c0.2,0.1,0.3,0.2,0.5,0.2c0.8-0.6,1.2-1.3,0.9-2.1c0.7-1.2,1.1-2.6,1.1-4
		c0-4.5-3.7-8.2-8.2-8.2c2.2-0.6,3.6-2.5,5.3-4.1c-0.4-0.6-0.7-1.2-1-1.8c1.9-1.3,3.2-3.6,3.2-6.1c0-4.1-3.3-7.4-7.4-7.4
		c-0.1,0-0.2,0-0.4,0c-0.5-0.6-1-1.1-0.5-2.2c1.9-0.3,3.7,0.1,5.2,1.9c0.4,0.4,1.4,0.3,2,0c0.4-0.2,0.7-1.1,0.8-1.7
		c0-0.3-0.5-1-0.8-1c-2.4-0.3-4.3-1.5-5.9-3.3c2.7-0.2,4.9-2,5.7-4.4c4.6,4.1,9.5,6.9,14,9.2c0.4,0.7,0.7,1.3,1,1.9
		c-0.3,0-0.6-0.1-0.9-0.1c-3.9,0-7.1,3.2-7.1,7.1c0,3.9,3.2,7.1,7.1,7.1c3.1,0,5.7-1.9,6.7-4.6c0,0,0,0,0,0.1
		c0.6,2.1,1.2,4.5,3.3,5.1c-0.7-2.6-1.3-5.2-2-7.7c-1-3.7-3.2-6.5-4.3-10.1c-0.2-0.8-0.9-1.5-1.4-2.1c-0.4-0.5-0.8-1.1-1.2-1.6
		c2.9-0.5,5.2-3.1,5.2-6.2c0-3.5-2.8-6.3-6.3-6.3c-2.1,0-4,1-5.1,2.7c-0.2-0.7-0.3-1.4-0.6-2.1c-1.6-3.4-1.9-4.5-2.2-7.9
		c1-1.2,2-1.4,3-0.2c1,1.1,1.9,2.3,2.9,3.5c1.7-1.3,1.4-2.9,1-4.5c0.3,0.1,0.7,0.1,1,0.1c3,0,5.4-2.4,5.4-5.4s-2.4-5.4-5.4-5.4
		c-0.2,0-0.3,0-0.5,0c-0.1-1.1-0.2-2.3-0.3-3.5c1.8-0.4,3.1,2.8,5.1,0.8c0.2-1.3,0.5-2.8,0.9-4.8c0.9,1.1,1.5,1.9,2.2,2.8
		c0.4-1.7,0.7-3.1,1.1-4.5c0.5-1.7,2.2-2.3,3.2-1c2.9,3.5,5.7,7.1,8.5,10.7c0,0,0,0,0,0c-2.8,0-5,2.3-5,5c0,2.8,2.3,5,5,5s5-2.3,5-5
		c0-1.5-0.7-2.9-1.8-3.8c-0.9-1.6-1.9-3-2.9-4.3c-2.6-3.5-4.7-7.5-7.3-10.9c-0.1-0.2,0-0.7,0-1.1c1.1-0.7,1.8-0.1,2.5,1
		c0.2,0.3,0.4,0.6,0.5,0.8c0.1,0.3,0.3,0.6,0.5,0.8c2.2,3.4,4.5,6.8,6.8,10.1c3.9,5.3,7.5,10.8,10.8,16.6c1.2,2.1,2.3,4.3,3.5,6.4
		c-1.7,0.8-2.8,2.5-2.8,4.5c0,2.8,2.3,5.1,5.1,5.1c1.2,0,2.3-0.4,3.2-1.1c0.2,0.1,0.4,0.2,0.6,0.3c-0.1-0.2-0.1-0.4-0.2-0.5
		c1-0.9,1.6-2.2,1.6-3.7c0-2.8-2.3-5.1-5.1-5.1c-0.2,0-0.4,0-0.6,0.1c-0.6-1-1.2-2-1.7-3.2c-0.9-2.1-2.2-4-2.9-6.2
		c-0.9-2.5-2.4-4.2-3.7-6.1c-1.2-1.9-2.3-3.8-3.5-5.7c-1.2-1.9-2.5-3.6-3.7-5.5c-1-1.5-2.4-2.6-3.2-4.5c1.9-0.4,3.3-2.1,3.3-4.2
		c0,0,0-0.1,0-0.1c0.4,0.3,0.7,0.6,1.1,0.9c0.6,0.5,1,0.3,1.4-0.5c-0.9-3-3.6-4.7-3.4-8.7c2.5-0.9,4.7,1.8,7.3,0.7
		c-0.7-4.3-1.5-8.7-2.2-13c0-0.2-0.4-0.4-0.6-0.6c-0.4,0.4-0.8,0.8-1.3,1.3c-0.8-1.8-1.2-3.8-2.2-4.9c-2.2-2.4-3.1-5.8-4.4-8.9
		c-0.7-1.7-1.3-3.3-2-5c0.5,0.7,1.3,1.1,2.2,1.1c1.5,0,2.7-1.2,2.7-2.7c0-1.5-1.2-2.7-2.7-2.7c-1.5,0-2.7,1.2-2.7,2.7
		c0,0.2,0,0.3,0,0.4c-1.3-3-2.7-5.9-4.5-8.5c-1.1-1.5-1.5-3.1-1.1-5c1-0.4,1.7-0.8,2.6-1.2c-0.3-3,0.1-5.9-1.3-8.6
		c-0.7-1.4-0.4-3.2,0.7-4.7c0.9,0.7,1.9,1.3,2.6,1.9c0.9-1.4,1.6-2.5,2.4-3.6c-0.3-2.3-1.2-4.1-2.9-5.2c-1.7-1.2-2.9-3-3.8-5.2
		c-0.3-0.8-0.7-1.5-1.1-2.3c-0.3,0.2-0.5,0.3-0.5,0.4c-0.5,1.1,0.5,2.8-0.8,3.5c-1.4,0.8-2-1-2.7-2c-0.4-0.5-0.7-1.2-1.2-2.1
		c1.1-0.8,1.6-1.9,1.3-3.6c-0.3-1.4-0.3-3-0.3-4.4c0-0.9,1.1-1.5,1.6-0.9c0.4,0.5,0.9,1,1.2,1.6c0.9,2,2,2.9,3.8,2.8
		c0.8-0.1,1.6,0.6,2.4,0.9c0.8,0.3,1.6,0.8,2.4,1c2.2,0.5,4.4,0.2,6.7-0.9c-0.7-0.5-1.3-0.8-1.9-1.3c-2-1.9-4.1-3.9-6.6-4.7
		c-0.2-0.1-0.2-0.8-0.3-1.4c1.6,0,3-0.1,4.4-0.1c0.4,0,1.1,0,1.2,0.3c1.1,2,2.8,1.7,4.2,2.2c2.2,0.8,3.4,2.9,3,7
		c-1.2,1.8-0.3,3.5,0.5,4.4c2,2.3,3,6.1,6,7c0.4,0.1,0.6,0.7,0.9,1.1c1.8,2.8,5,6,7,7.1c1.1,0.6,1.9-0.1,2.6-1.1
		c0.5-3.5-2.3-5.6-2.1-9c1-0.6,2.1-0.9,2.7-1.8c1.5-2.4,3.4-3.4,5.6-3.5c1.5-0.1,2.7-0.8,3.5-2.7c0.5-1.3,1.4-2.3,2.9-2.4
		c0.1,1.6,0.1,3,0.2,4.4c0,0.3,0.3,0.5,0.5,0.8c0.1-0.1,0.3-0.1,0.4-0.2c0.2,0.1,0.4,0.2,0.6,0.2c0.6,0,1-0.5,1-1c0,0,0-0.1,0-0.1
		c0.1,0,0.1-0.1,0.2-0.1c0.1-2.8,1.2-5.1,2.5-7.3c0.5,0.3,0.9,0.4,1.3,0.6c0.7,0.6,1.3,1.3,2,1.6c1.3,0.5,3.1-1.3,3.4-3.1
		c-0.1-1.7-0.2-3.3-0.3-4.6c2.4-2.3,2.2,1.1,3.4,2c0.3-0.7,0.7-1.2,0.9-1.8c0.4-1.2,0.6-2.7,1.7-2.9c1.4-0.2,1.7,1.6,2.3,2.8
		c0.1,0.3,0.1,0.7,0.1,0.9c-0.5,1.2-0.9,2.2-1.4,3.3c1.9-0.2,3-2.4,4.5-3.5c3.5,0.9,3.5,0.9,7.9-0.5c0.8-0.2,1.6-0.4,2.4-0.5
		c0.4-1.4,1.7-2.1,1.6-3.8c-1.8,0.3-3.4,0.7-5,1c-0.5-0.8-1-1.4-1.5-2.1c-0.9,1-1.7,2.1-2.6,2.7c-1.3,0.9-2.5,0.3-3.1-1.6
		c-0.8,0.4-1.5,0.8-2.4,1.3c-0.3-1.4-0.4-2.5-0.7-3.5c-0.3-1.2-0.9-2.3-1.2-3.6c-0.7-2.9-1.8-5.5-4.2-6.7c-1.1-0.6-1.3-1.9-1.2-3.3
		c0.1-0.9,0.3-1.8,0.5-2.5c2.8-0.3,2.9-0.4,3.7,1.8c0.8,2.1,1.6,3.9,3,5.1c1.4-1.5,2.7-2.9,4.1-4.3c3.2,1.8,4,5.2,4.3,9
		c1.1,0.5,2,0.9,2.8,1.3c1-2.2,1.2-2.4,2.3-3c-0.3-2.7-0.3-2.8,1.2-5.3c-0.4-1.3-0.7-2.8-1.3-4c-0.4-0.7-1-0.3-1.3,0.5
		c0.2,0.2,0.5,0.4,0.6,0.6c0.1,0.2,0.1,0.6,0.1,0.9c-0.2-0.1-0.4-0.1-0.6-0.3c-0.2-0.3-0.3-0.6-0.4-0.9c-1.2,0.5-2.6-1.2-3.8,0.6
		c-0.1,0.2-1-0.4-1.5-0.6c-0.4-0.2-0.7-0.7-1.1-0.7c-0.7-0.1-1.5,0.6-1.9-0.5c-0.3-0.8-0.6-1.7-0.6-2.6c-0.2-4.2-1-8.1-3.1-11.5
		c0.7-1.8,1.3-3.4,1.9-5.1c1.9,0.4,3.6,0.5,4.7,2.7c-0.6,0.9-1.1,1.7-1.6,2.7c1.7,0,1.7,0,4.1-2.5c-0.2-0.3-0.4-0.6-0.5-0.9
		c-0.7-2.2-0.7-2.6,1.1-2.9c0.8-0.1,1.3-0.4,1.4-1.4c0.3-0.2,0.6-0.5,0.9-0.7c0.1-1.5,0.6-2.5,1.9-2.8c-0.1-1.1-0.3-2.2-0.3-3.3
		c0-1.1,0.6-1.4,1.3-1.8c-0.1-1.1-0.1-2.1-0.2-3.2c1.6-1.4,2.3-1.4,2.6,0.3c0.4,2.7,1.9,3.9,3.3,5.5c1.6,2,3.4,2.4,5.4,2.5
		c0.4,0,1.2,0.1,1.2-1.2C1069.8,96.3,1069.4,95.6,1069.1,95.6z M1029.1,725.8c0.6-0.6,1.6,0.3,1.7,1.6c0,0.6-0.2,1.4-0.5,1.9
		c-0.5,0.6-1.4-0.3-1.8-2C1028.6,726.9,1028.7,726.1,1029.1,725.8z M1016.2,710.6c-0.2-0.2-0.4-0.3-0.5-0.6c0-0.1,0.1-0.5,0.1-0.5
		c0.2,0,0.5,0.1,0.7,0.2C1016.4,710,1016.3,710.3,1016.2,710.6z M1021.1,700.7c-0.3,0.1-0.8-0.2-1.1-0.5c-0.2-0.2-0.3-0.6-0.5-1.1
		c0.1-0.3,0.1-1,0.3-1.3c0.5-0.5,1.1-0.2,1.4,0.5c0.1,0.3,0.3,0.7,0.2,1C1021.4,699.9,1021.3,700.6,1021.1,700.7z M1024.7,694
		c-0.2-0.1-0.4-0.3-0.7-0.4c0.1-0.3,0.3-0.7,0.4-0.7c0.3,0.1,0.5,0.3,0.8,0.5C1025.1,693.5,1024.9,693.8,1024.7,694z M1028.4,695.6
		c1.1-0.6,1.5,0.2,1.6,1.1c0.1,0.8,0.1,1.6,0.1,2.5C1029.6,698,1029,696.8,1028.4,695.6z M1030.4,693.6c-0.6-1.2-1.1-2.4-1.8-3.6
		c-0.5-0.9-1-1.7-1.6-2.4c-0.8-1-1-2.2-0.4-3.3c0.2-0.4,0.7-0.5,1.1-0.6c0.2,0,0.7,0.3,0.7,0.5c0.3,2.7,1.4,4.8,2.6,6.9
		C1031.4,691.8,1031.6,692.9,1030.4,693.6z M1031.6,680.3c0.9,1,1.7,2.1,2,4.6c-1,0.5-1.7,0.8-2.5,1.2
		C1028.6,683.2,1028.6,683,1031.6,680.3z M1028.5,677.4c0.8-0.2,1.6,1,1.5,2.1c-0.1,0.4-0.5,0.8-0.6,1.1c-1,0-1.8-1-1.7-2.1
		C1027.7,678.1,1028.2,677.5,1028.5,677.4z M1026.7,670.2c0.3,0,0.6,0.9,1.3,2c-1.1-0.1-1.7-0.1-2.2-0.2c-0.5-0.1-1.1,0.4-1.7-1.3
		C1025.1,670.5,1025.9,670.1,1026.7,670.2z M1023.8,663.4c0,0.4-0.5,0.9-0.8,1.1c-0.5,0.2-1.1,0.1-1.7,0.2c-1.2-1.7-0.1-3.2,0.2-5.1
		C1023.5,660.1,1023.9,661.6,1023.8,663.4z M1018.2,642.1c1.4,2,2.5,4.4,3.7,7.2c-0.8,0-1.3,0.2-1.4,0c-1.9-2.5-4-4.7-4.8-8.2
		C1016.7,640.4,1017.5,641.2,1018.2,642.1z M1015.8,656.7c0.4,0,0.8,0.1,1.1,0.3c0.2,0.2,0.3,0.6,0.6,1.4c-0.6,0.1-0.9,0.2-1.2,0.1
		c-0.3-0.2-0.7-0.5-0.9-0.9C1015.4,657.5,1015.7,656.7,1015.8,656.7z M1017.4,586.8c0.5,0.5,1.1,0.8,1.4,1.4
		c0.7,1.4,0.2,2.7-0.2,3.9c-1,0.1-1.9,0.2-2.7-1.4C1016.3,589.6,1016.8,588.3,1017.4,586.8z M1014.7,584c1.1,0.3,1,1.5,0.8,2.9
		c-1.1,0.3-1.9,0.2-2.1-1.2C1013.3,584.8,1014,583.8,1014.7,584z M1008.5,588.5c0.2,0.1,0.5,0.3,0.5,0.4c0,0.2-0.2,0.5-0.3,0.7
		c-0.1-0.1-0.3-0.2-0.3-0.3C1008.4,589.1,1008.5,588.8,1008.5,588.5z M1009.4,598.9c0.2-0.2,1.1,0.5,1.2,1c0.2,0.9-0.1,1.9-0.9,2
		c-0.4,0.1-0.9-0.4-1.7-0.8C1008.6,600.1,1008.9,599.3,1009.4,598.9z M1008,721c1.5-0.4,1.1,2.6,1.8,3.9c0.7,1.3,0.6,2.9-0.1,4.2
		c-0.1,0.2-0.5,0.4-0.7,0.4c-0.2,0-0.6-0.3-0.7-0.5c-0.2-1.3-0.3-2.5-0.4-3.8C1008,723.7,1006,721.6,1008,721z M1006.9,583.2
		c0,0.1-0.1,0.3-0.2,0.4c-0.2-0.3-0.3-0.5-0.4-0.8c0-0.1,0.1-0.3,0.2-0.4C1006.6,582.7,1006.8,582.9,1006.9,583.2z M1005.2,569.9
		c0.3,0.1,0.6,0.4,1.1,0.7c-0.4,0.5-0.7,0.8-0.9,1.1c-0.2-0.4-0.5-0.7-0.6-1.1C1004.7,570.4,1005.1,569.9,1005.2,569.9z M1005,721.6
		c0.3-0.2,1,0.3,1.3,0.7c0.1,0.3-0.3,1.1-0.5,1.9c-0.7-0.5-1.1-0.7-1.5-1C1004.4,722.7,1004.6,721.8,1005,721.6z M992.3,570.1
		c-0.2-0.4-0.5-0.7-0.5-1.1c0-0.2,0.3-0.5,0.4-0.7c0.2,0.3,0.5,0.6,0.6,1C992.8,569.3,992.5,569.7,992.3,570.1z M996.6,575.3
		c-0.1,0.1-0.2,0.2-0.3,0.4c-0.1,0-0.3-0.1-0.4-0.2c-0.7-0.5-1-1.5-0.6-2.2c0.2-0.3,0.8-0.4,1-0.3
		C997,573.5,997.1,574.5,996.6,575.3z M1003.3,577.4c0,0.1-0.1,0.4-0.1,0.6c-0.2,0.1-0.6,0.4-0.7,0.3c-2.7-2.5-4.1-6.5-6.2-9.8
		c-0.2-0.3-0.2-1-0.3-1.5c0.4-0.1,0.9-0.4,1.1-0.1C999.5,570,1001.9,573.2,1003.3,577.4z M996.8,557.6c0.2,0.1,0.4,0.3,0.6,0.5
		c-0.1,0.1-0.2,0.3-0.3,0.3c-0.2-0.1-0.5-0.3-0.7-0.5C996.6,557.8,996.8,557.6,996.8,557.6z M993.5,558.7c2,1.4,2.7,3.8,3.8,5.9
		c-0.5,0.9-0.9,1.6-1.3,2.2c0,0,0,0,0,0c-1-1-2-2.1-3.2-3.4c-0.9,0.9-1.8,1.8-2.8,2.8c-0.2-0.3-0.5-0.6-0.5-0.9
		c0.1-2.1,0.5-4,2.3-4.8C992.4,560.3,992.9,559.4,993.5,558.7z M986.2,546c0.5,0.8,1.5,1.1,2.1,1.7c0.8,0.7,0.7,1.4-0.5,3.1
		c1.4,2.3,4.7,2.4,4.6,6.7c-1.5,0.2-2.7-0.6-3.7-2c-1.7-2.4-2.7-5.5-4.4-8.1c-0.8-1.2-1.2-3.5,0.6-4.9
		C985.3,543.8,985.6,545,986.2,546z M982.3,537.7c0.6-0.2,1.5,0.9,1.8,2.5c-0.3,0.6-0.6,1.6-1.1,2.2c-0.6,0.7-1.4,0.3-1.7-0.6
		c-0.1-0.5-0.3-1.1-0.3-1.6C981,539.1,981.6,537.9,982.3,537.7z M978.4,533.4c0.1,0,0.3,0.1,0.3,0.2c0,0.3,0,0.6-0.1,0.9
		c-0.1-0.2-0.3-0.5-0.4-0.7C978.2,533.7,978.3,533.5,978.4,533.4z M978.1,545.5c0.2-0.2,0.7-0.2,0.8,0c1,1.6,2.2,2.7,3.5,3.8
		c1.4,1.1,2.5,3,3.2,5.7c-1.3-0.3-2.1-0.5-3-0.6c-1.5,0-0.8-2.4-1.7-2.7c-2.3-0.7-2.3-3.4-3.2-5.4
		C977.8,546.2,977.9,545.6,978.1,545.5z M975.5,540c0.1-0.1,0.8,0.3,0.8,0.6c0.1,0.6-0.1,1.3-0.1,2c-0.5-0.2-0.9-0.4-1.7-0.7
		C974.9,541,975.1,540.4,975.5,540z M972,530.7c0.5,0.3,1,0.5,1.4,0.8c0.2,0.2,0.3,0.6,0.4,0.9c0,0.4,0.1,0.8,0,1.1
		c-0.2,0.4-0.4,0.9-0.7,1.1c-0.1,0.1-0.6-0.1-0.7-0.3c-0.3-0.6-0.7-1.2-0.8-1.8C971.4,531.9,971.8,531.3,972,530.7z M962,520.9
		c-0.1,0.1-0.3-0.4-0.6-0.7c0.2-0.4,0.5-0.8,0.7-1.2c0.2,0.3,0.5,0.6,0.7,0.9C962.6,520.3,962.3,520.6,962,520.9z M964,514.8
		c-0.1-0.1-0.2-0.3-0.2-0.4c0.1-0.4,0.1-0.9,0.2-1.3c0.1,0.4,0.3,0.7,0.3,1.1C964.4,514.4,964.2,514.7,964,514.8z M966.1,516.1
		c0.3-0.3,0.8-0.4,1.1-0.2c0.5,0.3,1,0.8,1.3,1.3c0.9,1.6,1.6,3.3,2.6,5.3c-0.7,0.1-1.3,0.4-1.7,0.1c-1.7-1.1-2.7-3.1-3.6-5.1
		C965.6,517.2,965.8,516.4,966.1,516.1z M963,503c0.1-0.1,1,0.5,1.2,1c0.4,0.8,0,2.1-0.7,2.1c-0.5,0-0.9-0.4-1.7-0.8
		C962.3,504.3,962.5,503.5,963,503z M961.3,508c0.3,0,0.8-0.1,1,0.2c0.9,0.8,1.7,1.7,2.6,2.6c0.6,0.6,0.2,1.4-0.8,1.9
		c-0.2-1.2-1-1.4-1.7-1.9C961.7,510.3,961,509.6,961.3,508z M940.5,480.2c-0.1,0.3-0.4,0.6-0.6,1c-0.4-0.3-0.6-0.4-0.7-0.5
		c-0.5-0.5-0.6-1.2-0.3-2c0.3-0.7,0.8-1.1,1.4-0.6C940.9,478.7,940.8,479.5,940.5,480.2z M947.1,471.9c-0.2-0.1-0.4-0.3-0.5-0.4
		c0.1-0.2,0.2-0.5,0.4-0.7c0,0,0.3,0.2,0.3,0.2C947.3,471.3,947.2,471.6,947.1,471.9z M948.4,482.9c0,0.1-0.2,0.1-0.3,0.1
		c-0.2-0.3-0.5-0.6-0.5-0.8c0-0.6,0.2-1.2,0.3-1.8c0.3,0.2,0.9,0.4,0.9,0.7C948.8,481.7,948.6,482.3,948.4,482.9z M948.8,467.8
		c-0.3-0.3-0.5-0.6-0.8-0.9c0.2-0.2,0.4-0.5,0.6-0.7c0.2,0.3,0.3,0.5,0.5,0.8C948.9,467.2,948.9,467.5,948.8,467.8z M953.8,523.3
		c-1.6-0.2-2.4-1.5-3.3-2.9c0.6-0.8,1.2-1.5,1.8-2.3C953.9,519.5,953.8,521.2,953.8,523.3z M958.3,504.8c0.1-0.1,0.4,0.1,0.7,0.1
		c-0.1,0.5-0.1,1-0.2,1.4c0,0.1-0.5-0.1-0.8-0.1C958,505.7,958.1,505.2,958.3,504.8z M957.7,511.1c0.9-1,1.1,0.4,1.6,0.7
		c-0.5,1.1-1.1,1.5-1.8,0.7C957.3,512.4,957.4,511.4,957.7,511.1z M957,507.9c0.3,0.2,0.3,0.9,0.5,1.4c-0.5,0.2-1,0.5-1.5,0.7
		c-0.1,0-0.2-0.2-0.4-0.2c0-0.3,0-0.7,0.1-1C956.1,508.2,956.3,507.3,957,507.9z M955.8,479.5c-0.9-0.2-1.5-0.1-2-0.4
		c-0.4-0.3-0.7-1-0.9-1.6c0-0.2,0.5-0.8,0.9-0.9C955.1,476.2,955.3,476.5,955.8,479.5z M952.1,463.4c1,1.1,2.1,2.3,2.9,3.7
		c0.3,0.5,0,1.5-0.1,2.4c-1.7-1.1-3.6-1.9-4.1-5.2C951.2,464,951.9,463.2,952.1,463.4z M945.9,455.1c0.3-1.2,1-1.6,2-1.3
		c0.9,0.3,1.6,0.8,1.9,2c0.3,1.4,0.5,2.8,0.8,4.2c-0.2,0.2-0.5,0.4-0.7,0.6c-0.3-0.7-0.6-1.6-1.1-2c-0.5-0.5-1.3-0.4-2-0.7
		C945.9,457.3,945.6,456.2,945.9,455.1z M944.3,450.9c-0.2-0.3-0.5-0.6-0.6-1c0-0.1,0.4-0.6,0.5-0.6c0.3,0.2,0.5,0.6,0.8,0.9
		C944.8,450.4,944.6,450.6,944.3,450.9z M939,460c0.7,0.3,1.4,0.6,2,0.7c0,0,0,0,0,0c0,1.2,1,2.2,2.2,2.3c-1.4,0.5-2.7,1.1-4.1,0.9
		c-0.2-0.5-0.4-0.9-0.4-1.2C938.7,461.9,938.9,461,939,460z M938.2,434.9c0.2,0.3,0.4,0.5,0.5,0.8c0,0.4-0.1,0.9-0.3,1.8
		c-0.3-0.9-0.5-1.4-0.6-1.9C937.9,435.4,938.1,435.2,938.2,434.9z M935.7,479.4c0.2,0,0.7,0.5,0.8,0.9c0.2,0.9-0.4,1.3-1,1.4
		c-0.5,0.1-1.1,0-1.3-0.9C934.2,479.6,935,479.5,935.7,479.4z M930.9,451.2c-0.2,0.1-0.8-0.2-0.8-0.5c-0.1-0.3,0.1-1,0.3-1.1
		c0.2-0.2,0.6,0.2,1.6,0.5C931.5,450.7,931.3,451.1,930.9,451.2z M930.4,423c1.4,0.1,2.3,0.9,2.3,2.8c0,1.2-0.3,2.3-1.3,2.6
		c-0.9,0.3-1.9,0.4-3.3,0.7C929,426.7,929.3,424.6,930.4,423z M928.2,432.2c0.2-0.1,0.8,0.2,0.9,0.5c0.2,0.6,0.2,1.3,0.3,2.9
		c-0.9-1.1-1.5-1.6-1.8-2.2C927.6,433.2,927.9,432.4,928.2,432.2z M928.1,446c0.3-0.1,0.6,0.3,1,0.5c-0.1,0.4-0.2,1-0.5,1.2
		c-0.2,0.2-0.6-0.1-1.2-0.3C927.7,446.8,927.8,446.1,928.1,446z M920.7,438.9c0,0-0.1,0.1-0.1,0.1c-0.5-0.6-1-1-1-1.3
		c0.1-0.6,0.5-1.1,0.8-1.6c0.2,0.4,0.6,0.7,0.7,1.1C921.2,437.5,921,437.9,920.7,438.9z M919.8,451.4c2.6,0.5,3.2,3.4,4.7,5.8
		c-0.9,0.3-1.9,1-2.1,0.7C920.9,456.2,919,454.6,919.8,451.4z M926.1,437.9c-1,0.5-1.9-0.2-2.1-1.8c0.6-1.4,1.7-1.5,2.7-1.5
		C927,436,927.2,437.4,926.1,437.9z M911.1,419.1c0.1-0.1,0.5,0.1,0.7,0.3c0.1,0.2,0.1,0.8-0.1,0.9c-0.5,0.3-1,0.6-1.6,0.8
		C910.4,420.4,910.7,419.7,911.1,419.1z M909.9,421.3c0.4,0.9,0.9,1.7,1.1,2.6c0.1,0.5-0.4,1.4-0.7,1.7c-0.5,0.4-1,0-1.3-0.8
		C908.2,423,908.4,422.4,909.9,421.3z M858.1,385.6c-0.2-0.1-0.5-0.2-0.7-0.3c0.1-0.2,0.1-0.4,0.2-0.4c0.2,0.1,0.5,0.2,0.7,0.3
		C858.2,385.3,858.2,385.6,858.1,385.6z M870.4,379.2c-0.5,1-1.2,0.9-1.8,0.5c-1-0.7-2.1-1.4-2.9-2.4c-0.9-1.2-1.9-2.4-2.8-3.7
		c0.1-0.1,0.1-0.2,0.2-0.4c-0.7-1.2-1.8-2-2.7-3c-0.1-0.2-0.3-0.4-0.5-0.6c-0.6-0.8-1-1.8-1-3.1c0.2-0.3,0.3-0.7,0.6-0.8
		c0.3-0.2,0.6-0.3,1-0.4c0.4,0.7,0.9,1.4,1.3,2c0.3,0.4,0.9,0.4,1.5,0.5c-0.2-1.3-0.7-2.2-1.4-3c1.8-0.5,3.6-0.5,5.3-0.6
		c0.5,0,1.2,0.3,1.6,0.8c0.2,0.2,0.4,0.6,0.5,0.9c0,0.1-0.1,0.1-0.1,0.2c0,0-0.1-0.1-0.1-0.1c0,0.1,0,0.2,0,0.3l0.1-0.2
		c0.1,0.2,0.2,0.5,0.2,0.7c0,0,0,0,0,0c0,0.8-0.6,1.2-1.3,1c-0.8-0.2-1.6-0.4-2.6-0.6c0.3,1.5,0.5,2.9,0.7,3.8
		c0.7-0.4,1.4-1.1,1.9-0.9c1.2,0.4,2.3,1.1,3.2,2C868.6,374.1,868.6,374.2,870.4,379.2z M876.7,397.9c-0.1,0.2-0.5,0.4-0.7,0.2
		c-0.4-0.4-0.7-0.9-1.3-1.7c0.6-0.3,1-0.6,1.2-0.5c0.3,0.2,0.7,0.6,0.9,1C876.9,397.2,876.8,397.7,876.7,397.9z M877.4,382.6
		c0-0.1-0.1-0.3-0.1-0.4c-0.1-0.5-0.2-0.9,0-1.3c0,0,0,0,0,0c0.1,0.6,0.2,1.2,0.2,1.7C877.5,382.6,877.4,382.6,877.4,382.6z
		 M883.2,394.1c0.2,0.4,0.4,0.8,0.5,1.3c0,0.1-0.4,0.4-0.7,0.7c-0.2-0.4-0.5-0.7-0.7-1.1C882.6,394.6,882.9,394.3,883.2,394.1z
		 M878.3,390.1c0-0.3,0.1-0.7,0.2-1c0.3,0,0.5,0,0.7,0c0.1,0,0.1,0.1,0.2,0.1c0,0,0-0.1,0-0.1c0.7,0.2,1.2,0.6,1.6,1.5
		c0.2,0.5,0.2,1.4,0.1,2c-0.2,0.6-1.4,0.5-1.9-0.1c-0.2-0.3-0.4-0.6-0.5-0.9C878.5,391.1,878.3,390.6,878.3,390.1z M892.3,417.8
		c-0.3,0-0.8-0.4-0.9-0.8c-0.3-1.1-0.1-2.1,1.2-2.3c0.2,0.6,0.5,1.2,0.6,1.8C893.3,417.4,892.8,417.8,892.3,417.8z M891.4,409.6
		c-0.6-0.4-0.8-1.1-0.4-1.9c0.4-0.7,0.9-0.9,1.4-0.2c0.4,0.5,0.6,1.2,1.5,2.9C892.5,409.9,891.9,409.9,891.4,409.6z M897.3,424.1
		c-0.6,0.4-1.1-0.3-1.1-1c0-0.6,0.3-1.4,0.7-1.7c0.2-0.2,0.8,0.4,1.5,0.9C898,423.2,897.7,423.8,897.3,424.1z M898.4,408.3
		c-0.7-0.6-1.4-0.7-1.5-1.2c-0.3-0.8-0.5-1.9,0.3-2.4c0.8-0.5,1.3,0.5,1.5,1.2C898.9,406.5,898.6,407.3,898.4,408.3z M904.2,417
		c-0.4-0.2-0.8-0.2-1.3-0.2c-0.2,0-0.5,0-0.7,0.1c-1-1-1.8-2.6-1.7-4c0.1-0.9,0.8-1.7,1.4-2.9c1.9,1.9,2.3,4,2.6,6.2
		C904.7,416.4,904.5,416.8,904.2,417z M897.5,376.8c0.4,0.1,0.8,0.3,1.1,0.5c-0.5,0.8-0.8,1.7-0.8,2.7c0,0.2,0,0.5,0.1,0.7
		C897.4,379.7,897.1,378.6,897.5,376.8z M896.1,384c2,2.3,2,2.3,2.2,5.8c-2.4-0.1-3.2-1-4-5.2C894.8,384.4,895.4,384.2,896.1,384z
		 M894.5,383.1c-0.1,0.4-0.2,0.9-0.4,1.3c-0.5-0.2-1.1-0.2-1.6-0.5c-1.8-1.1-2.4-3.7-1.6-6.1c0.1-0.4,0.7-0.8,1-0.7
		C894.3,377.5,895.4,380,894.5,383.1z M890,368c0.4-0.3,0.8-0.3,1.4-0.6c1.2,2,0.7,3.4-0.1,4.9c-0.5,0.9-1.7,0.8-2.2-0.2
		C888.4,370.6,888.7,369,890,368z M886.4,372.8c1.1,0.9,2.3,1.7,1.7,4.2c-1.6-0.4-2.6-1.9-3.7-3.2c-0.8-0.9-1.7-1.6-2.8-2.4
		c-0.4-0.7-0.8-1.3-1.2-2c-0.1-0.8-0.3-1.8-0.4-2.7c0.1-0.5,0.1-0.8,0.2-0.8c0.5-0.3,0.9-0.7,1.2-1.3c0.5,0.1,0.9,0.2,1.4,0.2
		c0.8,0,1.6-0.2,2.3-0.6c1.3,0.9,1.6,2.9,2.7,4.5c-0.7,1-1.3,2-2,3C885.9,372,886.1,372.5,886.4,372.8z M874.1,367.9
		c1.4,0.7,0.6,2.1,1.2,3.4c0.5,0,1.1,0,1.8,0c0.8,0.1,1.5,0.5,1.4,1.7c-0.1,1.5-0.8,1.4-1.5,1.2c-1.1-2.2-2.6-4-3.8-6.1
		C873.4,368,873.8,368,874.1,367.9z M870.9,351.9c1,1.7,2.5,2.7,1.4,5.3c-0.1,0.1-0.1,0.3-0.1,0.6c-1.3,0.1-2.4-0.9-2.3-2.8
		c0-0.8,0-1.6,0-2.4C870.2,352.5,870.5,352.2,870.9,351.9z M871,337.5c-0.2,0-0.3-0.1-0.5-0.3c0-0.1-0.1-0.2-0.2-0.3
		c-0.1-0.3-0.2-0.5-0.4-0.7c0.4-0.6,0.8-1.2,1.2-1.7c0.1-0.1,0.7,0.5,0.8,0.9C872.2,336.5,871.6,337.5,871,337.5z M980.3,384.3
		c0.3,0,0.6,0,0.8,0.2c1,0.7,1.6,2.2,1.2,3c-0.2,0.3-0.7,0.5-1,0.5c-1,0-1.9-0.3-2.1-1.9C979.1,385.1,979.6,384.2,980.3,384.3z
		 M967.7,364.6c0.2,0.3,0.3,0.7,0.4,1.1c0.2,0.7,0,1.5-1,1.8c-0.4-0.5-0.7-1.2-0.8-2C966.8,365.3,967.3,365,967.7,364.6z
		 M964.1,371.9c0.3,0.1,0.6,0,0.8,0.2c0.1,0.2,0,0.6,0,0.9c-0.3-0.1-0.6,0-0.8-0.2C963.9,372.7,964.1,372.2,964.1,371.9z M969.1,386
		c-0.2-0.2-0.5-0.3-0.5-0.5c0-0.2,0.1-0.5,0.2-0.7c0,0,0.3,0.1,0.3,0.2C969.2,385.2,969.1,385.5,969.1,386z M946.6,369
		c-0.5-1-1-1.9-1.5-2.8c0.9-0.3,1.6-0.7,2.3-1.2c0,0.1,0.1,0.2,0.1,0.3c0.3,1.4,0.7,2.8,1,4.1C947.6,370.3,947,369.7,946.6,369z
		 M918.7,313.5c-0.6-0.9-1.2-1.9-1.8-2.9c0.4-0.5,0.7-1.2,1.2-1.3c0.7-0.1,1.6-0.1,2,0.3c0.7,0.8,1.5,1.6,2.2,2.4
		C920.9,312.2,919.7,312.7,918.7,313.5z M916.6,315.8c-0.2,0.4-0.4,0.8-0.5,1.2c-1-1.6-1.7-2.7-2.5-3.9
		C915.7,312.5,916.7,313.3,916.6,315.8z M913.7,310c-0.5,1-1.1,1.3-1.8,0.5c-0.9-1-1.1-2.5-1.3-4C911.9,307.5,913.3,307.9,913.7,310
		z M916,339.5c-0.3-0.2-0.5-0.3-0.8-0.4c-0.6-0.3-0.8-1.8-1.4-2.6c-0.6-0.8-1.3-1.6-2-2c-1.2-0.7-2.4-1.2-2.3-3.4
		c-1.9-0.6-1.8-3.7-3.3-4.8c-0.2-0.2-0.5-0.4-0.7-0.7c0,0,0-0.1-0.1-0.1c1.9-0.8,3.3-2.4,3.8-4.3c0,0.1,0,0.1,0.1,0.2
		c0.1,0.5,0.5,0.9,0.9,1.2c3.5,3,5.8,7.5,8.4,11.7C917,335.5,916,337.4,916,339.5z M908.9,316.1c-0.6-1.2-0.9-2.3-1.4-3.1
		c-0.6-0.8-1.4-1.2-2-2c-1-1.5-2-3.1-2.9-4.7c-0.1-0.2,0-0.6,0.1-0.9c0.1,0,0.2,0,0.3,0c0.5,0,1-0.1,1.5-0.2
		c2.4,1.1,4.4,2.9,5.9,5.4c0.7,1.1,0.6,2.5,0.2,3.7C910.3,315.1,909.6,315.5,908.9,316.1z M899.4,313.4c-0.3-0.6-0.3-1.6,0.5-1.8
		c0.4-0.1,1,0,1.1,0.2c0.2,0.4,0.4,0.8,0.6,1.2c-0.7,0.2-1.4,0.4-2,0.8C899.5,313.7,899.4,313.6,899.4,313.4z M911.6,298.2
		c0.1,1.8-1.1,2.9-2.2,2.4c-0.1-0.1-0.2-0.2-0.3-0.3c0.1-0.4,0.1-0.7,0.1-1.1c0-0.3,0-0.6-0.1-0.9c0.5-0.4,1.1-0.7,1.7-0.9
		C911.1,297.4,911.4,298,911.6,298.2z M908.2,295.8c-0.6-0.9-1.4-1.7-2.4-2.2c0.9-1.9,1.1-1.9,3.3-0.8
		C908.8,293.8,908.6,294.6,908.2,295.8z M897.2,290.1c0.2,0.3,0.4,0.5,0.5,0.8c0.1,0.5,0.1,1,0.1,1.9c-0.8,0.2-1.6,0.3-2.3,0.4
		c-0.2-0.3-0.3-0.5-0.3-0.5C895.9,291.9,896.6,291,897.2,290.1z M888.1,313c-0.3-0.2-0.6-0.4-1-0.7c0.2-0.4,0.4-0.7,0.5-1
		c0.3,0.3,0.6,0.6,0.8,0.9C888.5,312.4,888.1,313.1,888.1,313z M880.5,311.9c0.6-2.3,0.9-3.5,1.2-4.6c0.9,0,1.6-0.1,2.4-0.1
		c0.4-1,0.8-2.1,1.2-3.3c0.1,0,0.1-0.1,0.2-0.1c0.5,0.3,0.9,0.4,1.2,0.7c1.6,1.7,1.6,1.7,1.9,4.7
		C886.2,310.1,883.8,310.9,880.5,311.9z M873.3,340.8c0-0.1,0-0.1,0-0.2c-0.2-2.2,0.7-3.3,2.1-4.2c0.6,1.8,0.3,3.5,0,5.1
		C874.7,341.4,873.9,341.3,873.3,340.8z M875.4,345.9c0.4-1,0.5-0.2,0.6,0.2C875.8,346,875.6,346,875.4,345.9z M876,312
		c2.4,0.4,3.5,1,3.9,2.6c-1.4,0.8-2.4,2.2-2.7,3.8c-0.1-0.1-0.1-0.2-0.2-0.4C876.5,316.1,876.3,314.1,876,312z M885.8,324.1
		c0.9-0.6,1.7-1.5,2.1-2.6c0.6,1,1,2.2,1.5,3.4C887.2,325.3,886.3,325.3,885.8,324.1z M889.6,330.3c-0.4-0.6-0.8-1-1.1-1.5
		c0.2-0.2,0.5-0.5,0.7-0.5C889.8,328.5,890,329.1,889.6,330.3z M892.3,323.4c-1-0.9-1.9-2.2-2.7-3.5c-0.6-1-1-2.2-1.3-3.4
		c-0.4-1.7,0.3-2.3,2-1.9c0.1,0,0.3,0.1,0.4,0.1c0.1-1.2,0.2-2.5,0.3-3.6c1.2-0.3,1.5,0.6,1.6,1.5c0.1,0.8,0,1.7-0.1,2.5l-0.9,0.3
		c0.4,0.7,0.8,1.3,1.2,2c-0.1-0.7-0.1-1.4-0.2-2.1c1.6,0.1,3,0.8,3.9,2.7c-0.1,0.4-0.1,0.9-0.1,1.3c0,3.5,2.7,6.3,6.2,6.5
		c0.5,0.7,1,1.5,1.6,2.3c-0.3,1.2-0.6,2.2-0.9,3.3c-0.6-0.2-1.1-0.1-1.3-0.4c-1.3-1.8-2.8-3-4.8-3.2
		C895,327.6,894,324.8,892.3,323.4z M894.9,329.9c1.6-0.7,2.6,0.1,3.7,1.2c0.8,0.8,1.6,1.7,2.4,2.5c-2.2,0.7-3.8,2.6-4.2,4.9
		c-0.1-0.1-0.2-0.3-0.3-0.4C894.9,335.7,894.3,333,894.9,329.9z M907.7,349.6c-1.1-1.6-2.3-3.2-4.1-3.7c2.5-0.3,4.6-2,5.3-4.4
		c2.3,2.1,4.5,4.1,6.5,6.7c1.1,1.4,2.8,1.3,3.7,3.4c0.4,0.9,1.2,1.6,2,2.2c-2,0.7-3.5,2.2-4.1,4.2c-0.8-0.9-0.8-2.2-1.1-3.2
		C912.9,353.8,909.9,352.9,907.7,349.6z M929,374.3c0.1-0.2,0.1-0.5,0.2-0.7C929.6,374.3,929.3,374.3,929,374.3z M927.8,348.5
		c-1.1-1.3-2-2.7-3.7-1.2c-0.4,0.4-1.4,0-2-0.5c-0.1-0.1-0.2-0.2-0.3-0.2c0.4,0.1,0.9,0.1,1.4,0.1c2.1,0,3.9-0.9,5.2-2.3
		c0.6,1.1,1.1,2.3,1.6,3.5C929.1,349.3,928.3,349.1,927.8,348.5z M936.6,350.8c0.3-1.1,0-2-0.4-2.5c-1-1.1-2-2.2-3.2-2.8
		c-1.4-0.6-2.4-1.6-3.4-3.1c0.4-0.9,0.6-1.8,0.6-2.9c0-3.9-3.2-7.1-7.1-7.1c-0.6,0-1.2,0.1-1.8,0.2c-1.1-1.4-2.2-2.9-2.6-5
		c-0.3-1.2-1.6-1.9-2.4-2.9c-1.4-1.6-2.7-3.3-4.3-5.2c1.3-0.5,2.3-0.9,3.3-1.3c0.2-0.1,0.3-0.1,0.5-0.2c-0.1,0.4-0.1,0.9-0.1,1.4
		c0,4.1,3.3,7.4,7.4,7.4c3,0,5.6-1.8,6.8-4.3c0.6,0.8,1.3,1.5,2,2.2c1.5,1.6,2.6,4,3.6,6.2c0.6,1.4,1.1,2.8,1.8,4.2
		c-0.9,1.3-1.5,2.8-1.5,4.5c0,0,0,0.1,0,0.1c-0.5-0.8-1.1-1.5-2-1c0.8,2.1,1.5,4.3,2.5,6.3c0.7,1.3,1.3,2.8,2.7,3.5
		c1.7,0.9,3.3,2.2,4,4.8c-1.5,0.1-2.9,0.7-4,1.6c-0.4-0.3-0.9-0.6-1.5-0.8C936.1,353.7,936,353,936.6,350.8z M944.8,332.2
		c0,0,0-0.1,0-0.1c0.2,0.1,0.4,0.2,0.6,0.3C945.3,332.3,945.1,332.2,944.8,332.2z M967.3,165.4c0.1-0.1,0.4,0.1,0.6,0.1
		c0,0.3,0,0.6-0.1,1c-0.3,0-0.5-0.1-0.8-0.1C967.2,166.1,967.1,165.7,967.3,165.4z M964.1,165.5c-0.3,0-0.5,0-0.7-0.2
		c-0.1-0.1,0-0.6,0.1-0.8c0.2,0,0.5,0,0.7,0.2C964.2,164.7,964.1,165.2,964.1,165.5z M965,185.5c0.1,0.4-0.5,1-1,1.9
		c-0.6-1-0.9-1.6-1.2-2.2c0.4-0.4,0.9-1,1.3-1C964.4,184.2,964.9,185,965,185.5z M967.1,190.2c-0.6,0.3-1.5-0.5-1.6-1.3
		c-0.1-0.8,0.5-2.2,1.1-1.9c0.6,0.2,1,0.9,1.8,1.6C967.8,189.3,967.5,189.9,967.1,190.2z M978.2,165.2c0.8,0,1.5,0.1,1.5,1.4
		c0,0.7-0.8,1.4-1.2,1C977.8,167,977.9,166.1,978.2,165.2z M974.2,181.1c0.4,0.5,0.8,0.9,1.1,1.4c0.1,0.3-0.2,0.9-0.2,1.3
		c-1,0.1-1.1-0.9-1.4-1.7C973.6,182,974,181.5,974.2,181.1z M971.4,197.8c0.1-0.3,0.3-0.6,0.5-1c0.3,0.3,0.8,0.5,0.9,0.9
		c0.1,0.6,0.1,1.3,0,1.9c0,0.1-0.8,0.2-1.1,0C971.1,199.3,971.2,198.5,971.4,197.8z M969.7,161.5c0.2,0.4,0.4,0.8,0.5,1.3
		c0,0.1-0.4,0.4-0.7,0.7c-0.2-0.4-0.5-0.7-0.7-1.1C969.1,162.1,969.4,161.8,969.7,161.5z M990.3,131.9c0.1-0.2,0.2-0.4,0.3-0.5
		c0.1,0.2,0.2,0.5,0.2,0.7C990.7,132,990.5,132,990.3,131.9z M999.1,136.1c-0.6,0.3-1.3-0.6-1.3-1.6c0-0.3,0.1-0.8,0.3-1
		c0.4-0.5,1.3,0.3,1.5,1.6C999.5,135.3,999.4,135.9,999.1,136.1z M1016.5,156.1c-0.4-0.6-0.8-0.9-0.9-1.2c0-0.4,0.3-0.9,0.4-1.3
		c0.2,0.3,0.6,0.6,0.7,0.9C1016.8,154.8,1016.6,155.3,1016.5,156.1z M1029.9,125.9c-0.7-0.5-1.1-0.7-1.5-1c0.3-0.6,0.4-1.4,0.8-1.6
		c0.3-0.2,1,0.3,1.3,0.7C1030.5,124.3,1030.1,125.1,1029.9,125.9z M1033.7,130.7c-0.1,0.2-0.5,0.4-0.7,0.4c-0.2,0-0.6-0.3-0.7-0.5
		c-0.2-1.3-0.3-2.5-0.4-3.8c0.2-1.4-1.8-3.5,0.2-4.1c1.5-0.4,1.1,2.6,1.8,3.9C1034.5,127.8,1034.4,129.4,1033.7,130.7z M1033.9,3.5
		c-0.4,0.1-0.9-0.4-1.7-0.8c0.6-1,0.9-1.8,1.4-2.2c0.2-0.2,1.1,0.5,1.2,1C1035,2.4,1034.7,3.4,1033.9,3.5z M1053.2,127.4
		c0.6-0.6,1.6,0.3,1.7,1.6c0,0.6-0.2,1.4-0.5,1.9c-0.5,0.6-1.4-0.3-1.8-2C1052.7,128.5,1052.9,127.8,1053.2,127.4z M1052.6,79.1
		c0.8-0.2,1.6,1,1.5,2.1c-0.1,0.4-0.5,0.8-0.6,1.1c-1,0-1.8-1-1.7-2.1C1051.9,79.7,1052.3,79.2,1052.6,79.1z M1040.4,112.2
		c-0.2-0.2-0.4-0.3-0.5-0.6c0-0.1,0.1-0.5,0.1-0.5c0.2,0,0.5,0.1,0.7,0.2C1040.6,111.7,1040.5,112,1040.4,112.2z M1040.5,60.1
		c-0.3-0.2-0.7-0.5-0.9-0.9c-0.1-0.1,0.2-0.8,0.3-0.8c0.4,0,0.8,0.1,1.1,0.3c0.2,0.2,0.3,0.6,0.6,1.4
		C1041,60.1,1040.7,60.3,1040.5,60.1z M1039.7,42.7c1.1-0.7,1.9,0.1,2.5,1c1.4,2,2.5,4.4,3.7,7.2c-0.8,0-1.3,0.2-1.4,0
		C1042.7,48.4,1040.6,46.2,1039.7,42.7z M1045.2,102.4c-0.3,0.1-0.8-0.2-1.1-0.5c-0.2-0.2-0.3-0.6-0.5-1.1c0.1-0.3,0.1-1,0.3-1.3
		c0.5-0.5,1.1-0.2,1.4,0.5c0.1,0.3,0.3,0.7,0.2,1C1045.5,101.5,1045.4,102.3,1045.2,102.4z M1047.1,66.1c-0.5,0.2-1.1,0.1-1.7,0.2
		c-1.2-1.7-0.1-3.2,0.2-5.1c2,0.6,2.3,2.1,2.3,3.8C1048,65.4,1047.5,66,1047.1,66.1z M1048.8,95.6c-0.2-0.1-0.4-0.3-0.7-0.4
		c0.1-0.3,0.3-0.7,0.4-0.7c0.3,0.1,0.5,0.3,0.8,0.5C1049.2,95.2,1049,95.4,1048.8,95.6z M1048.1,72.4c1-0.3,1.9-0.6,2.7-0.6
		c0.3,0,0.6,0.9,1.3,2c-1.1-0.1-1.7-0.1-2.2-0.2C1049.3,73.6,1048.7,74.1,1048.1,72.4z M1052.6,97.2c1.1-0.6,1.5,0.2,1.6,1.1
		c0.1,0.8,0.1,1.6,0.1,2.5C1053.7,99.6,1053.2,98.5,1052.6,97.2z M1054.6,95.3c-0.6-1.2-1.1-2.4-1.8-3.6c-0.5-0.9-1-1.7-1.6-2.4
		c-0.8-1-1-2.2-0.4-3.3c0.2-0.4,0.7-0.5,1.1-0.6c0.2,0,0.7,0.3,0.7,0.5c0.3,2.7,1.4,4.8,2.6,6.9
		C1055.6,93.4,1055.7,94.6,1054.6,95.3z M1055.3,87.7c-2.5-2.8-2.5-3.1,0.5-5.7c0.9,1,1.7,2.1,2,4.6
		C1056.8,87,1056,87.3,1055.3,87.7z"/>
	<linearGradient id="SVGID_3_" gradientUnits="userSpaceOnUse" x1="1044.0071" y1="137.668" x2="1044.5671" y2="137.668">
		<stop  offset="0" style="stop-color:#ED312D"/>
		<stop  offset="1" style="stop-color:#F79A29;stop-opacity:0.82"/>
	</linearGradient>
	<circle class="st2" cx="1044.3" cy="137.7" r="0.3"/>
	<linearGradient id="SVGID_4_" gradientUnits="userSpaceOnUse" x1="1064.3689" y1="137.668" x2="1064.5928" y2="137.668">
		<stop  offset="0" style="stop-color:#ED312D"/>
		<stop  offset="1" style="stop-color:#F79A29;stop-opacity:0.82"/>
	</linearGradient>
	<path class="st3" d="M1064.6,137.7c0-0.1-0.1-0.1-0.1-0.1c-0.1,0-0.1,0.1-0.1,0.1c0,0.1,0.1,0.1,0.1,0.1
		C1064.5,137.8,1064.6,137.7,1064.6,137.7z"/>
	<linearGradient id="SVGID_5_" gradientUnits="userSpaceOnUse" x1="982.3064" y1="157.8617" x2="985.1062" y2="157.8617">
		<stop  offset="0" style="stop-color:#ED312D"/>
		<stop  offset="1" style="stop-color:#F79A29;stop-opacity:0.82"/>
	</linearGradient>
	<path class="st4" d="M985.1,157.9c0-0.8-0.6-1.4-1.4-1.4c-0.8,0-1.4,0.6-1.4,1.4s0.6,1.4,1.4,1.4
		C984.5,159.3,985.1,158.6,985.1,157.9z"/>
	<linearGradient id="SVGID_6_" gradientUnits="userSpaceOnUse" x1="1043.5591" y1="157.8617" x2="1045.0151" y2="157.8617">
		<stop  offset="0" style="stop-color:#ED312D"/>
		<stop  offset="1" style="stop-color:#F79A29;stop-opacity:0.82"/>
	</linearGradient>
	<circle class="st5" cx="1044.3" cy="157.9" r="0.7"/>
	<linearGradient id="SVGID_7_" gradientUnits="userSpaceOnUse" x1="1064.033" y1="157.8618" x2="1064.9287" y2="157.8618">
		<stop  offset="0" style="stop-color:#ED312D"/>
		<stop  offset="1" style="stop-color:#F79A29;stop-opacity:0.82"/>
	</linearGradient>
	<path class="st6" d="M1064,157.9c0,0.2,0.2,0.4,0.4,0.4c0.2,0,0.4-0.2,0.4-0.4s-0.2-0.4-0.4-0.4
		C1064.2,157.4,1064,157.6,1064,157.9z"/>
	<linearGradient id="SVGID_8_" gradientUnits="userSpaceOnUse" x1="1084.5066" y1="157.8618" x2="1084.8425" y2="157.8618">
		<stop  offset="0" style="stop-color:#ED312D"/>
		<stop  offset="1" style="stop-color:#F79A29;stop-opacity:0.82"/>
	</linearGradient>
	<path class="st7" d="M1084.7,158c0.1,0,0.2-0.1,0.2-0.2s-0.1-0.2-0.2-0.2s-0.2,0.1-0.2,0.2S1084.6,158,1084.7,158z"/>
	<linearGradient id="SVGID_9_" gradientUnits="userSpaceOnUse" x1="981.6343" y1="178.0554" x2="985.7781" y2="178.0554">
		<stop  offset="0" style="stop-color:#ED312D"/>
		<stop  offset="1" style="stop-color:#F79A29;stop-opacity:0.82"/>
	</linearGradient>
	<path class="st8" d="M981.6,178.1c0,1.1,0.9,2.1,2.1,2.1s2.1-0.9,2.1-2.1s-0.9-2.1-2.1-2.1S981.6,176.9,981.6,178.1z"/>
	<linearGradient id="SVGID_10_" gradientUnits="userSpaceOnUse" x1="1002.052" y1="178.0555" x2="1005.7478" y2="178.0555">
		<stop  offset="0" style="stop-color:#ED312D"/>
		<stop  offset="1" style="stop-color:#F79A29;stop-opacity:0.82"/>
	</linearGradient>
	<path class="st9" d="M1003.9,179.9c1,0,1.8-0.8,1.8-1.8c0-1-0.8-1.8-1.8-1.8c-1,0-1.8,0.8-1.8,1.8
		C1002.1,179.1,1002.9,179.9,1003.9,179.9z"/>
	<linearGradient id="SVGID_11_" gradientUnits="userSpaceOnUse" x1="1022.5256" y1="178.0554" x2="1025.6614" y2="178.0554">
		<stop  offset="0" style="stop-color:#ED312D"/>
		<stop  offset="1" style="stop-color:#F79A29;stop-opacity:0.82"/>
	</linearGradient>
	<path class="st10" d="M1024.1,179.6c0.9,0,1.6-0.7,1.6-1.6s-0.7-1.6-1.6-1.6s-1.6,0.7-1.6,1.6S1023.2,179.6,1024.1,179.6z"/>
	<linearGradient id="SVGID_12_" gradientUnits="userSpaceOnUse" x1="1043.1111" y1="178.0554" x2="1045.4631" y2="178.0554">
		<stop  offset="0" style="stop-color:#ED312D"/>
		<stop  offset="1" style="stop-color:#F79A29;stop-opacity:0.82"/>
	</linearGradient>
	<path class="st11" d="M1043.1,178.1c0,0.6,0.5,1.2,1.2,1.2c0.6,0,1.2-0.5,1.2-1.2c0-0.6-0.5-1.2-1.2-1.2
		C1043.6,176.9,1043.1,177.4,1043.1,178.1z"/>
	<linearGradient id="SVGID_13_" gradientUnits="userSpaceOnUse" x1="1063.6411" y1="178.0554" x2="1065.3208" y2="178.0554">
		<stop  offset="0" style="stop-color:#ED312D"/>
		<stop  offset="1" style="stop-color:#F79A29;stop-opacity:0.82"/>
	</linearGradient>
	<path class="st12" d="M1063.6,178.1c0,0.5,0.4,0.8,0.8,0.8c0.5,0,0.8-0.4,0.8-0.8c0-0.5-0.4-0.8-0.8-0.8
		C1064,177.2,1063.6,177.6,1063.6,178.1z"/>
	<linearGradient id="SVGID_14_" gradientUnits="userSpaceOnUse" x1="1084.1707" y1="178.0554" x2="1085.1785" y2="178.0554">
		<stop  offset="0" style="stop-color:#ED312D"/>
		<stop  offset="1" style="stop-color:#F79A29;stop-opacity:0.82"/>
	</linearGradient>
	<path class="st13" d="M1084.7,178.6c0.3,0,0.5-0.2,0.5-0.5s-0.2-0.5-0.5-0.5s-0.5,0.2-0.5,0.5S1084.4,178.6,1084.7,178.6z"/>
	<linearGradient id="SVGID_15_" gradientUnits="userSpaceOnUse" x1="1104.7002" y1="178.0554" x2="1105.0361" y2="178.0554">
		<stop  offset="0" style="stop-color:#ED312D"/>
		<stop  offset="1" style="stop-color:#F79A29;stop-opacity:0.82"/>
	</linearGradient>
	<circle class="st14" cx="1104.9" cy="178.1" r="0.2"/>
	<linearGradient id="SVGID_16_" gradientUnits="userSpaceOnUse" x1="1001.4363" y1="198.2491" x2="1006.3638" y2="198.2491">
		<stop  offset="0" style="stop-color:#ED312D"/>
		<stop  offset="1" style="stop-color:#F79A29;stop-opacity:0.82"/>
	</linearGradient>
	<path class="st15" d="M1003.9,200.7c1.4,0,2.5-1.1,2.5-2.5s-1.1-2.5-2.5-2.5c-1.4,0-2.5,1.1-2.5,2.5S1002.5,200.7,1003.9,200.7z"/>
	<linearGradient id="SVGID_17_" gradientUnits="userSpaceOnUse" x1="1021.9656" y1="198.249" x2="1026.2214" y2="198.249">
		<stop  offset="0" style="stop-color:#ED312D"/>
		<stop  offset="1" style="stop-color:#F79A29;stop-opacity:0.82"/>
	</linearGradient>
	<circle class="st16" cx="1024.1" cy="198.2" r="2.1"/>
	<linearGradient id="SVGID_18_" gradientUnits="userSpaceOnUse" x1="1042.5515" y1="198.2491" x2="1046.0232" y2="198.2491">
		<stop  offset="0" style="stop-color:#ED312D"/>
		<stop  offset="1" style="stop-color:#F79A29;stop-opacity:0.82"/>
	</linearGradient>
	<path class="st17" d="M1042.6,198.2c0,1,0.8,1.7,1.7,1.7c1,0,1.7-0.8,1.7-1.7c0-1-0.8-1.7-1.7-1.7
		C1043.3,196.5,1042.6,197.3,1042.6,198.2z"/>
	<linearGradient id="SVGID_19_" gradientUnits="userSpaceOnUse" x1="1063.1931" y1="198.249" x2="1065.7688" y2="198.249">
		<stop  offset="0" style="stop-color:#ED312D"/>
		<stop  offset="1" style="stop-color:#F79A29;stop-opacity:0.82"/>
	</linearGradient>
	<path class="st18" d="M1063.2,198.2c0,0.7,0.6,1.3,1.3,1.3c0.7,0,1.3-0.6,1.3-1.3s-0.6-1.3-1.3-1.3
		C1063.8,197,1063.2,197.5,1063.2,198.2z"/>
	<linearGradient id="SVGID_20_" gradientUnits="userSpaceOnUse" x1="1083.8347" y1="198.249" x2="1085.5144" y2="198.249">
		<stop  offset="0" style="stop-color:#ED312D"/>
		<stop  offset="1" style="stop-color:#F79A29;stop-opacity:0.82"/>
	</linearGradient>
	<circle class="st19" cx="1084.7" cy="198.2" r="0.8"/>
	<linearGradient id="SVGID_21_" gradientUnits="userSpaceOnUse" x1="1104.4202" y1="198.249" x2="1105.3162" y2="198.249">
		<stop  offset="0" style="stop-color:#ED312D"/>
		<stop  offset="1" style="stop-color:#F79A29;stop-opacity:0.82"/>
	</linearGradient>
	<circle class="st20" cx="1104.9" cy="198.2" r="0.4"/>
	<linearGradient id="SVGID_22_" gradientUnits="userSpaceOnUse" x1="1124.95" y1="198.249" x2="1125.1738" y2="198.249">
		<stop  offset="0" style="stop-color:#ED312D"/>
		<stop  offset="1" style="stop-color:#F79A29;stop-opacity:0.82"/>
	</linearGradient>
	<path class="st21" d="M1125.1,198.4c0.1,0,0.1-0.1,0.1-0.1c0-0.1-0.1-0.1-0.1-0.1c-0.1,0-0.1,0.1-0.1,0.1
		C1124.9,198.3,1125,198.4,1125.1,198.4z"/>
	<linearGradient id="SVGID_23_" gradientUnits="userSpaceOnUse" x1="1000.7639" y1="218.4426" x2="1007.0354" y2="218.4426">
		<stop  offset="0" style="stop-color:#ED312D"/>
		<stop  offset="1" style="stop-color:#F79A29;stop-opacity:0.82"/>
	</linearGradient>
	<circle class="st22" cx="1003.9" cy="218.4" r="3.1"/>
	<linearGradient id="SVGID_24_" gradientUnits="userSpaceOnUse" x1="1021.3499" y1="218.4429" x2="1026.8374" y2="218.4429">
		<stop  offset="0" style="stop-color:#ED312D"/>
		<stop  offset="1" style="stop-color:#F79A29;stop-opacity:0.82"/>
	</linearGradient>
	<path class="st23" d="M1024.1,221.2c1.5,0,2.7-1.2,2.7-2.7c0-1.5-1.2-2.7-2.7-2.7c-1.5,0-2.7,1.2-2.7,2.7
		C1021.3,220,1022.6,221.2,1024.1,221.2z"/>
	<linearGradient id="SVGID_25_" gradientUnits="userSpaceOnUse" x1="1042.0474" y1="218.4427" x2="1046.5269" y2="218.4427">
		<stop  offset="0" style="stop-color:#ED312D"/>
		<stop  offset="1" style="stop-color:#F79A29;stop-opacity:0.82"/>
	</linearGradient>
	<path class="st24" d="M1044.3,220.7c1.2,0,2.2-1,2.2-2.2c0-1.2-1-2.2-2.2-2.2c-1.2,0-2.2,1-2.2,2.2
		C1042,219.7,1043.1,220.7,1044.3,220.7z"/>
	<linearGradient id="SVGID_26_" gradientUnits="userSpaceOnUse" x1="1062.7451" y1="218.4427" x2="1066.2168" y2="218.4427">
		<stop  offset="0" style="stop-color:#ED312D"/>
		<stop  offset="1" style="stop-color:#F79A29;stop-opacity:0.82"/>
	</linearGradient>
	<path class="st25" d="M1064.5,220.2c1,0,1.7-0.8,1.7-1.7c0-1-0.8-1.7-1.7-1.7c-1,0-1.7,0.8-1.7,1.7
		C1062.7,219.4,1063.5,220.2,1064.5,220.2z"/>
	<linearGradient id="SVGID_27_" gradientUnits="userSpaceOnUse" x1="1083.4426" y1="218.4427" x2="1085.9065" y2="218.4427">
		<stop  offset="0" style="stop-color:#ED312D"/>
		<stop  offset="1" style="stop-color:#F79A29;stop-opacity:0.82"/>
	</linearGradient>
	<path class="st26" d="M1084.7,219.7c0.7,0,1.2-0.6,1.2-1.2c0-0.7-0.6-1.2-1.2-1.2c-0.7,0-1.2,0.6-1.2,1.2
		C1083.4,219.1,1084,219.7,1084.7,219.7z"/>
	<linearGradient id="SVGID_28_" gradientUnits="userSpaceOnUse" x1="1104.1401" y1="218.4427" x2="1105.5959" y2="218.4427">
		<stop  offset="0" style="stop-color:#ED312D"/>
		<stop  offset="1" style="stop-color:#F79A29;stop-opacity:0.82"/>
	</linearGradient>
	<path class="st27" d="M1104.9,219.2c0.4,0,0.7-0.3,0.7-0.7c0-0.4-0.3-0.7-0.7-0.7c-0.4,0-0.7,0.3-0.7,0.7
		C1104.1,218.8,1104.5,219.2,1104.9,219.2z"/>
	<linearGradient id="SVGID_29_" gradientUnits="userSpaceOnUse" x1="1124.7817" y1="218.4426" x2="1125.3418" y2="218.4426">
		<stop  offset="0" style="stop-color:#ED312D"/>
		<stop  offset="1" style="stop-color:#F79A29;stop-opacity:0.82"/>
	</linearGradient>
	<circle class="st28" cx="1125.1" cy="218.4" r="0.3"/>
	<linearGradient id="SVGID_30_" gradientUnits="userSpaceOnUse" x1="1145.1995" y1="218.4427" x2="1145.3118" y2="218.4427">
		<stop  offset="0" style="stop-color:#ED312D"/>
		<stop  offset="1" style="stop-color:#F79A29;stop-opacity:0.82"/>
	</linearGradient>
	<path class="st29" d="M1145.3,218.4C1145.3,218.4,1145.3,218.4,1145.3,218.4c-0.1-0.1-0.1,0-0.1,0
		C1145.2,218.5,1145.2,218.5,1145.3,218.4C1145.3,218.5,1145.3,218.5,1145.3,218.4z"/>
	<linearGradient id="SVGID_31_" gradientUnits="userSpaceOnUse" x1="1000.0361" y1="238.6364" x2="1007.7634" y2="238.6364">
		<stop  offset="0" style="stop-color:#ED312D"/>
		<stop  offset="1" style="stop-color:#F79A29;stop-opacity:0.82"/>
	</linearGradient>
	<path class="st30" d="M1003.9,242.5c2.1,0,3.9-1.7,3.9-3.9s-1.7-3.9-3.9-3.9c-2.1,0-3.9,1.7-3.9,3.9S1001.8,242.5,1003.9,242.5z"/>
	<linearGradient id="SVGID_32_" gradientUnits="userSpaceOnUse" x1="1020.7898" y1="238.6364" x2="1027.3975" y2="238.6364">
		<stop  offset="0" style="stop-color:#ED312D"/>
		<stop  offset="1" style="stop-color:#F79A29;stop-opacity:0.82"/>
	</linearGradient>
	<path class="st31" d="M1024.1,241.9c1.8,0,3.3-1.5,3.3-3.3c0-1.8-1.5-3.3-3.3-3.3s-3.3,1.5-3.3,3.3
		C1020.8,240.5,1022.3,241.9,1024.1,241.9z"/>
	<linearGradient id="SVGID_33_" gradientUnits="userSpaceOnUse" x1="1041.5435" y1="238.6365" x2="1047.031" y2="238.6365">
		<stop  offset="0" style="stop-color:#ED312D"/>
		<stop  offset="1" style="stop-color:#F79A29;stop-opacity:0.82"/>
	</linearGradient>
	<path class="st32" d="M1044.3,241.4c1.5,0,2.7-1.2,2.7-2.7c0-1.5-1.2-2.7-2.7-2.7c-1.5,0-2.7,1.2-2.7,2.7
		C1041.5,240.2,1042.8,241.4,1044.3,241.4z"/>
	<linearGradient id="SVGID_34_" gradientUnits="userSpaceOnUse" x1="1062.353" y1="238.6364" x2="1066.6089" y2="238.6364">
		<stop  offset="0" style="stop-color:#ED312D"/>
		<stop  offset="1" style="stop-color:#F79A29;stop-opacity:0.82"/>
	</linearGradient>
	<path class="st33" d="M1064.5,240.8c1.2,0,2.1-1,2.1-2.1c0-1.2-1-2.1-2.1-2.1c-1.2,0-2.1,1-2.1,2.1
		C1062.4,239.8,1063.3,240.8,1064.5,240.8z"/>
	<linearGradient id="SVGID_35_" gradientUnits="userSpaceOnUse" x1="1083.1067" y1="238.6364" x2="1086.2424" y2="238.6364">
		<stop  offset="0" style="stop-color:#ED312D"/>
		<stop  offset="1" style="stop-color:#F79A29;stop-opacity:0.82"/>
	</linearGradient>
	<circle class="st34" cx="1084.7" cy="238.6" r="1.6"/>
	<linearGradient id="SVGID_36_" gradientUnits="userSpaceOnUse" x1="1103.8604" y1="238.6364" x2="1105.8762" y2="238.6364">
		<stop  offset="0" style="stop-color:#ED312D"/>
		<stop  offset="1" style="stop-color:#F79A29;stop-opacity:0.82"/>
	</linearGradient>
	<path class="st35" d="M1104.9,239.6c0.6,0,1-0.5,1-1c0-0.6-0.5-1-1-1s-1,0.5-1,1C1103.9,239.2,1104.3,239.6,1104.9,239.6z"/>
	<linearGradient id="SVGID_37_" gradientUnits="userSpaceOnUse" x1="1124.5579" y1="238.6364" x2="1125.5659" y2="238.6364">
		<stop  offset="0" style="stop-color:#ED312D"/>
		<stop  offset="1" style="stop-color:#F79A29;stop-opacity:0.82"/>
	</linearGradient>
	<path class="st36" d="M1125.1,239.1c0.3,0,0.5-0.2,0.5-0.5c0-0.3-0.2-0.5-0.5-0.5s-0.5,0.2-0.5,0.5
		C1124.6,238.9,1124.8,239.1,1125.1,239.1z"/>
	<linearGradient id="SVGID_38_" gradientUnits="userSpaceOnUse" x1="1145.1438" y1="238.6364" x2="1145.3674" y2="238.6364">
		<stop  offset="0" style="stop-color:#ED312D"/>
		<stop  offset="1" style="stop-color:#F79A29;stop-opacity:0.82"/>
	</linearGradient>
	<path class="st37" d="M1145.3,238.7c0.1,0,0.1-0.1,0.1-0.1s-0.1-0.1-0.1-0.1c-0.1,0-0.1,0.1-0.1,0.1S1145.2,238.7,1145.3,238.7z"/>
	<linearGradient id="SVGID_39_" gradientUnits="userSpaceOnUse" x1="999.4202" y1="258.83" x2="1008.3796" y2="258.83">
		<stop  offset="0" style="stop-color:#ED312D"/>
		<stop  offset="1" style="stop-color:#F79A29;stop-opacity:0.82"/>
	</linearGradient>
	<path class="st38" d="M1003.9,263.3c2.5,0,4.5-2,4.5-4.5c0-2.5-2-4.5-4.5-4.5c-2.5,0-4.5,2-4.5,4.5
		C999.4,261.3,1001.4,263.3,1003.9,263.3z"/>
	<linearGradient id="SVGID_40_" gradientUnits="userSpaceOnUse" x1="1020.2297" y1="258.8301" x2="1027.9573" y2="258.8301">
		<stop  offset="0" style="stop-color:#ED312D"/>
		<stop  offset="1" style="stop-color:#F79A29;stop-opacity:0.82"/>
	</linearGradient>
	<circle class="st39" cx="1024.1" cy="258.8" r="3.9"/>
	<linearGradient id="SVGID_41_" gradientUnits="userSpaceOnUse" x1="1041.0955" y1="258.83" x2="1047.479" y2="258.83">
		<stop  offset="0" style="stop-color:#ED312D"/>
		<stop  offset="1" style="stop-color:#F79A29;stop-opacity:0.82"/>
	</linearGradient>
	<path class="st40" d="M1044.3,262c1.8,0,3.2-1.4,3.2-3.2s-1.4-3.2-3.2-3.2c-1.8,0-3.2,1.4-3.2,3.2S1042.5,262,1044.3,262z"/>
	<linearGradient id="SVGID_42_" gradientUnits="userSpaceOnUse" x1="1061.9609" y1="258.83" x2="1067.0007" y2="258.83">
		<stop  offset="0" style="stop-color:#ED312D"/>
		<stop  offset="1" style="stop-color:#F79A29;stop-opacity:0.82"/>
	</linearGradient>
	<path class="st41" d="M1064.5,261.3c1.4,0,2.5-1.1,2.5-2.5c0-1.4-1.1-2.5-2.5-2.5s-2.5,1.1-2.5,2.5
		C1062,260.2,1063.1,261.3,1064.5,261.3z"/>
	<linearGradient id="SVGID_43_" gradientUnits="userSpaceOnUse" x1="1082.8267" y1="258.8302" x2="1086.5225" y2="258.8302">
		<stop  offset="0" style="stop-color:#ED312D"/>
		<stop  offset="1" style="stop-color:#F79A29;stop-opacity:0.82"/>
	</linearGradient>
	<path class="st42" d="M1084.7,260.7c1,0,1.8-0.8,1.8-1.8c0-1-0.8-1.8-1.8-1.8c-1,0-1.8,0.8-1.8,1.8
		C1082.8,259.9,1083.7,260.7,1084.7,260.7z"/>
	<linearGradient id="SVGID_44_" gradientUnits="userSpaceOnUse" x1="1103.6362" y1="258.83" x2="1106.1003" y2="258.83">
		<stop  offset="0" style="stop-color:#ED312D"/>
		<stop  offset="1" style="stop-color:#F79A29;stop-opacity:0.82"/>
	</linearGradient>
	<path class="st43" d="M1104.9,260.1c0.7,0,1.2-0.6,1.2-1.2c0-0.7-0.6-1.2-1.2-1.2c-0.7,0-1.2,0.6-1.2,1.2
		C1103.6,259.5,1104.2,260.1,1104.9,260.1z"/>
	<linearGradient id="SVGID_45_" gradientUnits="userSpaceOnUse" x1="1124.3899" y1="258.8302" x2="1125.7339" y2="258.8302">
		<stop  offset="0" style="stop-color:#ED312D"/>
		<stop  offset="1" style="stop-color:#F79A29;stop-opacity:0.82"/>
	</linearGradient>
	<path class="st44" d="M1125.1,259.5c0.4,0,0.7-0.3,0.7-0.7c0-0.4-0.3-0.7-0.7-0.7c-0.4,0-0.7,0.3-0.7,0.7
		C1124.4,259.2,1124.7,259.5,1125.1,259.5z"/>
	<linearGradient id="SVGID_46_" gradientUnits="userSpaceOnUse" x1="1144.9753" y1="258.8301" x2="1145.5354" y2="258.8301">
		<stop  offset="0" style="stop-color:#ED312D"/>
		<stop  offset="1" style="stop-color:#F79A29;stop-opacity:0.82"/>
	</linearGradient>
	<circle class="st45" cx="1145.3" cy="258.8" r="0.3"/>
	<linearGradient id="SVGID_47_" gradientUnits="userSpaceOnUse" x1="977.9385" y1="279.0237" x2="989.4739" y2="279.0237">
		<stop  offset="0" style="stop-color:#ED312D"/>
		<stop  offset="1" style="stop-color:#F79A29;stop-opacity:0.82"/>
	</linearGradient>
	<path class="st46" d="M983.7,284.8c3.2,0,5.8-2.6,5.8-5.8c0-3.2-2.6-5.8-5.8-5.8c-3.2,0-5.8,2.6-5.8,5.8
		C977.9,282.2,980.5,284.8,983.7,284.8z"/>
	<linearGradient id="SVGID_48_" gradientUnits="userSpaceOnUse" x1="1019.7817" y1="279.0237" x2="1028.405" y2="279.0237">
		<stop  offset="0" style="stop-color:#ED312D"/>
		<stop  offset="1" style="stop-color:#F79A29;stop-opacity:0.82"/>
	</linearGradient>
	<path class="st47" d="M1024.1,283.3c2.4,0,4.3-1.9,4.3-4.3s-1.9-4.3-4.3-4.3s-4.3,1.9-4.3,4.3S1021.7,283.3,1024.1,283.3z"/>
	<linearGradient id="SVGID_49_" gradientUnits="userSpaceOnUse" x1="1040.7034" y1="279.0237" x2="1047.8711" y2="279.0237">
		<stop  offset="0" style="stop-color:#ED312D"/>
		<stop  offset="1" style="stop-color:#F79A29;stop-opacity:0.82"/>
	</linearGradient>
	<path class="st48" d="M1044.3,282.6c2,0,3.6-1.6,3.6-3.6s-1.6-3.6-3.6-3.6s-3.6,1.6-3.6,3.6S1042.3,282.6,1044.3,282.6z"/>
	<linearGradient id="SVGID_50_" gradientUnits="userSpaceOnUse" x1="1061.6809" y1="279.0237" x2="1067.2805" y2="279.0237">
		<stop  offset="0" style="stop-color:#ED312D"/>
		<stop  offset="1" style="stop-color:#F79A29;stop-opacity:0.82"/>
	</linearGradient>
	<circle class="st49" cx="1064.5" cy="279" r="2.8"/>
	<linearGradient id="SVGID_51_" gradientUnits="userSpaceOnUse" x1="1082.6025" y1="279.0237" x2="1086.7463" y2="279.0237">
		<stop  offset="0" style="stop-color:#ED312D"/>
		<stop  offset="1" style="stop-color:#F79A29;stop-opacity:0.82"/>
	</linearGradient>
	<path class="st50" d="M1084.7,281.1c1.1,0,2.1-0.9,2.1-2.1s-0.9-2.1-2.1-2.1c-1.1,0-2.1,0.9-2.1,2.1S1083.5,281.1,1084.7,281.1z"/>
	<linearGradient id="SVGID_52_" gradientUnits="userSpaceOnUse" x1="1103.4121" y1="279.0237" x2="1106.324" y2="279.0237">
		<stop  offset="0" style="stop-color:#ED312D"/>
		<stop  offset="1" style="stop-color:#F79A29;stop-opacity:0.82"/>
	</linearGradient>
	<path class="st51" d="M1104.9,280.5c0.8,0,1.5-0.7,1.5-1.5c0-0.8-0.7-1.5-1.5-1.5s-1.5,0.7-1.5,1.5
		C1103.4,279.8,1104.1,280.5,1104.9,280.5z"/>
	<linearGradient id="SVGID_53_" gradientUnits="userSpaceOnUse" x1="1124.2219" y1="279.0237" x2="1125.9019" y2="279.0237">
		<stop  offset="0" style="stop-color:#ED312D"/>
		<stop  offset="1" style="stop-color:#F79A29;stop-opacity:0.82"/>
	</linearGradient>
	<path class="st52" d="M1125.1,279.9c0.5,0,0.8-0.4,0.8-0.8c0-0.5-0.4-0.8-0.8-0.8c-0.5,0-0.8,0.4-0.8,0.8
		C1124.2,279.5,1124.6,279.9,1125.1,279.9z"/>
	<linearGradient id="SVGID_54_" gradientUnits="userSpaceOnUse" x1="1144.9197" y1="279.0237" x2="1145.5916" y2="279.0237">
		<stop  offset="0" style="stop-color:#ED312D"/>
		<stop  offset="1" style="stop-color:#F79A29;stop-opacity:0.82"/>
	</linearGradient>
	<path class="st53" d="M1145.3,279.4c0.2,0,0.3-0.2,0.3-0.3c0-0.2-0.2-0.3-0.3-0.3c-0.2,0-0.3,0.2-0.3,0.3
		C1144.9,279.2,1145.1,279.4,1145.3,279.4z"/>
	<linearGradient id="SVGID_55_" gradientUnits="userSpaceOnUse" x1="1165.3933" y1="279.0237" x2="1165.5054" y2="279.0237">
		<stop  offset="0" style="stop-color:#ED312D"/>
		<stop  offset="1" style="stop-color:#F79A29;stop-opacity:0.82"/>
	</linearGradient>
	<path class="st54" d="M1165.5,279C1165.5,279,1165.5,279,1165.5,279c-0.1-0.1-0.1,0-0.1,0S1165.4,279.1,1165.5,279
		C1165.5,279.1,1165.5,279.1,1165.5,279z"/>
	<linearGradient id="SVGID_56_" gradientUnits="userSpaceOnUse" x1="977.3787" y1="299.2173" x2="990.0339" y2="299.2173">
		<stop  offset="0" style="stop-color:#ED312D"/>
		<stop  offset="1" style="stop-color:#F79A29;stop-opacity:0.82"/>
	</linearGradient>
	<path class="st55" d="M983.7,305.5c3.5,0,6.3-2.8,6.3-6.3c0-3.5-2.8-6.3-6.3-6.3c-3.5,0-6.3,2.8-6.3,6.3
		C977.4,302.7,980.2,305.5,983.7,305.5z"/>
	<linearGradient id="SVGID_57_" gradientUnits="userSpaceOnUse" x1="998.4121" y1="299.2174" x2="1009.3875" y2="299.2174">
		<stop  offset="0" style="stop-color:#ED312D"/>
		<stop  offset="1" style="stop-color:#F79A29;stop-opacity:0.82"/>
	</linearGradient>
	<path class="st56" d="M1003.9,304.7c3,0,5.5-2.5,5.5-5.5c0-3-2.5-5.5-5.5-5.5s-5.5,2.5-5.5,5.5
		C998.4,302.2,1000.9,304.7,1003.9,304.7z"/>
	<linearGradient id="SVGID_58_" gradientUnits="userSpaceOnUse" x1="1019.4458" y1="299.2174" x2="1028.7415" y2="299.2174">
		<stop  offset="0" style="stop-color:#ED312D"/>
		<stop  offset="1" style="stop-color:#F79A29;stop-opacity:0.82"/>
	</linearGradient>
	<path class="st57" d="M1024.1,303.9c2.6,0,4.6-2.1,4.6-4.6c0-2.6-2.1-4.6-4.6-4.6c-2.6,0-4.6,2.1-4.6,4.6
		C1019.4,301.8,1021.5,303.9,1024.1,303.9z"/>
	<linearGradient id="SVGID_59_" gradientUnits="userSpaceOnUse" x1="1040.4797" y1="299.2173" x2="1048.095" y2="299.2173">
		<stop  offset="0" style="stop-color:#ED312D"/>
		<stop  offset="1" style="stop-color:#F79A29;stop-opacity:0.82"/>
	</linearGradient>
	<path class="st58" d="M1044.3,303c2.1,0,3.8-1.7,3.8-3.8c0-2.1-1.7-3.8-3.8-3.8c-2.1,0-3.8,1.7-3.8,3.8
		C1040.5,301.3,1042.2,303,1044.3,303z"/>
	<linearGradient id="SVGID_60_" gradientUnits="userSpaceOnUse" x1="1061.5129" y1="299.2173" x2="1067.4485" y2="299.2173">
		<stop  offset="0" style="stop-color:#ED312D"/>
		<stop  offset="1" style="stop-color:#F79A29;stop-opacity:0.82"/>
	</linearGradient>
	<path class="st59" d="M1064.5,302.2c1.6,0,3-1.3,3-3c0-1.6-1.3-3-3-3c-1.6,0-3,1.3-3,3C1061.5,300.9,1062.8,302.2,1064.5,302.2z"/>
	<linearGradient id="SVGID_61_" gradientUnits="userSpaceOnUse" x1="1082.4346" y1="299.2173" x2="1086.9143" y2="299.2173">
		<stop  offset="0" style="stop-color:#ED312D"/>
		<stop  offset="1" style="stop-color:#F79A29;stop-opacity:0.82"/>
	</linearGradient>
	<path class="st60" d="M1084.7,301.5c1.2,0,2.2-1,2.2-2.2c0-1.2-1-2.2-2.2-2.2s-2.2,1-2.2,2.2
		C1082.4,300.5,1083.4,301.5,1084.7,301.5z"/>
	<linearGradient id="SVGID_62_" gradientUnits="userSpaceOnUse" x1="1103.3005" y1="299.2174" x2="1106.4363" y2="299.2174">
		<stop  offset="0" style="stop-color:#ED312D"/>
		<stop  offset="1" style="stop-color:#F79A29;stop-opacity:0.82"/>
	</linearGradient>
	<path class="st61" d="M1104.9,300.8c0.9,0,1.6-0.7,1.6-1.6s-0.7-1.6-1.6-1.6s-1.6,0.7-1.6,1.6S1104,300.8,1104.9,300.8z"/>
	<linearGradient id="SVGID_63_" gradientUnits="userSpaceOnUse" x1="1124.1101" y1="299.2174" x2="1126.0139" y2="299.2174">
		<stop  offset="0" style="stop-color:#ED312D"/>
		<stop  offset="1" style="stop-color:#F79A29;stop-opacity:0.82"/>
	</linearGradient>
	<path class="st62" d="M1125.1,298.3c-0.5,0-1,0.4-1,1c0,0.5,0.4,1,1,1s1-0.4,1-1C1126,298.7,1125.6,298.3,1125.1,298.3z"/>
	<linearGradient id="SVGID_64_" gradientUnits="userSpaceOnUse" x1="1144.8074" y1="299.2173" x2="1145.7034" y2="299.2173">
		<stop  offset="0" style="stop-color:#ED312D"/>
		<stop  offset="1" style="stop-color:#F79A29;stop-opacity:0.82"/>
	</linearGradient>
	<path class="st63" d="M1145.3,298.8c-0.2,0-0.4,0.2-0.4,0.4c0,0.2,0.2,0.4,0.4,0.4s0.4-0.2,0.4-0.4
		C1145.7,299,1145.5,298.8,1145.3,298.8z"/>
	<linearGradient id="SVGID_65_" gradientUnits="userSpaceOnUse" x1="1165.3933" y1="299.2173" x2="1165.5054" y2="299.2173">
		<stop  offset="0" style="stop-color:#ED312D"/>
		<stop  offset="1" style="stop-color:#F79A29;stop-opacity:0.82"/>
	</linearGradient>
	<path class="st64" d="M1165.4,299.2C1165.4,299.2,1165.4,299.3,1165.4,299.2c0.1,0.1,0.1,0,0.1,0
		C1165.5,299.2,1165.5,299.2,1165.4,299.2C1165.4,299.2,1165.4,299.2,1165.4,299.2z"/>
	<linearGradient id="SVGID_66_" gradientUnits="userSpaceOnUse" x1="955.9529" y1="319.411" x2="971.072" y2="319.411">
		<stop  offset="0" style="stop-color:#ED312D"/>
		<stop  offset="1" style="stop-color:#F79A29;stop-opacity:0.82"/>
	</linearGradient>
	<circle class="st65" cx="963.5" cy="319.4" r="7.6"/>
	<linearGradient id="SVGID_67_" gradientUnits="userSpaceOnUse" x1="977.0989" y1="319.4111" x2="990.3137" y2="319.4111">
		<stop  offset="0" style="stop-color:#ED312D"/>
		<stop  offset="1" style="stop-color:#F79A29;stop-opacity:0.82"/>
	</linearGradient>
	<path class="st66" d="M983.7,312.8c-3.6,0-6.6,3-6.6,6.6s3,6.6,6.6,6.6c3.6,0,6.6-3,6.6-6.6S987.4,312.8,983.7,312.8z"/>
	<linearGradient id="SVGID_68_" gradientUnits="userSpaceOnUse" x1="998.2441" y1="319.411" x2="1009.5557" y2="319.411">
		<stop  offset="0" style="stop-color:#ED312D"/>
		<stop  offset="1" style="stop-color:#F79A29;stop-opacity:0.82"/>
	</linearGradient>
	<path class="st67" d="M1003.9,313.8c-3.1,0-5.7,2.5-5.7,5.7s2.5,5.7,5.7,5.7c3.1,0,5.7-2.5,5.7-5.7S1007,313.8,1003.9,313.8z"/>
	<linearGradient id="SVGID_69_" gradientUnits="userSpaceOnUse" x1="1019.3337" y1="319.411" x2="1028.853" y2="319.411">
		<stop  offset="0" style="stop-color:#ED312D"/>
		<stop  offset="1" style="stop-color:#F79A29;stop-opacity:0.82"/>
	</linearGradient>
	<path class="st68" d="M1024.1,314.7c-2.6,0-4.8,2.1-4.8,4.8c0,2.6,2.1,4.8,4.8,4.8c2.6,0,4.8-2.1,4.8-4.8
		C1028.9,316.8,1026.7,314.7,1024.1,314.7z"/>
	<linearGradient id="SVGID_70_" gradientUnits="userSpaceOnUse" x1="1040.4233" y1="319.4111" x2="1048.1509" y2="319.4111">
		<stop  offset="0" style="stop-color:#ED312D"/>
		<stop  offset="1" style="stop-color:#F79A29;stop-opacity:0.82"/>
	</linearGradient>
	<path class="st69" d="M1044.3,315.5c-2.1,0-3.9,1.7-3.9,3.9s1.7,3.9,3.9,3.9c2.1,0,3.9-1.7,3.9-3.9S1046.4,315.5,1044.3,315.5z"/>
	<linearGradient id="SVGID_71_" gradientUnits="userSpaceOnUse" x1="1061.4011" y1="319.4111" x2="1067.5608" y2="319.4111">
		<stop  offset="0" style="stop-color:#ED312D"/>
		<stop  offset="1" style="stop-color:#F79A29;stop-opacity:0.82"/>
	</linearGradient>
	<path class="st70" d="M1064.5,316.3c-1.7,0-3.1,1.4-3.1,3.1c0,1.7,1.4,3.1,3.1,3.1c1.7,0,3.1-1.4,3.1-3.1
		C1067.6,317.7,1066.2,316.3,1064.5,316.3z"/>
	<linearGradient id="SVGID_72_" gradientUnits="userSpaceOnUse" x1="1082.3787" y1="319.4112" x2="1086.9705" y2="319.4112">
		<stop  offset="0" style="stop-color:#ED312D"/>
		<stop  offset="1" style="stop-color:#F79A29;stop-opacity:0.82"/>
	</linearGradient>
	<path class="st71" d="M1084.7,317.1c-1.3,0-2.3,1-2.3,2.3s1,2.3,2.3,2.3s2.3-1,2.3-2.3S1085.9,317.1,1084.7,317.1z"/>
	<linearGradient id="SVGID_73_" gradientUnits="userSpaceOnUse" x1="1103.2441" y1="319.411" x2="1106.4919" y2="319.411">
		<stop  offset="0" style="stop-color:#ED312D"/>
		<stop  offset="1" style="stop-color:#F79A29;stop-opacity:0.82"/>
	</linearGradient>
	<path class="st72" d="M1104.9,317.8c-0.9,0-1.6,0.7-1.6,1.6c0,0.9,0.7,1.6,1.6,1.6s1.6-0.7,1.6-1.6
		C1106.5,318.5,1105.8,317.8,1104.9,317.8z"/>
	<linearGradient id="SVGID_74_" gradientUnits="userSpaceOnUse" x1="1124.1101" y1="319.411" x2="1126.0139" y2="319.411">
		<stop  offset="0" style="stop-color:#ED312D"/>
		<stop  offset="1" style="stop-color:#F79A29;stop-opacity:0.82"/>
	</linearGradient>
	<path class="st73" d="M1125.1,318.5c-0.5,0-1,0.4-1,1s0.4,1,1,1s1-0.4,1-1S1125.6,318.5,1125.1,318.5z"/>
	<linearGradient id="SVGID_75_" gradientUnits="userSpaceOnUse" x1="1144.8074" y1="319.4111" x2="1145.7034" y2="319.4111">
		<stop  offset="0" style="stop-color:#ED312D"/>
		<stop  offset="1" style="stop-color:#F79A29;stop-opacity:0.82"/>
	</linearGradient>
	<path class="st74" d="M1145.3,319c-0.2,0-0.4,0.2-0.4,0.4s0.2,0.4,0.4,0.4s0.4-0.2,0.4-0.4S1145.5,319,1145.3,319z"/>
	<linearGradient id="SVGID_76_" gradientUnits="userSpaceOnUse" x1="1165.3933" y1="319.4111" x2="1165.5054" y2="319.4111">
		<stop  offset="0" style="stop-color:#ED312D"/>
		<stop  offset="1" style="stop-color:#F79A29;stop-opacity:0.82"/>
	</linearGradient>
	<path class="st75" d="M1165.4,319.4C1165.4,319.4,1165.4,319.5,1165.4,319.4c0.1,0.1,0.1,0,0.1,0
		C1165.5,319.4,1165.5,319.4,1165.4,319.4C1165.4,319.4,1165.4,319.4,1165.4,319.4z"/>
	<linearGradient id="SVGID_77_" gradientUnits="userSpaceOnUse" x1="956.345" y1="339.6047" x2="970.6802" y2="339.6047">
		<stop  offset="0" style="stop-color:#ED312D"/>
		<stop  offset="1" style="stop-color:#F79A29;stop-opacity:0.82"/>
	</linearGradient>
	<path class="st76" d="M963.5,332.4c-4,0-7.2,3.2-7.2,7.2c0,4,3.2,7.2,7.2,7.2c4,0,7.2-3.2,7.2-7.2
		C970.7,335.6,967.5,332.4,963.5,332.4z"/>
	<linearGradient id="SVGID_78_" gradientUnits="userSpaceOnUse" x1="977.3225" y1="339.6047" x2="990.0896" y2="339.6047">
		<stop  offset="0" style="stop-color:#ED312D"/>
		<stop  offset="1" style="stop-color:#F79A29;stop-opacity:0.82"/>
	</linearGradient>
	<circle class="st77" cx="983.7" cy="339.6" r="6.4"/>
	<linearGradient id="SVGID_79_" gradientUnits="userSpaceOnUse" x1="998.3562" y1="339.6047" x2="1009.4436" y2="339.6047">
		<stop  offset="0" style="stop-color:#ED312D"/>
		<stop  offset="1" style="stop-color:#F79A29;stop-opacity:0.82"/>
	</linearGradient>
	<path class="st78" d="M1003.9,334.1c-3.1,0-5.5,2.5-5.5,5.5c0,3.1,2.5,5.5,5.5,5.5c3.1,0,5.5-2.5,5.5-5.5
		C1009.4,336.5,1007,334.1,1003.9,334.1z"/>
	<linearGradient id="SVGID_80_" gradientUnits="userSpaceOnUse" x1="1019.4458" y1="339.6047" x2="1028.7415" y2="339.6047">
		<stop  offset="0" style="stop-color:#ED312D"/>
		<stop  offset="1" style="stop-color:#F79A29;stop-opacity:0.82"/>
	</linearGradient>
	<path class="st79" d="M1024.1,335c-2.6,0-4.6,2.1-4.6,4.6c0,2.6,2.1,4.6,4.6,4.6c2.6,0,4.6-2.1,4.6-4.6
		C1028.7,337,1026.7,335,1024.1,335z"/>
	<linearGradient id="SVGID_81_" gradientUnits="userSpaceOnUse" x1="1040.4797" y1="339.6047" x2="1048.095" y2="339.6047">
		<stop  offset="0" style="stop-color:#ED312D"/>
		<stop  offset="1" style="stop-color:#F79A29;stop-opacity:0.82"/>
	</linearGradient>
	<path class="st80" d="M1044.3,335.8c-2.1,0-3.8,1.7-3.8,3.8s1.7,3.8,3.8,3.8c2.1,0,3.8-1.7,3.8-3.8S1046.4,335.8,1044.3,335.8z"/>
	<linearGradient id="SVGID_82_" gradientUnits="userSpaceOnUse" x1="1061.457" y1="339.6047" x2="1067.5046" y2="339.6047">
		<stop  offset="0" style="stop-color:#ED312D"/>
		<stop  offset="1" style="stop-color:#F79A29;stop-opacity:0.82"/>
	</linearGradient>
	<path class="st81" d="M1064.5,336.6c-1.7,0-3,1.4-3,3c0,1.7,1.4,3,3,3c1.7,0,3-1.4,3-3C1067.5,337.9,1066.2,336.6,1064.5,336.6z"/>
	<linearGradient id="SVGID_83_" gradientUnits="userSpaceOnUse" x1="1082.4346" y1="339.6047" x2="1086.9143" y2="339.6047">
		<stop  offset="0" style="stop-color:#ED312D"/>
		<stop  offset="1" style="stop-color:#F79A29;stop-opacity:0.82"/>
	</linearGradient>
	<path class="st82" d="M1084.7,337.4c-1.2,0-2.2,1-2.2,2.2c0,1.2,1,2.2,2.2,2.2s2.2-1,2.2-2.2
		C1086.9,338.4,1085.9,337.4,1084.7,337.4z"/>
	<linearGradient id="SVGID_84_" gradientUnits="userSpaceOnUse" x1="1103.3005" y1="339.6047" x2="1106.4363" y2="339.6047">
		<stop  offset="0" style="stop-color:#ED312D"/>
		<stop  offset="1" style="stop-color:#F79A29;stop-opacity:0.82"/>
	</linearGradient>
	<path class="st83" d="M1104.9,338c-0.9,0-1.6,0.7-1.6,1.6s0.7,1.6,1.6,1.6s1.6-0.7,1.6-1.6S1105.7,338,1104.9,338z"/>
	<linearGradient id="SVGID_85_" gradientUnits="userSpaceOnUse" x1="1124.1101" y1="339.6047" x2="1126.0139" y2="339.6047">
		<stop  offset="0" style="stop-color:#ED312D"/>
		<stop  offset="1" style="stop-color:#F79A29;stop-opacity:0.82"/>
	</linearGradient>
	<path class="st84" d="M1125.1,338.7c-0.5,0-1,0.4-1,1c0,0.5,0.4,1,1,1s1-0.4,1-1C1126,339.1,1125.6,338.7,1125.1,338.7z"/>
	<linearGradient id="SVGID_86_" gradientUnits="userSpaceOnUse" x1="1144.8074" y1="339.6047" x2="1145.7034" y2="339.6047">
		<stop  offset="0" style="stop-color:#ED312D"/>
		<stop  offset="1" style="stop-color:#F79A29;stop-opacity:0.82"/>
	</linearGradient>
	<circle class="st85" cx="1145.3" cy="339.6" r="0.4"/>
	<linearGradient id="SVGID_87_" gradientUnits="userSpaceOnUse" x1="1165.3933" y1="339.6047" x2="1165.5054" y2="339.6047">
		<stop  offset="0" style="stop-color:#ED312D"/>
		<stop  offset="1" style="stop-color:#F79A29;stop-opacity:0.82"/>
	</linearGradient>
	<path class="st86" d="M1165.4,339.6C1165.4,339.6,1165.4,339.7,1165.4,339.6c0.1,0.1,0.1,0,0.1,0S1165.5,339.5,1165.4,339.6
		C1165.4,339.5,1165.4,339.6,1165.4,339.6z"/>
	<linearGradient id="SVGID_88_" gradientUnits="userSpaceOnUse" x1="977.8826" y1="359.7983" x2="989.53" y2="359.7983">
		<stop  offset="0" style="stop-color:#ED312D"/>
		<stop  offset="1" style="stop-color:#F79A29;stop-opacity:0.82"/>
	</linearGradient>
	<path class="st87" d="M983.7,354c-3.2,0-5.8,2.6-5.8,5.8c0,3.2,2.6,5.8,5.8,5.8c3.2,0,5.8-2.6,5.8-5.8
		C989.5,356.6,986.9,354,983.7,354z"/>
	<linearGradient id="SVGID_89_" gradientUnits="userSpaceOnUse" x1="998.8042" y1="359.7984" x2="1008.9956" y2="359.7984">
		<stop  offset="0" style="stop-color:#ED312D"/>
		<stop  offset="1" style="stop-color:#F79A29;stop-opacity:0.82"/>
	</linearGradient>
	<path class="st88" d="M1003.9,354.7c-2.8,0-5.1,2.3-5.1,5.1c0,2.8,2.3,5.1,5.1,5.1c2.8,0,5.1-2.3,5.1-5.1
		C1009,357,1006.7,354.7,1003.9,354.7z"/>
	<linearGradient id="SVGID_90_" gradientUnits="userSpaceOnUse" x1="1019.7258" y1="359.7985" x2="1028.4612" y2="359.7985">
		<stop  offset="0" style="stop-color:#ED312D"/>
		<stop  offset="1" style="stop-color:#F79A29;stop-opacity:0.82"/>
	</linearGradient>
	<path class="st89" d="M1024.1,355.4c-2.4,0-4.4,2-4.4,4.4s2,4.4,4.4,4.4c2.4,0,4.4-2,4.4-4.4S1026.5,355.4,1024.1,355.4z"/>
	<linearGradient id="SVGID_91_" gradientUnits="userSpaceOnUse" x1="1040.7034" y1="359.7983" x2="1047.8711" y2="359.7983">
		<stop  offset="0" style="stop-color:#ED312D"/>
		<stop  offset="1" style="stop-color:#F79A29;stop-opacity:0.82"/>
	</linearGradient>
	<path class="st90" d="M1044.3,356.2c-2,0-3.6,1.6-3.6,3.6s1.6,3.6,3.6,3.6s3.6-1.6,3.6-3.6S1046.3,356.2,1044.3,356.2z"/>
	<linearGradient id="SVGID_92_" gradientUnits="userSpaceOnUse" x1="1061.625" y1="359.7983" x2="1067.3369" y2="359.7983">
		<stop  offset="0" style="stop-color:#ED312D"/>
		<stop  offset="1" style="stop-color:#F79A29;stop-opacity:0.82"/>
	</linearGradient>
	<path class="st91" d="M1064.5,356.9c-1.6,0-2.9,1.3-2.9,2.9s1.3,2.9,2.9,2.9c1.6,0,2.9-1.3,2.9-2.9S1066.1,356.9,1064.5,356.9z"/>
	<linearGradient id="SVGID_93_" gradientUnits="userSpaceOnUse" x1="1082.5466" y1="359.7983" x2="1086.8025" y2="359.7983">
		<stop  offset="0" style="stop-color:#ED312D"/>
		<stop  offset="1" style="stop-color:#F79A29;stop-opacity:0.82"/>
	</linearGradient>
	<circle class="st92" cx="1084.7" cy="359.8" r="2.1"/>
	<linearGradient id="SVGID_94_" gradientUnits="userSpaceOnUse" x1="1103.4121" y1="359.7984" x2="1106.324" y2="359.7984">
		<stop  offset="0" style="stop-color:#ED312D"/>
		<stop  offset="1" style="stop-color:#F79A29;stop-opacity:0.82"/>
	</linearGradient>
	<path class="st93" d="M1104.9,358.3c-0.8,0-1.5,0.7-1.5,1.5c0,0.8,0.7,1.5,1.5,1.5s1.5-0.7,1.5-1.5
		C1106.3,359,1105.7,358.3,1104.9,358.3z"/>
	<linearGradient id="SVGID_95_" gradientUnits="userSpaceOnUse" x1="1124.2219" y1="359.7983" x2="1125.9019" y2="359.7983">
		<stop  offset="0" style="stop-color:#ED312D"/>
		<stop  offset="1" style="stop-color:#F79A29;stop-opacity:0.82"/>
	</linearGradient>
	<path class="st94" d="M1125.1,359c-0.5,0-0.8,0.4-0.8,0.8c0,0.5,0.4,0.8,0.8,0.8c0.5,0,0.8-0.4,0.8-0.8
		C1125.9,359.3,1125.5,359,1125.1,359z"/>
	<linearGradient id="SVGID_96_" gradientUnits="userSpaceOnUse" x1="1144.9197" y1="359.7983" x2="1145.5916" y2="359.7983">
		<stop  offset="0" style="stop-color:#ED312D"/>
		<stop  offset="1" style="stop-color:#F79A29;stop-opacity:0.82"/>
	</linearGradient>
	<path class="st95" d="M1145.3,359.5c-0.2,0-0.3,0.2-0.3,0.3c0,0.2,0.2,0.3,0.3,0.3c0.2,0,0.3-0.2,0.3-0.3
		C1145.6,359.6,1145.4,359.5,1145.3,359.5z"/>
	<linearGradient id="SVGID_97_" gradientUnits="userSpaceOnUse" x1="1165.3933" y1="359.7983" x2="1165.5054" y2="359.7983">
		<stop  offset="0" style="stop-color:#ED312D"/>
		<stop  offset="1" style="stop-color:#F79A29;stop-opacity:0.82"/>
	</linearGradient>
	<path class="st96" d="M1165.4,359.8C1165.4,359.8,1165.4,359.9,1165.4,359.8c0.1,0.1,0.1,0,0.1,0S1165.5,359.7,1165.4,359.8
		C1165.4,359.7,1165.4,359.8,1165.4,359.8z"/>
	<linearGradient id="SVGID_98_" gradientUnits="userSpaceOnUse" x1="917.6375" y1="379.9921" x2="928.6128" y2="379.9921">
		<stop  offset="0" style="stop-color:#ED312D"/>
		<stop  offset="1" style="stop-color:#F79A29;stop-opacity:0.82"/>
	</linearGradient>
	<path class="st97" d="M923.1,374.5c-3,0-5.5,2.5-5.5,5.5c0,3,2.5,5.5,5.5,5.5c3,0,5.5-2.5,5.5-5.5
		C928.6,377,926.2,374.5,923.1,374.5z"/>
	<linearGradient id="SVGID_99_" gradientUnits="userSpaceOnUse" x1="999.3643" y1="379.992" x2="1008.4355" y2="379.992">
		<stop  offset="0" style="stop-color:#ED312D"/>
		<stop  offset="1" style="stop-color:#F79A29;stop-opacity:0.82"/>
	</linearGradient>
	<path class="st98" d="M1003.9,375.5c-2.5,0-4.5,2-4.5,4.5c0,2.5,2,4.5,4.5,4.5c2.5,0,4.5-2,4.5-4.5
		C1008.4,377.5,1006.4,375.5,1003.9,375.5z"/>
	<linearGradient id="SVGID_100_" gradientUnits="userSpaceOnUse" x1="1020.1738" y1="379.9922" x2="1028.0134" y2="379.9922">
		<stop  offset="0" style="stop-color:#ED312D"/>
		<stop  offset="1" style="stop-color:#F79A29;stop-opacity:0.82"/>
	</linearGradient>
	<path class="st99" d="M1024.1,376.1c-2.2,0-3.9,1.8-3.9,3.9c0,2.2,1.8,3.9,3.9,3.9c2.2,0,3.9-1.8,3.9-3.9
		C1028,377.8,1026.3,376.1,1024.1,376.1z"/>
	<linearGradient id="SVGID_101_" gradientUnits="userSpaceOnUse" x1="1041.0955" y1="379.992" x2="1047.479" y2="379.992">
		<stop  offset="0" style="stop-color:#ED312D"/>
		<stop  offset="1" style="stop-color:#F79A29;stop-opacity:0.82"/>
	</linearGradient>
	<path class="st100" d="M1044.3,376.8c-1.8,0-3.2,1.4-3.2,3.2c0,1.8,1.4,3.2,3.2,3.2c1.8,0,3.2-1.4,3.2-3.2
		C1047.5,378.2,1046.1,376.8,1044.3,376.8z"/>
	<linearGradient id="SVGID_102_" gradientUnits="userSpaceOnUse" x1="1061.9609" y1="379.992" x2="1067.0007" y2="379.992">
		<stop  offset="0" style="stop-color:#ED312D"/>
		<stop  offset="1" style="stop-color:#F79A29;stop-opacity:0.82"/>
	</linearGradient>
	<path class="st101" d="M1064.5,377.5c-1.4,0-2.5,1.1-2.5,2.5c0,1.4,1.1,2.5,2.5,2.5s2.5-1.1,2.5-2.5
		C1067,378.6,1065.9,377.5,1064.5,377.5z"/>
	<linearGradient id="SVGID_103_" gradientUnits="userSpaceOnUse" x1="1082.7705" y1="379.9921" x2="1086.5784" y2="379.9921">
		<stop  offset="0" style="stop-color:#ED312D"/>
		<stop  offset="1" style="stop-color:#F79A29;stop-opacity:0.82"/>
	</linearGradient>
	<path class="st102" d="M1084.7,378.1c-1.1,0-1.9,0.9-1.9,1.9c0,1.1,0.9,1.9,1.9,1.9c1.1,0,1.9-0.9,1.9-1.9
		C1086.6,378.9,1085.7,378.1,1084.7,378.1z"/>
	<linearGradient id="SVGID_104_" gradientUnits="userSpaceOnUse" x1="1103.5803" y1="379.992" x2="1106.156" y2="379.992">
		<stop  offset="0" style="stop-color:#ED312D"/>
		<stop  offset="1" style="stop-color:#F79A29;stop-opacity:0.82"/>
	</linearGradient>
	<path class="st103" d="M1104.9,378.7c-0.7,0-1.3,0.6-1.3,1.3c0,0.7,0.6,1.3,1.3,1.3c0.7,0,1.3-0.6,1.3-1.3
		C1106.2,379.3,1105.6,378.7,1104.9,378.7z"/>
	<linearGradient id="SVGID_105_" gradientUnits="userSpaceOnUse" x1="1124.3337" y1="379.992" x2="1125.7898" y2="379.992">
		<stop  offset="0" style="stop-color:#ED312D"/>
		<stop  offset="1" style="stop-color:#F79A29;stop-opacity:0.82"/>
	</linearGradient>
	<path class="st104" d="M1125.1,379.3c-0.4,0-0.7,0.3-0.7,0.7c0,0.4,0.3,0.7,0.7,0.7c0.4,0,0.7-0.3,0.7-0.7
		C1125.8,379.6,1125.5,379.3,1125.1,379.3z"/>
	<linearGradient id="SVGID_106_" gradientUnits="userSpaceOnUse" x1="1144.9753" y1="379.992" x2="1145.5354" y2="379.992">
		<stop  offset="0" style="stop-color:#ED312D"/>
		<stop  offset="1" style="stop-color:#F79A29;stop-opacity:0.82"/>
	</linearGradient>
	<path class="st105" d="M1145.3,379.7c-0.2,0-0.3,0.1-0.3,0.3c0,0.2,0.1,0.3,0.3,0.3c0.2,0,0.3-0.1,0.3-0.3
		C1145.5,379.8,1145.4,379.7,1145.3,379.7z"/>
	<linearGradient id="SVGID_107_" gradientUnits="userSpaceOnUse" x1="918.4775" y1="400.1857" x2="927.7729" y2="400.1857">
		<stop  offset="0" style="stop-color:#ED312D"/>
		<stop  offset="1" style="stop-color:#F79A29;stop-opacity:0.82"/>
	</linearGradient>
	<circle class="st106" cx="923.1" cy="400.2" r="4.6"/>
	<linearGradient id="SVGID_108_" gradientUnits="userSpaceOnUse" x1="938.5591" y1="400.1857" x2="948.0784" y2="400.1857">
		<stop  offset="0" style="stop-color:#ED312D"/>
		<stop  offset="1" style="stop-color:#F79A29;stop-opacity:0.82"/>
	</linearGradient>
	<path class="st107" d="M943.3,395.4c-2.6,0-4.8,2.1-4.8,4.8c0,2.6,2.1,4.8,4.8,4.8s4.8-2.1,4.8-4.8
		C948.1,397.6,945.9,395.4,943.3,395.4z"/>
	<linearGradient id="SVGID_109_" gradientUnits="userSpaceOnUse" x1="958.865" y1="400.1857" x2="968.1604" y2="400.1857">
		<stop  offset="0" style="stop-color:#ED312D"/>
		<stop  offset="1" style="stop-color:#F79A29;stop-opacity:0.82"/>
	</linearGradient>
	<path class="st108" d="M963.5,395.5c-2.6,0-4.6,2.1-4.6,4.6s2.1,4.6,4.6,4.6c2.6,0,4.6-2.1,4.6-4.6S966.1,395.5,963.5,395.5z"/>
	<linearGradient id="SVGID_110_" gradientUnits="userSpaceOnUse" x1="979.3386" y1="400.1859" x2="988.074" y2="400.1859">
		<stop  offset="0" style="stop-color:#ED312D"/>
		<stop  offset="1" style="stop-color:#F79A29;stop-opacity:0.82"/>
	</linearGradient>
	<path class="st109" d="M983.7,395.8c-2.4,0-4.4,2-4.4,4.4c0,2.4,2,4.4,4.4,4.4c2.4,0,4.4-2,4.4-4.4
		C988.1,397.8,986.1,395.8,983.7,395.8z"/>
	<linearGradient id="SVGID_111_" gradientUnits="userSpaceOnUse" x1="999.9802" y1="400.1859" x2="1007.8196" y2="400.1859">
		<stop  offset="0" style="stop-color:#ED312D"/>
		<stop  offset="1" style="stop-color:#F79A29;stop-opacity:0.82"/>
	</linearGradient>
	<path class="st110" d="M1003.9,396.3c-2.2,0-3.9,1.8-3.9,3.9c0,2.2,1.8,3.9,3.9,3.9c2.2,0,3.9-1.8,3.9-3.9
		C1007.8,398,1006.1,396.3,1003.9,396.3z"/>
	<linearGradient id="SVGID_112_" gradientUnits="userSpaceOnUse" x1="1020.7339" y1="400.1857" x2="1027.4534" y2="400.1857">
		<stop  offset="0" style="stop-color:#ED312D"/>
		<stop  offset="1" style="stop-color:#F79A29;stop-opacity:0.82"/>
	</linearGradient>
	<path class="st111" d="M1024.1,396.8c-1.9,0-3.4,1.5-3.4,3.4c0,1.9,1.5,3.4,3.4,3.4c1.9,0,3.4-1.5,3.4-3.4
		C1027.5,398.3,1025.9,396.8,1024.1,396.8z"/>
	<linearGradient id="SVGID_113_" gradientUnits="userSpaceOnUse" x1="1041.5435" y1="400.1859" x2="1047.031" y2="400.1859">
		<stop  offset="0" style="stop-color:#ED312D"/>
		<stop  offset="1" style="stop-color:#F79A29;stop-opacity:0.82"/>
	</linearGradient>
	<path class="st112" d="M1044.3,397.4c-1.5,0-2.7,1.2-2.7,2.7c0,1.5,1.2,2.7,2.7,2.7c1.5,0,2.7-1.2,2.7-2.7
		C1047,398.7,1045.8,397.4,1044.3,397.4z"/>
	<linearGradient id="SVGID_114_" gradientUnits="userSpaceOnUse" x1="1062.2971" y1="400.1857" x2="1066.6648" y2="400.1857">
		<stop  offset="0" style="stop-color:#ED312D"/>
		<stop  offset="1" style="stop-color:#F79A29;stop-opacity:0.82"/>
	</linearGradient>
	<path class="st113" d="M1064.5,398c-1.2,0-2.2,1-2.2,2.2s1,2.2,2.2,2.2c1.2,0,2.2-1,2.2-2.2S1065.7,398,1064.5,398z"/>
	<linearGradient id="SVGID_115_" gradientUnits="userSpaceOnUse" x1="1083.1067" y1="400.1857" x2="1086.2424" y2="400.1857">
		<stop  offset="0" style="stop-color:#ED312D"/>
		<stop  offset="1" style="stop-color:#F79A29;stop-opacity:0.82"/>
	</linearGradient>
	<circle class="st114" cx="1084.7" cy="400.2" r="1.6"/>
	<linearGradient id="SVGID_116_" gradientUnits="userSpaceOnUse" x1="1103.8604" y1="400.1857" x2="1105.8762" y2="400.1857">
		<stop  offset="0" style="stop-color:#ED312D"/>
		<stop  offset="1" style="stop-color:#F79A29;stop-opacity:0.82"/>
	</linearGradient>
	<path class="st115" d="M1104.9,399.2c-0.6,0-1,0.5-1,1c0,0.6,0.5,1,1,1s1-0.5,1-1C1105.9,399.6,1105.4,399.2,1104.9,399.2z"/>
	<linearGradient id="SVGID_117_" gradientUnits="userSpaceOnUse" x1="1124.5022" y1="400.1857" x2="1125.6218" y2="400.1857">
		<stop  offset="0" style="stop-color:#ED312D"/>
		<stop  offset="1" style="stop-color:#F79A29;stop-opacity:0.82"/>
	</linearGradient>
	<path class="st116" d="M1125.1,399.6c-0.3,0-0.6,0.3-0.6,0.6c0,0.3,0.3,0.6,0.6,0.6s0.6-0.3,0.6-0.6
		C1125.6,399.9,1125.4,399.6,1125.1,399.6z"/>
	<linearGradient id="SVGID_118_" gradientUnits="userSpaceOnUse" x1="1145.0874" y1="400.1857" x2="1145.4233" y2="400.1857">
		<stop  offset="0" style="stop-color:#ED312D"/>
		<stop  offset="1" style="stop-color:#F79A29;stop-opacity:0.82"/>
	</linearGradient>
	<path class="st117" d="M1145.3,400c-0.1,0-0.2,0.1-0.2,0.2s0.1,0.2,0.2,0.2c0.1,0,0.2-0.1,0.2-0.2S1145.3,400,1145.3,400z"/>
	<linearGradient id="SVGID_119_" gradientUnits="userSpaceOnUse" x1="939.4551" y1="420.3794" x2="947.1824" y2="420.3794">
		<stop  offset="0" style="stop-color:#ED312D"/>
		<stop  offset="1" style="stop-color:#F79A29;stop-opacity:0.82"/>
	</linearGradient>
	<path class="st118" d="M943.3,416.5c-2.1,0-3.9,1.7-3.9,3.9s1.7,3.9,3.9,3.9c2.1,0,3.9-1.7,3.9-3.9S945.5,416.5,943.3,416.5z"/>
	<linearGradient id="SVGID_120_" gradientUnits="userSpaceOnUse" x1="959.7048" y1="420.3794" x2="967.3203" y2="420.3794">
		<stop  offset="0" style="stop-color:#ED312D"/>
		<stop  offset="1" style="stop-color:#F79A29;stop-opacity:0.82"/>
	</linearGradient>
	<path class="st119" d="M963.5,416.6c-2.1,0-3.8,1.7-3.8,3.8s1.7,3.8,3.8,3.8c2.1,0,3.8-1.7,3.8-3.8S965.6,416.6,963.5,416.6z"/>
	<linearGradient id="SVGID_121_" gradientUnits="userSpaceOnUse" x1="980.1223" y1="420.3794" x2="987.2903" y2="420.3794">
		<stop  offset="0" style="stop-color:#ED312D"/>
		<stop  offset="1" style="stop-color:#F79A29;stop-opacity:0.82"/>
	</linearGradient>
	<path class="st120" d="M983.7,416.8c-2,0-3.6,1.6-3.6,3.6c0,2,1.6,3.6,3.6,3.6s3.6-1.6,3.6-3.6
		C987.3,418.4,985.7,416.8,983.7,416.8z"/>
	<linearGradient id="SVGID_122_" gradientUnits="userSpaceOnUse" x1="1000.7083" y1="420.3794" x2="1007.0918" y2="420.3794">
		<stop  offset="0" style="stop-color:#ED312D"/>
		<stop  offset="1" style="stop-color:#F79A29;stop-opacity:0.82"/>
	</linearGradient>
	<path class="st121" d="M1003.9,417.2c-1.8,0-3.2,1.4-3.2,3.2s1.4,3.2,3.2,3.2c1.8,0,3.2-1.4,3.2-3.2S1005.7,417.2,1003.9,417.2z"/>
	<linearGradient id="SVGID_123_" gradientUnits="userSpaceOnUse" x1="1021.3499" y1="420.3795" x2="1026.8374" y2="420.3795">
		<stop  offset="0" style="stop-color:#ED312D"/>
		<stop  offset="1" style="stop-color:#F79A29;stop-opacity:0.82"/>
	</linearGradient>
	<path class="st122" d="M1024.1,417.6c-1.5,0-2.7,1.2-2.7,2.7c0,1.5,1.2,2.7,2.7,2.7c1.5,0,2.7-1.2,2.7-2.7
		C1026.8,418.9,1025.6,417.6,1024.1,417.6z"/>
	<linearGradient id="SVGID_124_" gradientUnits="userSpaceOnUse" x1="1041.9915" y1="420.3795" x2="1046.5833" y2="420.3795">
		<stop  offset="0" style="stop-color:#ED312D"/>
		<stop  offset="1" style="stop-color:#F79A29;stop-opacity:0.82"/>
	</linearGradient>
	<path class="st123" d="M1044.3,418.1c-1.3,0-2.3,1-2.3,2.3s1,2.3,2.3,2.3c1.3,0,2.3-1,2.3-2.3S1045.6,418.1,1044.3,418.1z"/>
	<linearGradient id="SVGID_125_" gradientUnits="userSpaceOnUse" x1="1062.7451" y1="420.3793" x2="1066.2168" y2="420.3793">
		<stop  offset="0" style="stop-color:#ED312D"/>
		<stop  offset="1" style="stop-color:#F79A29;stop-opacity:0.82"/>
	</linearGradient>
	<path class="st124" d="M1064.5,418.6c-1,0-1.7,0.8-1.7,1.7c0,1,0.8,1.7,1.7,1.7c1,0,1.7-0.8,1.7-1.7
		C1066.2,419.4,1065.4,418.6,1064.5,418.6z"/>
	<linearGradient id="SVGID_126_" gradientUnits="userSpaceOnUse" x1="1083.4426" y1="420.3793" x2="1085.9065" y2="420.3793">
		<stop  offset="0" style="stop-color:#ED312D"/>
		<stop  offset="1" style="stop-color:#F79A29;stop-opacity:0.82"/>
	</linearGradient>
	<path class="st125" d="M1084.7,419.1c-0.7,0-1.2,0.6-1.2,1.2c0,0.7,0.6,1.2,1.2,1.2c0.7,0,1.2-0.6,1.2-1.2
		C1085.9,419.7,1085.4,419.1,1084.7,419.1z"/>
	<linearGradient id="SVGID_127_" gradientUnits="userSpaceOnUse" x1="1104.1401" y1="420.3794" x2="1105.5959" y2="420.3794">
		<stop  offset="0" style="stop-color:#ED312D"/>
		<stop  offset="1" style="stop-color:#F79A29;stop-opacity:0.82"/>
	</linearGradient>
	<path class="st126" d="M1104.9,419.7c-0.4,0-0.7,0.3-0.7,0.7c0,0.4,0.3,0.7,0.7,0.7c0.4,0,0.7-0.3,0.7-0.7
		C1105.6,420,1105.3,419.7,1104.9,419.7z"/>
	<linearGradient id="SVGID_128_" gradientUnits="userSpaceOnUse" x1="1124.7258" y1="420.3794" x2="1125.3979" y2="420.3794">
		<stop  offset="0" style="stop-color:#ED312D"/>
		<stop  offset="1" style="stop-color:#F79A29;stop-opacity:0.82"/>
	</linearGradient>
	<path class="st127" d="M1125.1,420c-0.2,0-0.3,0.2-0.3,0.3c0,0.2,0.2,0.3,0.3,0.3c0.2,0,0.3-0.2,0.3-0.3
		C1125.4,420.2,1125.2,420,1125.1,420z"/>
	<linearGradient id="SVGID_129_" gradientUnits="userSpaceOnUse" x1="1145.1995" y1="420.3794" x2="1145.3118" y2="420.3794">
		<stop  offset="0" style="stop-color:#ED312D"/>
		<stop  offset="1" style="stop-color:#F79A29;stop-opacity:0.82"/>
	</linearGradient>
	<path class="st128" d="M1145.2,420.4C1145.2,420.4,1145.2,420.4,1145.2,420.4c0.1,0.1,0.1,0,0.1,0S1145.3,420.3,1145.2,420.4
		C1145.2,420.3,1145.2,420.3,1145.2,420.4z"/>
	<linearGradient id="SVGID_130_" gradientUnits="userSpaceOnUse" x1="960.4888" y1="440.573" x2="966.5364" y2="440.573">
		<stop  offset="0" style="stop-color:#ED312D"/>
		<stop  offset="1" style="stop-color:#F79A29;stop-opacity:0.82"/>
	</linearGradient>
	<path class="st129" d="M963.5,437.5c-1.7,0-3,1.4-3,3c0,1.7,1.4,3,3,3s3-1.4,3-3C966.5,438.9,965.2,437.5,963.5,437.5z"/>
	<linearGradient id="SVGID_131_" gradientUnits="userSpaceOnUse" x1="980.8503" y1="440.573" x2="986.5623" y2="440.573">
		<stop  offset="0" style="stop-color:#ED312D"/>
		<stop  offset="1" style="stop-color:#F79A29;stop-opacity:0.82"/>
	</linearGradient>
	<path class="st130" d="M983.7,437.7c-1.6,0-2.9,1.3-2.9,2.9s1.3,2.9,2.9,2.9c1.6,0,2.9-1.3,2.9-2.9S985.3,437.7,983.7,437.7z"/>
	<linearGradient id="SVGID_132_" gradientUnits="userSpaceOnUse" x1="1001.3799" y1="440.573" x2="1006.4197" y2="440.573">
		<stop  offset="0" style="stop-color:#ED312D"/>
		<stop  offset="1" style="stop-color:#F79A29;stop-opacity:0.82"/>
	</linearGradient>
	<path class="st131" d="M1003.9,438.1c-1.4,0-2.5,1.1-2.5,2.5c0,1.4,1.1,2.5,2.5,2.5c1.4,0,2.5-1.1,2.5-2.5
		C1006.4,439.2,1005.3,438.1,1003.9,438.1z"/>
	<linearGradient id="SVGID_133_" gradientUnits="userSpaceOnUse" x1="1021.9099" y1="440.5731" x2="1026.2773" y2="440.5731">
		<stop  offset="0" style="stop-color:#ED312D"/>
		<stop  offset="1" style="stop-color:#F79A29;stop-opacity:0.82"/>
	</linearGradient>
	<path class="st132" d="M1024.1,438.4c-1.2,0-2.2,1-2.2,2.2s1,2.2,2.2,2.2s2.2-1,2.2-2.2S1025.3,438.4,1024.1,438.4z"/>
	<linearGradient id="SVGID_134_" gradientUnits="userSpaceOnUse" x1="1042.5515" y1="440.5731" x2="1046.0232" y2="440.5731">
		<stop  offset="0" style="stop-color:#ED312D"/>
		<stop  offset="1" style="stop-color:#F79A29;stop-opacity:0.82"/>
	</linearGradient>
	<path class="st133" d="M1044.3,438.8c-1,0-1.7,0.8-1.7,1.7c0,1,0.8,1.7,1.7,1.7c1,0,1.7-0.8,1.7-1.7
		C1046,439.6,1045.2,438.8,1044.3,438.8z"/>
	<linearGradient id="SVGID_135_" gradientUnits="userSpaceOnUse" x1="1063.1931" y1="440.5731" x2="1065.7688" y2="440.5731">
		<stop  offset="0" style="stop-color:#ED312D"/>
		<stop  offset="1" style="stop-color:#F79A29;stop-opacity:0.82"/>
	</linearGradient>
	<path class="st134" d="M1064.5,439.3c-0.7,0-1.3,0.6-1.3,1.3s0.6,1.3,1.3,1.3c0.7,0,1.3-0.6,1.3-1.3S1065.2,439.3,1064.5,439.3z"/>
	<linearGradient id="SVGID_136_" gradientUnits="userSpaceOnUse" x1="1083.8347" y1="440.573" x2="1085.5144" y2="440.573">
		<stop  offset="0" style="stop-color:#ED312D"/>
		<stop  offset="1" style="stop-color:#F79A29;stop-opacity:0.82"/>
	</linearGradient>
	<circle class="st135" cx="1084.7" cy="440.6" r="0.8"/>
	<linearGradient id="SVGID_137_" gradientUnits="userSpaceOnUse" x1="1104.4202" y1="440.573" x2="1105.3162" y2="440.573">
		<stop  offset="0" style="stop-color:#ED312D"/>
		<stop  offset="1" style="stop-color:#F79A29;stop-opacity:0.82"/>
	</linearGradient>
	<circle class="st136" cx="1104.9" cy="440.6" r="0.4"/>
	<linearGradient id="SVGID_138_" gradientUnits="userSpaceOnUse" x1="1124.95" y1="440.573" x2="1125.1738" y2="440.573">
		<stop  offset="0" style="stop-color:#ED312D"/>
		<stop  offset="1" style="stop-color:#F79A29;stop-opacity:0.82"/>
	</linearGradient>
	<path class="st137" d="M1125.1,440.5c-0.1,0-0.1,0.1-0.1,0.1c0,0.1,0.1,0.1,0.1,0.1c0.1,0,0.1-0.1,0.1-0.1
		C1125.2,440.5,1125.1,440.5,1125.1,440.5z"/>
	<linearGradient id="SVGID_139_" gradientUnits="userSpaceOnUse" x1="961.2727" y1="460.7667" x2="965.7522" y2="460.7667">
		<stop  offset="0" style="stop-color:#ED312D"/>
		<stop  offset="1" style="stop-color:#F79A29;stop-opacity:0.82"/>
	</linearGradient>
	<path class="st138" d="M963.5,458.5c-1.2,0-2.2,1-2.2,2.2c0,1.2,1,2.2,2.2,2.2c1.2,0,2.2-1,2.2-2.2
		C965.8,459.5,964.7,458.5,963.5,458.5z"/>
	<linearGradient id="SVGID_140_" gradientUnits="userSpaceOnUse" x1="981.5784" y1="460.7667" x2="985.8342" y2="460.7667">
		<stop  offset="0" style="stop-color:#ED312D"/>
		<stop  offset="1" style="stop-color:#F79A29;stop-opacity:0.82"/>
	</linearGradient>
	<path class="st139" d="M985.8,460.8c0-1.2-1-2.1-2.1-2.1c-1.2,0-2.1,1-2.1,2.1c0,1.2,1,2.1,2.1,2.1
		C984.9,462.9,985.8,461.9,985.8,460.8z"/>
	<linearGradient id="SVGID_141_" gradientUnits="userSpaceOnUse" x1="1001.9958" y1="460.7667" x2="1005.8037" y2="460.7667">
		<stop  offset="0" style="stop-color:#ED312D"/>
		<stop  offset="1" style="stop-color:#F79A29;stop-opacity:0.82"/>
	</linearGradient>
	<path class="st140" d="M1005.8,460.8c0-1.1-0.9-1.9-1.9-1.9c-1.1,0-1.9,0.9-1.9,1.9c0,1.1,0.9,1.9,1.9,1.9
		C1005,462.7,1005.8,461.8,1005.8,460.8z"/>
	<linearGradient id="SVGID_142_" gradientUnits="userSpaceOnUse" x1="1022.5256" y1="460.7667" x2="1025.6614" y2="460.7667">
		<stop  offset="0" style="stop-color:#ED312D"/>
		<stop  offset="1" style="stop-color:#F79A29;stop-opacity:0.82"/>
	</linearGradient>
	<path class="st141" d="M1025.7,460.8c0-0.9-0.7-1.6-1.6-1.6s-1.6,0.7-1.6,1.6c0,0.9,0.7,1.6,1.6,1.6S1025.7,461.6,1025.7,460.8z"/>
	<linearGradient id="SVGID_143_" gradientUnits="userSpaceOnUse" x1="1043.0554" y1="460.7667" x2="1045.5193" y2="460.7667">
		<stop  offset="0" style="stop-color:#ED312D"/>
		<stop  offset="1" style="stop-color:#F79A29;stop-opacity:0.82"/>
	</linearGradient>
	<path class="st142" d="M1045.5,460.8c0-0.7-0.6-1.2-1.2-1.2c-0.7,0-1.2,0.6-1.2,1.2c0,0.7,0.6,1.2,1.2,1.2
		C1045,462,1045.5,461.4,1045.5,460.8z"/>
	<linearGradient id="SVGID_144_" gradientUnits="userSpaceOnUse" x1="1063.6411" y1="460.7667" x2="1065.3208" y2="460.7667">
		<stop  offset="0" style="stop-color:#ED312D"/>
		<stop  offset="1" style="stop-color:#F79A29;stop-opacity:0.82"/>
	</linearGradient>
	<path class="st143" d="M1064.5,459.9c-0.5,0-0.8,0.4-0.8,0.8c0,0.5,0.4,0.8,0.8,0.8c0.5,0,0.8-0.4,0.8-0.8
		C1065.3,460.3,1064.9,459.9,1064.5,459.9z"/>
	<linearGradient id="SVGID_145_" gradientUnits="userSpaceOnUse" x1="1084.1707" y1="460.7667" x2="1085.1785" y2="460.7667">
		<stop  offset="0" style="stop-color:#ED312D"/>
		<stop  offset="1" style="stop-color:#F79A29;stop-opacity:0.82"/>
	</linearGradient>
	<path class="st144" d="M1084.7,460.3c-0.3,0-0.5,0.2-0.5,0.5c0,0.3,0.2,0.5,0.5,0.5s0.5-0.2,0.5-0.5
		C1085.2,460.5,1085,460.3,1084.7,460.3z"/>
	<linearGradient id="SVGID_146_" gradientUnits="userSpaceOnUse" x1="1104.7002" y1="460.7667" x2="1105.0361" y2="460.7667">
		<stop  offset="0" style="stop-color:#ED312D"/>
		<stop  offset="1" style="stop-color:#F79A29;stop-opacity:0.82"/>
	</linearGradient>
	<path class="st145" d="M1104.9,460.6c-0.1,0-0.2,0.1-0.2,0.2c0,0.1,0.1,0.2,0.2,0.2c0.1,0,0.2-0.1,0.2-0.2
		C1105,460.7,1105,460.6,1104.9,460.6z"/>
	<linearGradient id="SVGID_147_" gradientUnits="userSpaceOnUse" x1="982.2502" y1="480.9604" x2="985.1621" y2="480.9604">
		<stop  offset="0" style="stop-color:#ED312D"/>
		<stop  offset="1" style="stop-color:#F79A29;stop-opacity:0.82"/>
	</linearGradient>
	<path class="st146" d="M985.2,481c0-0.8-0.7-1.5-1.5-1.5s-1.5,0.7-1.5,1.5c0,0.8,0.7,1.5,1.5,1.5S985.2,481.8,985.2,481z"/>
	<linearGradient id="SVGID_148_" gradientUnits="userSpaceOnUse" x1="1002.6121" y1="480.9604" x2="1005.1877" y2="480.9604">
		<stop  offset="0" style="stop-color:#ED312D"/>
		<stop  offset="1" style="stop-color:#F79A29;stop-opacity:0.82"/>
	</linearGradient>
	<path class="st147" d="M1005.2,481c0-0.7-0.6-1.3-1.3-1.3c-0.7,0-1.3,0.6-1.3,1.3c0,0.7,0.6,1.3,1.3,1.3
		C1004.6,482.2,1005.2,481.7,1005.2,481z"/>
	<linearGradient id="SVGID_149_" gradientUnits="userSpaceOnUse" x1="1023.0857" y1="480.9604" x2="1025.1013" y2="480.9604">
		<stop  offset="0" style="stop-color:#ED312D"/>
		<stop  offset="1" style="stop-color:#F79A29;stop-opacity:0.82"/>
	</linearGradient>
	<path class="st148" d="M1025.1,481c0-0.6-0.5-1-1-1s-1,0.5-1,1c0,0.6,0.5,1,1,1S1025.1,481.5,1025.1,481z"/>
	<linearGradient id="SVGID_150_" gradientUnits="userSpaceOnUse" x1="1043.5591" y1="480.9604" x2="1045.0151" y2="480.9604">
		<stop  offset="0" style="stop-color:#ED312D"/>
		<stop  offset="1" style="stop-color:#F79A29;stop-opacity:0.82"/>
	</linearGradient>
	<path class="st149" d="M1045,481c0-0.4-0.3-0.7-0.7-0.7c-0.4,0-0.7,0.3-0.7,0.7c0,0.4,0.3,0.7,0.7,0.7
		C1044.7,481.7,1045,481.4,1045,481z"/>
	<linearGradient id="SVGID_151_" gradientUnits="userSpaceOnUse" x1="1064.033" y1="480.9604" x2="1064.9287" y2="480.9604">
		<stop  offset="0" style="stop-color:#ED312D"/>
		<stop  offset="1" style="stop-color:#F79A29;stop-opacity:0.82"/>
	</linearGradient>
	<path class="st150" d="M1064.5,480.5c-0.2,0-0.4,0.2-0.4,0.4c0,0.2,0.2,0.4,0.4,0.4c0.2,0,0.4-0.2,0.4-0.4
		C1064.9,480.7,1064.7,480.5,1064.5,480.5z"/>
	<linearGradient id="SVGID_152_" gradientUnits="userSpaceOnUse" x1="1084.5066" y1="480.9604" x2="1084.8425" y2="480.9604">
		<stop  offset="0" style="stop-color:#ED312D"/>
		<stop  offset="1" style="stop-color:#F79A29;stop-opacity:0.82"/>
	</linearGradient>
	<path class="st151" d="M1084.7,480.8c-0.1,0-0.2,0.1-0.2,0.2c0,0.1,0.1,0.2,0.2,0.2s0.2-0.1,0.2-0.2
		C1084.8,480.9,1084.8,480.8,1084.7,480.8z"/>
	<linearGradient id="SVGID_153_" gradientUnits="userSpaceOnUse" x1="982.8665" y1="501.154" x2="984.5461" y2="501.154">
		<stop  offset="0" style="stop-color:#ED312D"/>
		<stop  offset="1" style="stop-color:#F79A29;stop-opacity:0.82"/>
	</linearGradient>
	<path class="st152" d="M984.5,501.2c0-0.5-0.4-0.8-0.8-0.8c-0.5,0-0.8,0.4-0.8,0.8c0,0.5,0.4,0.8,0.8,0.8
		C984.2,502,984.5,501.6,984.5,501.2z"/>
	<linearGradient id="SVGID_154_" gradientUnits="userSpaceOnUse" x1="1003.1719" y1="501.154" x2="1004.6277" y2="501.154">
		<stop  offset="0" style="stop-color:#ED312D"/>
		<stop  offset="1" style="stop-color:#F79A29;stop-opacity:0.82"/>
	</linearGradient>
	<path class="st153" d="M1004.6,501.2c0-0.4-0.3-0.7-0.7-0.7c-0.4,0-0.7,0.3-0.7,0.7c0,0.4,0.3,0.7,0.7,0.7
		C1004.3,501.9,1004.6,501.6,1004.6,501.2z"/>
	<linearGradient id="SVGID_155_" gradientUnits="userSpaceOnUse" x1="1023.5337" y1="501.154" x2="1024.6536" y2="501.154">
		<stop  offset="0" style="stop-color:#ED312D"/>
		<stop  offset="1" style="stop-color:#F79A29;stop-opacity:0.82"/>
	</linearGradient>
	<path class="st154" d="M1024.7,501.2c0-0.3-0.3-0.6-0.6-0.6s-0.6,0.3-0.6,0.6c0,0.3,0.3,0.6,0.6,0.6S1024.7,501.5,1024.7,501.2z"/>
	<linearGradient id="SVGID_156_" gradientUnits="userSpaceOnUse" x1="1043.9512" y1="501.154" x2="1044.6233" y2="501.154">
		<stop  offset="0" style="stop-color:#ED312D"/>
		<stop  offset="1" style="stop-color:#F79A29;stop-opacity:0.82"/>
	</linearGradient>
	<path class="st155" d="M1044.6,501.2c0-0.2-0.2-0.3-0.3-0.3c-0.2,0-0.3,0.2-0.3,0.3c0,0.2,0.2,0.3,0.3,0.3
		C1044.5,501.5,1044.6,501.3,1044.6,501.2z"/>
	<linearGradient id="SVGID_157_" gradientUnits="userSpaceOnUse" x1="1064.3689" y1="501.154" x2="1064.5928" y2="501.154">
		<stop  offset="0" style="stop-color:#ED312D"/>
		<stop  offset="1" style="stop-color:#F79A29;stop-opacity:0.82"/>
	</linearGradient>
	<path class="st156" d="M1064.5,501c-0.1,0-0.1,0.1-0.1,0.1c0,0.1,0.1,0.1,0.1,0.1c0.1,0,0.1-0.1,0.1-0.1
		C1064.6,501.1,1064.5,501,1064.5,501z"/>
	<linearGradient id="SVGID_158_" gradientUnits="userSpaceOnUse" x1="983.3704" y1="521.3477" x2="984.0422" y2="521.3477">
		<stop  offset="0" style="stop-color:#ED312D"/>
		<stop  offset="1" style="stop-color:#F79A29;stop-opacity:0.82"/>
	</linearGradient>
	<path class="st157" d="M983.4,521.3c0,0.2,0.2,0.3,0.3,0.3c0.2,0,0.3-0.2,0.3-0.3c0-0.2-0.2-0.3-0.3-0.3
		C983.5,521,983.4,521.2,983.4,521.3z"/>
	<linearGradient id="SVGID_159_" gradientUnits="userSpaceOnUse" x1="1003.6199" y1="521.3477" x2="1004.1799" y2="521.3477">
		<stop  offset="0" style="stop-color:#ED312D"/>
		<stop  offset="1" style="stop-color:#F79A29;stop-opacity:0.82"/>
	</linearGradient>
	<path class="st158" d="M1003.6,521.3c0,0.2,0.1,0.3,0.3,0.3c0.2,0,0.3-0.1,0.3-0.3c0-0.2-0.1-0.3-0.3-0.3
		C1003.7,521.1,1003.6,521.2,1003.6,521.3z"/>
	<linearGradient id="SVGID_160_" gradientUnits="userSpaceOnUse" x1="1023.9255" y1="521.3477" x2="1024.2615" y2="521.3477">
		<stop  offset="0" style="stop-color:#ED312D"/>
		<stop  offset="1" style="stop-color:#F79A29;stop-opacity:0.82"/>
	</linearGradient>
	<path class="st159" d="M1023.9,521.3c0,0.1,0.1,0.2,0.2,0.2c0.1,0,0.2-0.1,0.2-0.2c0-0.1-0.1-0.2-0.2-0.2
		C1024,521.2,1023.9,521.3,1023.9,521.3z"/>
	<linearGradient id="SVGID_161_" gradientUnits="userSpaceOnUse" x1="1044.2312" y1="521.3477" x2="1044.3433" y2="521.3477">
		<stop  offset="0" style="stop-color:#ED312D"/>
		<stop  offset="1" style="stop-color:#F79A29;stop-opacity:0.82"/>
	</linearGradient>
	<path class="st160" d="M1044.2,521.3C1044.2,521.4,1044.3,521.4,1044.2,521.3c0.1,0.1,0.1,0,0.1,0
		C1044.3,521.3,1044.3,521.3,1044.2,521.3C1044.3,521.3,1044.2,521.3,1044.2,521.3z"/>
</g>
</svg>
