<?xml version="1.0" encoding="utf-8"?>
<!-- Generator: Adobe Illustrator 24.0.1, SVG Export Plug-In . SVG Version: 6.00 Build 0)  -->
<svg version="1.1" id="Layer_1" xmlns="http://www.w3.org/2000/svg" xmlns:xlink="http://www.w3.org/1999/xlink" x="0px" y="0px"
	 viewBox="0 0 430 430" style="enable-background:new 0 0 430 430;" xml:space="preserve">
<g>
	<path d="M195.5,0.1C195.5,0.1,195.5,0.1,195.5,0.1c0.1-0.1,0-0.1,0-0.1C195.4,0,195.4,0,195.5,0.1C195.4,0.1,195.4,0.1,195.5,0.1z"
		/>
	<path d="M215,0.1C215,0.1,215.1,0.1,215,0.1c0.1-0.1,0-0.1,0-0.1C215,0,214.9,0,215,0.1C214.9,0.1,215,0.1,215,0.1z"/>
	<path d="M234.5,0.1C234.6,0.1,234.6,0.1,234.5,0.1c0.1-0.1,0-0.1,0-0.1C234.5,0,234.5,0,234.5,0.1C234.5,0.1,234.5,0.1,234.5,0.1z"
		/>
	<path d="M254.1,0.1C254.1,0.1,254.1,0.1,254.1,0.1c0.1-0.1,0-0.1,0-0.1S254,0,254.1,0.1C254,0.1,254.1,0.1,254.1,0.1z"/>
	<path d="M136.8,19.7c0.1,0,0.1,0,0.1-0.1c0-0.1,0-0.1-0.1-0.1c-0.1,0-0.1,0-0.1,0.1C136.7,19.7,136.8,19.7,136.8,19.7z"/>
	<path d="M156.4,19.8c0.1,0,0.2-0.1,0.2-0.2s-0.1-0.2-0.2-0.2c-0.1,0-0.2,0.1-0.2,0.2S156.3,19.8,156.4,19.8z"/>
	<path d="M175.9,19.9c0.2,0,0.3-0.1,0.3-0.3s-0.1-0.3-0.3-0.3c-0.2,0-0.3,0.1-0.3,0.3S175.7,19.9,175.9,19.9z"/>
	<path d="M195.5,20c0.2,0,0.4-0.2,0.4-0.4s-0.2-0.4-0.4-0.4c-0.2,0-0.4,0.2-0.4,0.4S195.2,20,195.5,20z"/>
	<path d="M215,20c0.2,0,0.4-0.2,0.4-0.4s-0.2-0.4-0.4-0.4c-0.2,0-0.4,0.2-0.4,0.4S214.8,20,215,20z"/>
	<path d="M234.5,20c0.2,0,0.4-0.2,0.4-0.4s-0.2-0.4-0.4-0.4c-0.2,0-0.4,0.2-0.4,0.4S234.3,20,234.5,20z"/>
	<path d="M254.1,19.9c0.2,0,0.3-0.1,0.3-0.3s-0.1-0.3-0.3-0.3c-0.2,0-0.3,0.1-0.3,0.3S253.9,19.9,254.1,19.9z"/>
	<path d="M273.6,19.8c0.1,0,0.2-0.1,0.2-0.2s-0.1-0.2-0.2-0.2c-0.1,0-0.2,0.1-0.2,0.2S273.5,19.8,273.6,19.8z"/>
	<path d="M293.2,19.7c0.1,0,0.1,0,0.1-0.1c0-0.1,0-0.1-0.1-0.1c-0.1,0-0.1,0-0.1,0.1C293.1,19.7,293.1,19.7,293.2,19.7z"/>
	<path d="M97.8,39.2c0.1,0,0.1,0,0.1-0.1s0-0.1-0.1-0.1c-0.1,0-0.1,0-0.1,0.1S97.7,39.2,97.8,39.2z"/>
	<circle cx="117.3" cy="39.1" r="0.3"/>
	<circle cx="136.8" cy="39.1" r="0.4"/>
	<path d="M156.4,39.8c0.4,0,0.7-0.3,0.7-0.7c0-0.4-0.3-0.7-0.7-0.7c-0.4,0-0.7,0.3-0.7,0.7C155.7,39.5,156,39.8,156.4,39.8z"/>
	<path d="M175.9,39.9c0.4,0,0.8-0.3,0.8-0.8s-0.3-0.8-0.8-0.8c-0.4,0-0.8,0.3-0.8,0.8S175.5,39.9,175.9,39.9z"/>
	<circle cx="195.5" cy="39.1" r="0.9"/>
	<path d="M215,40.1c0.5,0,0.9-0.4,0.9-0.9s-0.4-0.9-0.9-0.9c-0.5,0-0.9,0.4-0.9,0.9S214.5,40.1,215,40.1z"/>
	<circle cx="234.5" cy="39.1" r="0.9"/>
	<path d="M254.1,39.9c0.4,0,0.8-0.4,0.8-0.8s-0.4-0.8-0.8-0.8c-0.4,0-0.8,0.4-0.8,0.8S253.6,39.9,254.1,39.9z"/>
	<path d="M273.6,39.8c0.4,0,0.7-0.3,0.7-0.7c0-0.4-0.3-0.7-0.7-0.7c-0.4,0-0.7,0.3-0.7,0.7C273,39.5,273.3,39.8,273.6,39.8z"/>
	<path d="M293.2,39.6c0.3,0,0.5-0.2,0.5-0.5s-0.2-0.5-0.5-0.5c-0.3,0-0.5,0.2-0.5,0.5S292.9,39.6,293.2,39.6z"/>
	<circle cx="312.7" cy="39.1" r="0.3"/>
	<path d="M332.2,39.2c0.1,0,0.1,0,0.1-0.1s0-0.1-0.1-0.1c-0.1,0-0.1,0-0.1,0.1S332.2,39.2,332.2,39.2z"/>
	<circle cx="78.2" cy="58.7" r="0.2"/>
	<path d="M97.8,59.1c0.2,0,0.4-0.2,0.4-0.4c0-0.2-0.2-0.4-0.4-0.4c-0.2,0-0.4,0.2-0.4,0.4C97.4,58.9,97.5,59.1,97.8,59.1z"/>
	<path d="M117.3,59.3c0.4,0,0.7-0.3,0.7-0.7c0-0.4-0.3-0.7-0.7-0.7c-0.4,0-0.7,0.3-0.7,0.7C116.6,59,116.9,59.3,117.3,59.3z"/>
	<path d="M136.8,59.6c0.5,0,0.9-0.4,0.9-0.9s-0.4-0.9-0.9-0.9c-0.5,0-0.9,0.4-0.9,0.9S136.3,59.6,136.8,59.6z"/>
	<circle cx="156.4" cy="58.7" r="1.1"/>
	<path d="M175.9,60c0.7,0,1.4-0.6,1.4-1.4s-0.6-1.4-1.4-1.4c-0.7,0-1.4,0.6-1.4,1.4S175.2,60,175.9,60z"/>
	<path d="M195.5,60.1c0.8,0,1.5-0.7,1.5-1.5c0-0.8-0.7-1.5-1.5-1.5c-0.8,0-1.5,0.7-1.5,1.5C194,59.5,194.7,60.1,195.5,60.1z"/>
	<path d="M215,60.2c0.8,0,1.5-0.7,1.5-1.5s-0.7-1.5-1.5-1.5c-0.8,0-1.5,0.7-1.5,1.5S214.2,60.2,215,60.2z"/>
	<path d="M234.5,60.1c0.8,0,1.5-0.7,1.5-1.5c0-0.8-0.7-1.5-1.5-1.5s-1.5,0.7-1.5,1.5C233.1,59.5,233.7,60.1,234.5,60.1z"/>
	<path d="M254.1,60c0.7,0,1.4-0.6,1.4-1.4s-0.6-1.4-1.4-1.4c-0.7,0-1.4,0.6-1.4,1.4S253.3,60,254.1,60z"/>
	<path d="M273.6,59.9c0.7,0,1.2-0.5,1.2-1.2c0-0.7-0.5-1.2-1.2-1.2c-0.7,0-1.2,0.5-1.2,1.2C272.4,59.3,273,59.9,273.6,59.9z"/>
	<path d="M293.2,59.7c0.5,0,1-0.4,1-1c0-0.5-0.4-1-1-1s-1,0.4-1,1C292.2,59.2,292.6,59.7,293.2,59.7z"/>
	<circle cx="312.7" cy="58.7" r="0.7"/>
	<circle cx="332.2" cy="58.7" r="0.4"/>
	<circle cx="351.8" cy="58.7" r="0.2"/>
	<circle cx="58.7" cy="78.2" r="0.2"/>
	<circle cx="78.2" cy="78.2" r="0.4"/>
	<path d="M97.8,79c0.4,0,0.8-0.3,0.8-0.8c0-0.4-0.3-0.8-0.8-0.8c-0.4,0-0.8,0.3-0.8,0.8C97,78.6,97.3,79,97.8,79z"/>
	<circle cx="117.3" cy="78.2" r="1.1"/>
	<path d="M136.8,79.7c0.8,0,1.5-0.7,1.5-1.5s-0.7-1.5-1.5-1.5s-1.5,0.7-1.5,1.5S136,79.7,136.8,79.7z"/>
	<circle cx="156.4" cy="78.2" r="1.7"/>
	<circle cx="175.9" cy="78.2" r="2"/>
	<path d="M195.5,80.3c1.2,0,2.1-0.9,2.1-2.1s-0.9-2.1-2.1-2.1c-1.2,0-2.1,0.9-2.1,2.1S194.3,80.3,195.5,80.3z"/>
	<circle cx="215" cy="78.2" r="2.2"/>
	<path d="M234.5,80.3c1.2,0,2.1-0.9,2.1-2.1s-0.9-2.1-2.1-2.1c-1.2,0-2.1,0.9-2.1,2.1S233.4,80.3,234.5,80.3z"/>
	<circle cx="254.1" cy="78.2" r="2"/>
	<path d="M273.6,80c1,0,1.8-0.8,1.8-1.8s-0.8-1.8-1.8-1.8c-1,0-1.8,0.8-1.8,1.8S272.6,80,273.6,80z"/>
	<path d="M293.2,79.7c0.8,0,1.5-0.7,1.5-1.5c0-0.8-0.7-1.5-1.5-1.5c-0.8,0-1.5,0.7-1.5,1.5C291.6,79.1,292.3,79.7,293.2,79.7z"/>
	<circle cx="312.7" cy="78.2" r="1.1"/>
	<path d="M332.2,79c0.4,0,0.8-0.4,0.8-0.8c0-0.4-0.4-0.8-0.8-0.8c-0.4,0-0.8,0.4-0.8,0.8C331.4,78.7,331.8,79,332.2,79z"/>
	<path d="M351.8,78.7c0.3,0,0.5-0.2,0.5-0.5s-0.2-0.5-0.5-0.5c-0.3,0-0.5,0.2-0.5,0.5S351.5,78.7,351.8,78.7z"/>
	<circle cx="371.3" cy="78.2" r="0.2"/>
	<path d="M39.1,97.9c0.1,0,0.1,0,0.1-0.1c0-0.1,0-0.1-0.1-0.1c-0.1,0-0.1,0-0.1,0.1C39,97.8,39.1,97.9,39.1,97.9z"/>
	<path d="M58.7,98.1c0.2,0,0.4-0.2,0.4-0.4c0-0.2-0.2-0.4-0.4-0.4c-0.2,0-0.4,0.2-0.4,0.4C58.3,98,58.5,98.1,58.7,98.1z"/>
	<path d="M78.2,98.5c0.4,0,0.8-0.3,0.8-0.8c0-0.4-0.3-0.8-0.8-0.8c-0.4,0-0.8,0.3-0.8,0.8C77.5,98.2,77.8,98.5,78.2,98.5z"/>
	<path d="M97.8,98.9c0.7,0,1.2-0.5,1.2-1.2c0-0.7-0.5-1.2-1.2-1.2c-0.7,0-1.2,0.5-1.2,1.2C96.6,98.4,97.1,98.9,97.8,98.9z"/>
	<path d="M117.3,99.4c0.9,0,1.6-0.7,1.6-1.6c0-0.9-0.7-1.6-1.6-1.6c-0.9,0-1.6,0.7-1.6,1.6C115.7,98.7,116.4,99.4,117.3,99.4z"/>
	<circle cx="136.8" cy="97.8" r="2"/>
	<path d="M156.4,100.1c1.3,0,2.4-1.1,2.4-2.4c0-1.3-1.1-2.4-2.4-2.4c-1.3,0-2.4,1.1-2.4,2.4C154,99.1,155.1,100.1,156.4,100.1z"/>
	<path d="M175.9,100.4c1.5,0,2.7-1.2,2.7-2.7c0-1.5-1.2-2.7-2.7-2.7c-1.5,0-2.7,1.2-2.7,2.7C173.3,99.2,174.5,100.4,175.9,100.4z"/>
	<path d="M195.5,100.6c1.6,0,2.8-1.3,2.8-2.8c0-1.6-1.3-2.8-2.8-2.8c-1.6,0-2.8,1.3-2.8,2.8C192.6,99.3,193.9,100.6,195.5,100.6z"/>
	<path d="M215,100.7c1.6,0,2.9-1.3,2.9-2.9c0-1.6-1.3-2.9-2.9-2.9c-1.6,0-2.9,1.3-2.9,2.9C212.1,99.4,213.4,100.7,215,100.7z"/>
	<circle cx="234.5" cy="97.8" r="2.9"/>
	<path d="M254.1,100.4c1.5,0,2.7-1.2,2.7-2.7c0-1.5-1.2-2.7-2.7-2.7c-1.5,0-2.7,1.2-2.7,2.7C251.4,99.2,252.6,100.4,254.1,100.4z"/>
	<path d="M273.6,100.1c1.3,0,2.4-1.1,2.4-2.4c0-1.3-1.1-2.4-2.4-2.4c-1.3,0-2.4,1.1-2.4,2.4C271.2,99.1,272.3,100.1,273.6,100.1z"/>
	<path d="M293.2,99.8c1.1,0,2.1-0.9,2.1-2.1c0-1.1-0.9-2.1-2.1-2.1c-1.1,0-2.1,0.9-2.1,2.1C291.1,98.9,292,99.8,293.2,99.8z"/>
	<path d="M312.7,99.4c0.9,0,1.7-0.8,1.7-1.7c0-0.9-0.8-1.7-1.7-1.7c-0.9,0-1.7,0.8-1.7,1.7C311,98.7,311.8,99.4,312.7,99.4z"/>
	<path d="M332.2,99c0.7,0,1.2-0.6,1.2-1.2c0-0.7-0.6-1.2-1.2-1.2c-0.7,0-1.2,0.6-1.2,1.2C331,98.4,331.6,99,332.2,99z"/>
	<path d="M351.8,98.6c0.4,0,0.8-0.4,0.8-0.8c0-0.4-0.4-0.8-0.8-0.8c-0.4,0-0.8,0.4-0.8,0.8C351,98.2,351.3,98.6,351.8,98.6z"/>
	<circle cx="371.3" cy="97.8" r="0.4"/>
	<path d="M390.9,97.9c0.1,0,0.1,0,0.1-0.1c0-0.1,0-0.1-0.1-0.1c-0.1,0-0.1,0-0.1,0.1C390.8,97.8,390.8,97.9,390.9,97.9z"/>
	<circle cx="39.1" cy="117.3" r="0.3"/>
	<path d="M58.7,117.9c0.4,0,0.7-0.3,0.7-0.7c0-0.4-0.3-0.7-0.7-0.7c-0.4,0-0.7,0.3-0.7,0.7C58,117.7,58.3,117.9,58.7,117.9z"/>
	<circle cx="78.2" cy="117.3" r="1.1"/>
	<path d="M97.8,118.9c0.9,0,1.6-0.7,1.6-1.6s-0.7-1.6-1.6-1.6c-0.9,0-1.6,0.7-1.6,1.6S96.9,118.9,97.8,118.9z"/>
	<path d="M117.3,119.4c1.2,0,2.1-0.9,2.1-2.1s-0.9-2.1-2.1-2.1c-1.2,0-2.1,0.9-2.1,2.1S116.1,119.4,117.3,119.4z"/>
	<circle cx="136.8" cy="117.3" r="2.6"/>
	<circle cx="156.4" cy="117.3" r="3"/>
	<path d="M175.9,120.7c1.9,0,3.4-1.5,3.4-3.4c0-1.9-1.5-3.4-3.4-3.4c-1.9,0-3.4,1.5-3.4,3.4C172.6,119.2,174.1,120.7,175.9,120.7z"
		/>
	<path d="M195.5,120.9c2,0,3.6-1.6,3.6-3.6c0-2-1.6-3.6-3.6-3.6c-2,0-3.6,1.6-3.6,3.6C191.8,119.3,193.5,120.9,195.5,120.9z"/>
	<path d="M215,121c2,0,3.7-1.6,3.7-3.7s-1.6-3.7-3.7-3.7c-2,0-3.7,1.6-3.7,3.7S213,121,215,121z"/>
	<path d="M234.5,120.9c2,0,3.6-1.6,3.6-3.6c0-2-1.6-3.6-3.6-3.6c-2,0-3.6,1.6-3.6,3.6C230.9,119.3,232.5,120.9,234.5,120.9z"/>
	<path d="M254.1,120.7c1.9,0,3.4-1.5,3.4-3.4c0-1.9-1.5-3.4-3.4-3.4s-3.4,1.5-3.4,3.4C250.7,119.2,252.2,120.7,254.1,120.7z"/>
	<circle cx="273.6" cy="117.3" r="3"/>
	<path d="M293.2,120c1.5,0,2.7-1.2,2.7-2.7c0-1.5-1.2-2.7-2.7-2.7c-1.5,0-2.7,1.2-2.7,2.7C290.5,118.8,291.7,120,293.2,120z"/>
	<circle cx="312.7" cy="117.3" r="2.2"/>
	<path d="M332.2,119c0.9,0,1.7-0.8,1.7-1.7c0-0.9-0.8-1.7-1.7-1.7c-0.9,0-1.7,0.8-1.7,1.7C330.6,118.2,331.3,119,332.2,119z"/>
	<path d="M351.8,118.5c0.7,0,1.2-0.5,1.2-1.2c0-0.7-0.5-1.2-1.2-1.2c-0.7,0-1.2,0.5-1.2,1.2C350.6,118,351.1,118.5,351.8,118.5z"/>
	<circle cx="371.3" cy="117.3" r="0.7"/>
	<circle cx="390.9" cy="117.3" r="0.3"/>
	<path d="M410.4,117.4C410.4,117.4,410.5,117.3,410.4,117.4c0.1-0.1,0-0.1,0-0.1S410.4,117.3,410.4,117.4
		C410.4,117.3,410.4,117.4,410.4,117.4z"/>
	<path d="M19.6,136.9c0.1,0,0.1,0,0.1-0.1s0-0.1-0.1-0.1c-0.1,0-0.1,0-0.1,0.1S19.5,136.9,19.6,136.9z"/>
	<circle cx="39.1" cy="136.8" r="0.4"/>
	<path d="M58.7,137.8c0.5,0,0.9-0.4,0.9-0.9c0-0.5-0.4-0.9-0.9-0.9s-0.9,0.4-0.9,0.9C57.8,137.3,58.2,137.8,58.7,137.8z"/>
	<path d="M78.2,138.3c0.8,0,1.5-0.7,1.5-1.5s-0.7-1.5-1.5-1.5s-1.5,0.7-1.5,1.5S77.4,138.3,78.2,138.3z"/>
	<circle cx="97.8" cy="136.8" r="2"/>
	<circle cx="117.3" cy="136.8" r="2.6"/>
	<circle cx="136.8" cy="136.8" r="3.1"/>
	<path d="M156.4,140.5c2,0,3.7-1.6,3.7-3.7s-1.6-3.7-3.7-3.7c-2,0-3.7,1.6-3.7,3.7S154.3,140.5,156.4,140.5z"/>
	<path d="M175.9,141c2.3,0,4.1-1.8,4.1-4.1c0-2.3-1.8-4.1-4.1-4.1c-2.3,0-4.1,1.8-4.1,4.1C171.8,139.1,173.6,141,175.9,141z"/>
	<path d="M195.5,141.2c2.4,0,4.4-2,4.4-4.4s-2-4.4-4.4-4.4c-2.4,0-4.4,2-4.4,4.4S193,141.2,195.5,141.2z"/>
	<path d="M215,141.4c2.5,0,4.6-2,4.6-4.6s-2-4.6-4.6-4.6c-2.5,0-4.6,2-4.6,4.6S212.5,141.4,215,141.4z"/>
	<circle cx="234.5" cy="136.8" r="4.4"/>
	<path d="M254.1,141c2.3,0,4.1-1.8,4.1-4.1c0-2.3-1.8-4.1-4.1-4.1c-2.3,0-4.1,1.8-4.1,4.1C250,139.1,251.8,141,254.1,141z"/>
	<circle cx="273.6" cy="136.8" r="3.7"/>
	<path d="M293.2,140c1.8,0,3.2-1.4,3.2-3.2s-1.4-3.2-3.2-3.2c-1.8,0-3.2,1.4-3.2,3.2S291.4,140,293.2,140z"/>
	<path d="M312.7,139.5c1.5,0,2.7-1.2,2.7-2.7c0-1.5-1.2-2.7-2.7-2.7c-1.5,0-2.7,1.2-2.7,2.7C310,138.3,311.2,139.5,312.7,139.5z"/>
	<path d="M332.2,138.9c1.1,0,2.1-0.9,2.1-2.1s-0.9-2.1-2.1-2.1c-1.1,0-2.1,0.9-2.1,2.1S331.1,138.9,332.2,138.9z"/>
	<path d="M351.8,138.4c0.8,0,1.5-0.7,1.5-1.5s-0.7-1.5-1.5-1.5s-1.5,0.7-1.5,1.5S350.9,138.4,351.8,138.4z"/>
	<path d="M371.3,137.8c0.5,0,1-0.4,1-1s-0.4-1-1-1s-1,0.4-1,1S370.8,137.8,371.3,137.8z"/>
	<path d="M390.9,137.3c0.3,0,0.5-0.2,0.5-0.5s-0.2-0.5-0.5-0.5c-0.3,0-0.5,0.2-0.5,0.5S390.6,137.3,390.9,137.3z"/>
	<path d="M410.4,136.9c0.1,0,0.1,0,0.1-0.1s0-0.1-0.1-0.1c-0.1,0-0.1,0-0.1,0.1S410.3,136.9,410.4,136.9z"/>
	<path d="M19.6,156.6c0.1,0,0.2-0.1,0.2-0.2c0-0.1-0.1-0.2-0.2-0.2c-0.1,0-0.2,0.1-0.2,0.2C19.4,156.5,19.5,156.6,19.6,156.6z"/>
	<path d="M39.1,157c0.4,0,0.7-0.3,0.7-0.7s-0.3-0.7-0.7-0.7c-0.4,0-0.7,0.3-0.7,0.7S38.8,157,39.1,157z"/>
	<circle cx="58.7" cy="156.4" r="1.1"/>
	<circle cx="78.2" cy="156.4" r="1.7"/>
	<path d="M97.8,158.8c1.3,0,2.4-1.1,2.4-2.4c0-1.3-1.1-2.4-2.4-2.4c-1.3,0-2.4,1.1-2.4,2.4C95.4,157.7,96.4,158.8,97.8,158.8z"/>
	<circle cx="117.3" cy="156.4" r="3"/>
	<path d="M136.8,160.1c2,0,3.7-1.6,3.7-3.7s-1.6-3.7-3.7-3.7c-2,0-3.7,1.6-3.7,3.7S134.8,160.1,136.8,160.1z"/>
	<path d="M156.4,160.7c2.4,0,4.3-1.9,4.3-4.3s-1.9-4.3-4.3-4.3s-4.3,1.9-4.3,4.3S154,160.7,156.4,160.7z"/>
	<circle cx="175.9" cy="156.4" r="4.9"/>
	<path d="M195.5,161.6c2.9,0,5.3-2.4,5.3-5.3c0-2.9-2.4-5.3-5.3-5.3c-2.9,0-5.3,2.4-5.3,5.3C190.2,159.3,192.6,161.6,195.5,161.6z"
		/>
	<path d="M215,161.8c3,0,5.4-2.4,5.4-5.4S218,151,215,151c-3,0-5.4,2.4-5.4,5.4S212,161.8,215,161.8z"/>
	<path d="M234.5,161.6c2.9,0,5.3-2.4,5.3-5.3c0-2.9-2.4-5.3-5.3-5.3s-5.3,2.4-5.3,5.3C229.3,159.3,231.6,161.6,234.5,161.6z"/>
	<circle cx="254.1" cy="156.4" r="4.9"/>
	<path d="M273.6,160.7c2.4,0,4.3-1.9,4.3-4.3s-1.9-4.3-4.3-4.3c-2.4,0-4.3,1.9-4.3,4.3S271.2,160.7,273.6,160.7z"/>
	<circle cx="293.2" cy="156.4" r="3.7"/>
	<path d="M312.7,159.5c1.7,0,3.1-1.4,3.1-3.1s-1.4-3.1-3.1-3.1c-1.7,0-3.1,1.4-3.1,3.1S311,159.5,312.7,159.5z"/>
	<circle cx="332.2" cy="156.4" r="2.4"/>
	<path d="M351.8,158.2c1,0,1.8-0.8,1.8-1.8c0-1-0.8-1.8-1.8-1.8c-1,0-1.8,0.8-1.8,1.8C350,157.4,350.8,158.2,351.8,158.2z"/>
	<path d="M371.3,157.6c0.7,0,1.2-0.5,1.2-1.2c0-0.7-0.5-1.2-1.2-1.2c-0.7,0-1.2,0.5-1.2,1.2C370.1,157,370.7,157.6,371.3,157.6z"/>
	<path d="M390.9,157c0.4,0,0.7-0.3,0.7-0.7s-0.3-0.7-0.7-0.7c-0.4,0-0.7,0.3-0.7,0.7S390.5,157,390.9,157z"/>
	<circle cx="410.4" cy="156.4" r="0.3"/>
	<path d="M19.6,176.2c0.2,0,0.3-0.1,0.3-0.3c0-0.2-0.1-0.3-0.3-0.3c-0.2,0-0.3,0.1-0.3,0.3C19.3,176.1,19.4,176.2,19.6,176.2z"/>
	<path d="M39.1,176.7c0.4,0,0.8-0.3,0.8-0.8c0-0.4-0.3-0.8-0.8-0.8c-0.4,0-0.8,0.3-0.8,0.8C38.4,176.3,38.7,176.7,39.1,176.7z"/>
	<path d="M58.7,177.3c0.7,0,1.4-0.6,1.4-1.4s-0.6-1.4-1.4-1.4c-0.7,0-1.4,0.6-1.4,1.4S57.9,177.3,58.7,177.3z"/>
	<circle cx="78.2" cy="175.9" r="2"/>
	<path d="M97.8,178.6c1.5,0,2.7-1.2,2.7-2.7c0-1.5-1.2-2.7-2.7-2.7c-1.5,0-2.7,1.2-2.7,2.7C95.1,177.4,96.3,178.6,97.8,178.6z"/>
	<path d="M117.3,179.3c1.9,0,3.4-1.5,3.4-3.4c0-1.9-1.5-3.4-3.4-3.4c-1.9,0-3.4,1.5-3.4,3.4C113.9,177.8,115.4,179.3,117.3,179.3z"
		/>
	<path d="M136.8,180c2.3,0,4.1-1.8,4.1-4.1c0-2.3-1.8-4.1-4.1-4.1c-2.3,0-4.1,1.8-4.1,4.1C132.7,178.2,134.6,180,136.8,180z"/>
	<circle cx="156.4" cy="175.9" r="4.9"/>
	<path d="M175.9,181.4c3.1,0,5.5-2.5,5.5-5.5c0-3.1-2.5-5.5-5.5-5.5c-3.1,0-5.5,2.5-5.5,5.5C170.4,179,172.9,181.4,175.9,181.4z"/>
	<path d="M195.5,182c3.4,0,6.1-2.7,6.1-6.1c0-3.4-2.7-6.1-6.1-6.1c-3.4,0-6.1,2.7-6.1,6.1C189.4,179.3,192.1,182,195.5,182z"/>
	<circle cx="215" cy="175.9" r="6.3"/>
	<path d="M234.5,182c3.4,0,6.1-2.7,6.1-6.1c0-3.4-2.7-6.1-6.1-6.1c-3.4,0-6.1,2.7-6.1,6.1C228.4,179.3,231.2,182,234.5,182z"/>
	<circle cx="254.1" cy="175.9" r="5.6"/>
	<path d="M273.6,180.8c2.7,0,4.9-2.2,4.9-4.9s-2.2-4.9-4.9-4.9c-2.7,0-4.9,2.2-4.9,4.9S270.9,180.8,273.6,180.8z"/>
	<circle cx="293.2" cy="175.9" r="4.2"/>
	<path d="M312.7,179.4c1.9,0,3.5-1.6,3.5-3.5s-1.6-3.5-3.5-3.5c-1.9,0-3.5,1.6-3.5,3.5S310.8,179.4,312.7,179.4z"/>
	<circle cx="332.2" cy="175.9" r="2.7"/>
	<circle cx="351.8" cy="175.9" r="2"/>
	<circle cx="371.3" cy="175.9" r="1.4"/>
	<path d="M390.9,176.7c0.4,0,0.8-0.4,0.8-0.8c0-0.4-0.4-0.8-0.8-0.8c-0.4,0-0.8,0.4-0.8,0.8C390.1,176.4,390.4,176.7,390.9,176.7z"
		/>
	<path d="M410.4,176.2c0.2,0,0.3-0.1,0.3-0.3c0-0.2-0.1-0.3-0.3-0.3c-0.2,0-0.3,0.1-0.3,0.3C410.1,176.1,410.2,176.2,410.4,176.2z"
		/>
	<path d="M429.9,176C430,176,430,175.9,429.9,176c0.1-0.1,0-0.1,0-0.1S429.9,175.9,429.9,176C429.9,175.9,429.9,176,429.9,176z"/>
	<path d="M0.1,195.5C0.1,195.5,0.1,195.5,0.1,195.5c0.1-0.1,0-0.1,0-0.1S0,195.4,0.1,195.5C0,195.5,0,195.5,0.1,195.5z"/>
	<path d="M19.6,195.8c0.2,0,0.4-0.2,0.4-0.4c0-0.2-0.2-0.4-0.4-0.4c-0.2,0-0.4,0.2-0.4,0.4C19.2,195.7,19.4,195.8,19.6,195.8z"/>
	<circle cx="39.1" cy="195.5" r="0.9"/>
	<path d="M58.7,196.9c0.8,0,1.5-0.7,1.5-1.5c0-0.8-0.7-1.5-1.5-1.5c-0.8,0-1.5,0.7-1.5,1.5C57.2,196.3,57.9,196.9,58.7,196.9z"/>
	<path d="M78.2,197.6c1.2,0,2.1-0.9,2.1-2.1c0-1.2-0.9-2.1-2.1-2.1c-1.2,0-2.1,0.9-2.1,2.1C76.1,196.6,77,197.6,78.2,197.6z"/>
	<path d="M97.8,198.3c1.6,0,2.8-1.3,2.8-2.8c0-1.6-1.3-2.8-2.8-2.8c-1.6,0-2.8,1.3-2.8,2.8C94.9,197,96.2,198.3,97.8,198.3z"/>
	<path d="M117.3,199.1c2,0,3.6-1.6,3.6-3.6c0-2-1.6-3.6-3.6-3.6c-2,0-3.6,1.6-3.6,3.6C113.7,197.5,115.3,199.1,117.3,199.1z"/>
	<path d="M136.8,199.8c2.4,0,4.4-2,4.4-4.4c0-2.4-2-4.4-4.4-4.4s-4.4,2-4.4,4.4C132.4,197.9,134.4,199.8,136.8,199.8z"/>
	<path d="M156.4,200.7c2.9,0,5.3-2.4,5.3-5.3c0-2.9-2.4-5.3-5.3-5.3c-2.9,0-5.3,2.4-5.3,5.3C151.1,198.4,153.5,200.7,156.4,200.7z"
		/>
	<path d="M175.9,201.5c3.4,0,6.1-2.7,6.1-6.1c0-3.4-2.7-6.1-6.1-6.1c-3.4,0-6.1,2.7-6.1,6.1C169.9,198.8,172.6,201.5,175.9,201.5z"
		/>
	<path d="M195.5,202.3c3.8,0,6.8-3.1,6.8-6.8c0-3.8-3.1-6.8-6.8-6.8c-3.8,0-6.8,3.1-6.8,6.8C188.6,199.2,191.7,202.3,195.5,202.3z"
		/>
	<path d="M215,202.7c4,0,7.2-3.2,7.2-7.2c0-4-3.2-7.2-7.2-7.2c-4,0-7.2,3.2-7.2,7.2C207.8,199.4,211,202.7,215,202.7z"/>
	<circle cx="234.5" cy="195.5" r="6.9"/>
	<path d="M254.1,201.6c3.4,0,6.1-2.7,6.1-6.1c0-3.4-2.7-6.1-6.1-6.1c-3.4,0-6.1,2.7-6.1,6.1C248,198.8,250.7,201.6,254.1,201.6z"/>
	<circle cx="273.6" cy="195.5" r="5.3"/>
	<path d="M293.2,200c2.5,0,4.5-2,4.5-4.5c0-2.5-2-4.5-4.5-4.5c-2.5,0-4.5,2-4.5,4.5C288.7,197.9,290.7,200,293.2,200z"/>
	<path d="M312.7,199.1c2,0,3.7-1.6,3.7-3.7c0-2-1.6-3.7-3.7-3.7c-2,0-3.7,1.6-3.7,3.7C309,197.5,310.7,199.1,312.7,199.1z"/>
	<circle cx="332.2" cy="195.5" r="2.9"/>
	<circle cx="351.8" cy="195.5" r="2.2"/>
	<path d="M371.3,197c0.8,0,1.5-0.7,1.5-1.5c0-0.8-0.7-1.5-1.5-1.5s-1.5,0.7-1.5,1.5C369.8,196.3,370.5,197,371.3,197z"/>
	<path d="M390.9,196.4c0.5,0,0.9-0.4,0.9-0.9c0-0.5-0.4-0.9-0.9-0.9s-0.9,0.4-0.9,0.9C389.9,196,390.4,196.4,390.9,196.4z"/>
	<circle cx="410.4" cy="195.5" r="0.4"/>
	<path d="M429.9,195.5C430,195.5,430,195.5,429.9,195.5c0.1-0.1,0-0.1,0-0.1S429.9,195.4,429.9,195.5
		C429.9,195.5,429.9,195.5,429.9,195.5z"/>
	<path d="M0.1,215.1C0.1,215.1,0.1,215,0.1,215.1c0.1-0.1,0-0.1,0-0.1S0,215,0.1,215.1C0,215,0,215.1,0.1,215.1z"/>
	<path d="M19.6,215.4c0.2,0,0.4-0.2,0.4-0.4s-0.2-0.4-0.4-0.4c-0.2,0-0.4,0.2-0.4,0.4S19.4,215.4,19.6,215.4z"/>
	<path d="M39.1,215.9c0.5,0,0.9-0.4,0.9-0.9c0-0.5-0.4-0.9-0.9-0.9s-0.9,0.4-0.9,0.9C38.2,215.5,38.6,215.9,39.1,215.9z"/>
	<path d="M58.7,216.5c0.8,0,1.5-0.7,1.5-1.5c0-0.8-0.7-1.5-1.5-1.5s-1.5,0.7-1.5,1.5C57.2,215.8,57.8,216.5,58.7,216.5z"/>
	<circle cx="78.2" cy="215" r="2.2"/>
	<path d="M97.8,217.9c1.6,0,2.9-1.3,2.9-2.9c0-1.6-1.3-2.9-2.9-2.9c-1.6,0-2.9,1.3-2.9,2.9C94.8,216.6,96.1,217.9,97.8,217.9z"/>
	<path d="M117.3,218.7c2,0,3.7-1.6,3.7-3.7s-1.6-3.7-3.7-3.7c-2,0-3.7,1.6-3.7,3.7S115.3,218.7,117.3,218.7z"/>
	<path d="M136.8,219.6c2.5,0,4.6-2,4.6-4.6c0-2.5-2-4.6-4.6-4.6c-2.5,0-4.6,2-4.6,4.6C132.3,217.5,134.3,219.6,136.8,219.6z"/>
	<path d="M156.4,220.4c3,0,5.4-2.4,5.4-5.4s-2.4-5.4-5.4-5.4c-3,0-5.4,2.4-5.4,5.4S153.4,220.4,156.4,220.4z"/>
	<circle cx="175.9" cy="215" r="6.3"/>
	<path d="M195.5,222.2c4,0,7.2-3.2,7.2-7.2c0-4-3.2-7.2-7.2-7.2c-4,0-7.2,3.2-7.2,7.2C188.3,219,191.5,222.2,195.5,222.2z"/>
	<path d="M215,222.9c4.4,0,7.9-3.5,7.9-7.9s-3.5-7.9-7.9-7.9c-4.4,0-7.9,3.5-7.9,7.9S210.6,222.9,215,222.9z"/>
	<circle cx="234.5" cy="215" r="7.3"/>
	<path d="M254.1,221.4c3.5,0,6.4-2.9,6.4-6.4c0-3.5-2.9-6.4-6.4-6.4c-3.5,0-6.4,2.9-6.4,6.4C247.7,218.5,250.5,221.4,254.1,221.4z"
		/>
	<path d="M273.6,220.5c3,0,5.5-2.5,5.5-5.5c0-3-2.5-5.5-5.5-5.5c-3,0-5.5,2.5-5.5,5.5C268.1,218,270.6,220.5,273.6,220.5z"/>
	<circle cx="293.2" cy="215" r="4.6"/>
	<circle cx="312.7" cy="215" r="3.7"/>
	<path d="M332.2,218c1.6,0,3-1.3,3-3s-1.3-3-3-3s-3,1.3-3,3S330.6,218,332.2,218z"/>
	<path d="M351.8,217.2c1.2,0,2.2-1,2.2-2.2s-1-2.2-2.2-2.2c-1.2,0-2.2,1-2.2,2.2S350.6,217.2,351.8,217.2z"/>
	<circle cx="371.3" cy="215" r="1.6"/>
	<path d="M390.9,215.9c0.5,0,0.9-0.4,0.9-0.9c0-0.5-0.4-0.9-0.9-0.9s-0.9,0.4-0.9,0.9C389.9,215.5,390.4,215.9,390.9,215.9z"/>
	<circle cx="410.4" cy="215" r="0.4"/>
	<path d="M429.9,215.1C430,215.1,430,215,429.9,215.1c0.1-0.1,0-0.1,0-0.1S429.9,215,429.9,215.1C429.9,215,429.9,215.1,429.9,215.1
		z"/>
	<path d="M0.1,234.6C0.1,234.6,0.1,234.6,0.1,234.6c0.1-0.1,0-0.1,0-0.1S0,234.5,0.1,234.6C0,234.6,0,234.6,0.1,234.6z"/>
	<path d="M19.6,234.9c0.2,0,0.4-0.2,0.4-0.4s-0.2-0.4-0.4-0.4c-0.2,0-0.4,0.2-0.4,0.4S19.4,234.9,19.6,234.9z"/>
	<circle cx="39.1" cy="234.5" r="0.9"/>
	<path d="M58.7,236c0.8,0,1.5-0.7,1.5-1.5s-0.7-1.5-1.5-1.5c-0.8,0-1.5,0.7-1.5,1.5S57.9,236,58.7,236z"/>
	<path d="M78.2,236.7c1.2,0,2.1-0.9,2.1-2.1s-0.9-2.1-2.1-2.1c-1.2,0-2.1,0.9-2.1,2.1S77,236.7,78.2,236.7z"/>
	<circle cx="97.8" cy="234.5" r="2.9"/>
	<path d="M117.3,238.2c2,0,3.6-1.6,3.6-3.6c0-2-1.6-3.6-3.6-3.6c-2,0-3.6,1.6-3.6,3.6C113.7,236.5,115.3,238.2,117.3,238.2z"/>
	<circle cx="136.8" cy="234.5" r="4.4"/>
	<path d="M156.4,239.8c2.9,0,5.3-2.4,5.3-5.3s-2.4-5.3-5.3-5.3c-2.9,0-5.3,2.4-5.3,5.3S153.5,239.8,156.4,239.8z"/>
	<path d="M175.9,240.7c3.4,0,6.1-2.7,6.1-6.1s-2.7-6.1-6.1-6.1c-3.4,0-6.1,2.7-6.1,6.1S172.5,240.7,175.9,240.7z"/>
	<circle cx="195.5" cy="234.5" r="6.9"/>
	<circle cx="215" cy="234.5" r="7.3"/>
	<path d="M234.5,241.5c3.8,0,6.9-3.1,6.9-6.9s-3.1-6.9-6.9-6.9c-3.8,0-6.9,3.1-6.9,6.9S230.7,241.5,234.5,241.5z"/>
	<circle cx="254.1" cy="234.5" r="6.2"/>
	<path d="M273.6,239.9c3,0,5.4-2.4,5.4-5.4c0-3-2.4-5.4-5.4-5.4c-3,0-5.4,2.4-5.4,5.4C268.3,237.5,270.7,239.9,273.6,239.9z"/>
	<path d="M293.2,239c2.5,0,4.5-2,4.5-4.5c0-2.5-2-4.5-4.5-4.5c-2.5,0-4.5,2-4.5,4.5C288.7,237,290.7,239,293.2,239z"/>
	<path d="M312.7,238.2c2,0,3.7-1.6,3.7-3.7s-1.6-3.7-3.7-3.7c-2,0-3.7,1.6-3.7,3.7S310.7,238.2,312.7,238.2z"/>
	<path d="M332.2,237.5c1.6,0,2.9-1.3,2.9-2.9s-1.3-2.9-2.9-2.9s-2.9,1.3-2.9,2.9S330.6,237.5,332.2,237.5z"/>
	<circle cx="351.8" cy="234.5" r="2.2"/>
	<path d="M371.3,236.1c0.8,0,1.5-0.7,1.5-1.5s-0.7-1.5-1.5-1.5s-1.5,0.7-1.5,1.5S370.5,236.1,371.3,236.1z"/>
	<path d="M390.9,235.5c0.5,0,0.9-0.4,0.9-0.9c0-0.5-0.4-0.9-0.9-0.9s-0.9,0.4-0.9,0.9C389.9,235,390.4,235.5,390.9,235.5z"/>
	<circle cx="410.4" cy="234.5" r="0.4"/>
	<path d="M429.9,234.6C430,234.6,430,234.6,429.9,234.6c0.1-0.1,0-0.1,0-0.1S429.9,234.5,429.9,234.6
		C429.9,234.6,429.9,234.6,429.9,234.6z"/>
	<path d="M0.1,254.1C0.1,254.1,0.1,254.1,0.1,254.1c0.1-0.1,0-0.1,0-0.1S0,254.1,0.1,254.1C0,254.1,0,254.1,0.1,254.1z"/>
	<path d="M19.6,254.4c0.2,0,0.3-0.1,0.3-0.3s-0.1-0.3-0.3-0.3c-0.2,0-0.3,0.1-0.3,0.3S19.4,254.4,19.6,254.4z"/>
	<path d="M39.1,254.9c0.4,0,0.8-0.4,0.8-0.8s-0.4-0.8-0.8-0.8c-0.4,0-0.8,0.4-0.8,0.8S38.7,254.9,39.1,254.9z"/>
	<path d="M58.7,255.4c0.7,0,1.4-0.6,1.4-1.4s-0.6-1.4-1.4-1.4c-0.7,0-1.4,0.6-1.4,1.4S57.9,255.4,58.7,255.4z"/>
	<circle cx="78.2" cy="254.1" r="2"/>
	<path d="M97.8,256.7c1.5,0,2.7-1.2,2.7-2.7c0-1.5-1.2-2.7-2.7-2.7c-1.5,0-2.7,1.2-2.7,2.7C95.1,255.5,96.3,256.7,97.8,256.7z"/>
	<path d="M117.3,257.5c1.9,0,3.4-1.5,3.4-3.4s-1.5-3.4-3.4-3.4c-1.9,0-3.4,1.5-3.4,3.4S115.4,257.5,117.3,257.5z"/>
	<path d="M136.8,258.2c2.3,0,4.1-1.8,4.1-4.1c0-2.3-1.8-4.1-4.1-4.1c-2.3,0-4.1,1.8-4.1,4.1C132.7,256.4,134.6,258.2,136.8,258.2z"
		/>
	<circle cx="156.4" cy="254.1" r="4.9"/>
	<circle cx="175.9" cy="254.1" r="5.6"/>
	<path d="M195.5,260.2c3.4,0,6.1-2.7,6.1-6.1s-2.7-6.1-6.1-6.1c-3.4,0-6.1,2.7-6.1,6.1S192.1,260.2,195.5,260.2z"/>
	<path d="M215,260.5c3.5,0,6.4-2.9,6.4-6.4s-2.9-6.4-6.4-6.4c-3.5,0-6.4,2.9-6.4,6.4S211.5,260.5,215,260.5z"/>
	<circle cx="234.5" cy="254.1" r="6.2"/>
	<path d="M254.1,259.7c3.1,0,5.6-2.5,5.6-5.6c0-3.1-2.5-5.6-5.6-5.6c-3.1,0-5.6,2.5-5.6,5.6C248.4,257.2,251,259.7,254.1,259.7z"/>
	<path d="M273.6,259c2.7,0,4.9-2.2,4.9-4.9c0-2.7-2.2-4.9-4.9-4.9c-2.7,0-4.9,2.2-4.9,4.9C268.7,256.8,270.9,259,273.6,259z"/>
	<path d="M293.2,258.3c2.3,0,4.2-1.9,4.2-4.2s-1.9-4.2-4.2-4.2c-2.3,0-4.2,1.9-4.2,4.2S290.8,258.3,293.2,258.3z"/>
	<path d="M312.7,257.5c1.9,0,3.5-1.6,3.5-3.5s-1.6-3.5-3.5-3.5c-1.9,0-3.5,1.6-3.5,3.5S310.8,257.5,312.7,257.5z"/>
	<path d="M332.2,256.8c1.5,0,2.8-1.2,2.8-2.8s-1.2-2.8-2.8-2.8c-1.5,0-2.8,1.2-2.8,2.8S330.7,256.8,332.2,256.8z"/>
	<path d="M351.8,256.1c1.1,0,2.1-0.9,2.1-2.1s-0.9-2.1-2.1-2.1c-1.1,0-2.1,0.9-2.1,2.1S350.6,256.1,351.8,256.1z"/>
	<circle cx="371.3" cy="254.1" r="1.4"/>
	<path d="M390.9,254.9c0.4,0,0.8-0.4,0.8-0.8s-0.4-0.8-0.8-0.8c-0.4,0-0.8,0.4-0.8,0.8S390.4,254.9,390.9,254.9z"/>
	<path d="M410.4,254.4c0.2,0,0.3-0.1,0.3-0.3s-0.1-0.3-0.3-0.3c-0.2,0-0.3,0.1-0.3,0.3S410.2,254.4,410.4,254.4z"/>
	<path d="M429.9,254.1C430,254.1,430,254.1,429.9,254.1c0.1-0.1,0-0.1,0-0.1S429.9,254.1,429.9,254.1
		C429.9,254.1,429.9,254.1,429.9,254.1z"/>
	<path d="M19.6,273.8c0.1,0,0.2-0.1,0.2-0.2c0-0.1-0.1-0.2-0.2-0.2c-0.1,0-0.2,0.1-0.2,0.2C19.4,273.7,19.5,273.8,19.6,273.8z"/>
	<path d="M39.1,274.3c0.4,0,0.7-0.3,0.7-0.7c0-0.4-0.3-0.7-0.7-0.7c-0.4,0-0.7,0.3-0.7,0.7C38.5,274,38.8,274.3,39.1,274.3z"/>
	<path d="M58.7,274.8c0.7,0,1.2-0.5,1.2-1.2c0-0.7-0.5-1.2-1.2-1.2c-0.7,0-1.2,0.5-1.2,1.2C57.5,274.3,58,274.8,58.7,274.8z"/>
	<path d="M78.2,275.4c1,0,1.8-0.8,1.8-1.8c0-1-0.8-1.8-1.8-1.8c-1,0-1.8,0.8-1.8,1.8C76.4,274.6,77.2,275.4,78.2,275.4z"/>
	<path d="M97.8,276c1.3,0,2.4-1.1,2.4-2.4c0-1.3-1.1-2.4-2.4-2.4c-1.3,0-2.4,1.1-2.4,2.4C95.4,274.9,96.4,276,97.8,276z"/>
	<circle cx="117.3" cy="273.6" r="3"/>
	<circle cx="136.8" cy="273.6" r="3.7"/>
	<path d="M156.4,278c2.4,0,4.3-1.9,4.3-4.3c0-2.4-1.9-4.3-4.3-4.3s-4.3,1.9-4.3,4.3C152,276,154,278,156.4,278z"/>
	<path d="M175.9,278.6c2.7,0,4.9-2.2,4.9-4.9s-2.2-4.9-4.9-4.9c-2.7,0-4.9,2.2-4.9,4.9S173.2,278.6,175.9,278.6z"/>
	<circle cx="195.5" cy="273.6" r="5.3"/>
	<path d="M215,279.1c3,0,5.5-2.5,5.5-5.5c0-3-2.5-5.5-5.5-5.5c-3,0-5.5,2.5-5.5,5.5C209.5,276.6,212,279.1,215,279.1z"/>
	<path d="M234.5,279c3,0,5.4-2.4,5.4-5.4c0-3-2.4-5.4-5.4-5.4c-3,0-5.4,2.4-5.4,5.4C229.2,276.6,231.6,279,234.5,279z"/>
	<path d="M254.1,278.6c2.7,0,4.9-2.2,4.9-4.9s-2.2-4.9-4.9-4.9c-2.7,0-4.9,2.2-4.9,4.9S251.4,278.6,254.1,278.6z"/>
	<path d="M273.6,278c2.4,0,4.4-2,4.4-4.4c0-2.4-2-4.4-4.4-4.4c-2.4,0-4.4,2-4.4,4.4C269.2,276,271.2,278,273.6,278z"/>
	<path d="M293.2,277.4c2.1,0,3.8-1.7,3.8-3.8c0-2.1-1.7-3.8-3.8-3.8c-2.1,0-3.8,1.7-3.8,3.8C289.4,275.7,291.1,277.4,293.2,277.4z"
		/>
	<path d="M312.7,276.7c1.7,0,3.1-1.4,3.1-3.1c0-1.7-1.4-3.1-3.1-3.1c-1.7,0-3.1,1.4-3.1,3.1C309.6,275.3,311,276.7,312.7,276.7z"/>
	<circle cx="332.2" cy="273.6" r="2.4"/>
	<circle cx="351.8" cy="273.6" r="1.8"/>
	<path d="M371.3,274.9c0.7,0,1.2-0.6,1.2-1.2c0-0.7-0.6-1.2-1.2-1.2c-0.7,0-1.2,0.6-1.2,1.2C370.1,274.3,370.6,274.9,371.3,274.9z"
		/>
	<circle cx="390.9" cy="273.6" r="0.7"/>
	<circle cx="410.4" cy="273.6" r="0.3"/>
	<path d="M19.6,293.3c0.1,0,0.1,0,0.1-0.1c0-0.1,0-0.1-0.1-0.1c-0.1,0-0.1,0-0.1,0.1C19.5,293.2,19.5,293.3,19.6,293.3z"/>
	<path d="M39.1,293.6c0.3,0,0.5-0.2,0.5-0.5c0-0.3-0.2-0.5-0.5-0.5s-0.5,0.2-0.5,0.5C38.6,293.4,38.9,293.6,39.1,293.6z"/>
	<path d="M58.7,294.1c0.5,0,1-0.4,1-1s-0.4-1-1-1c-0.5,0-1,0.4-1,1S58.1,294.1,58.7,294.1z"/>
	<path d="M78.2,294.7c0.8,0,1.5-0.7,1.5-1.5c0-0.8-0.7-1.5-1.5-1.5c-0.8,0-1.5,0.7-1.5,1.5C76.7,294,77.4,294.7,78.2,294.7z"/>
	<path d="M97.8,295.2c1.1,0,2.1-0.9,2.1-2.1c0-1.1-0.9-2.1-2.1-2.1c-1.1,0-2.1,0.9-2.1,2.1C95.7,294.3,96.6,295.2,97.8,295.2z"/>
	<path d="M117.3,295.8c1.5,0,2.7-1.2,2.7-2.7c0-1.5-1.2-2.7-2.7-2.7c-1.5,0-2.7,1.2-2.7,2.7C114.6,294.6,115.8,295.8,117.3,295.8z"
		/>
	<path d="M136.8,296.4c1.8,0,3.2-1.4,3.2-3.2c0-1.8-1.4-3.2-3.2-3.2c-1.8,0-3.2,1.4-3.2,3.2C133.6,294.9,135.1,296.4,136.8,296.4z"
		/>
	<circle cx="156.4" cy="293.2" r="3.7"/>
	<circle cx="175.9" cy="293.2" r="4.2"/>
	<path d="M195.5,297.7c2.5,0,4.5-2,4.5-4.5c0-2.5-2-4.5-4.5-4.5c-2.5,0-4.5,2-4.5,4.5C191,295.6,193,297.7,195.5,297.7z"/>
	<circle cx="215" cy="293.2" r="4.6"/>
	<path d="M234.5,297.7c2.5,0,4.5-2,4.5-4.5c0-2.5-2-4.5-4.5-4.5c-2.5,0-4.5,2-4.5,4.5C230,295.6,232.1,297.7,234.5,297.7z"/>
	<path d="M254.1,297.4c2.3,0,4.2-1.9,4.2-4.2c0-2.3-1.9-4.2-4.2-4.2c-2.3,0-4.2,1.9-4.2,4.2C249.9,295.5,251.7,297.4,254.1,297.4z"
		/>
	<path d="M273.6,297c2.1,0,3.8-1.7,3.8-3.8c0-2.1-1.7-3.8-3.8-3.8c-2.1,0-3.8,1.7-3.8,3.8C269.8,295.3,271.5,297,273.6,297z"/>
	<path d="M293.2,296.4c1.8,0,3.3-1.5,3.3-3.3c0-1.8-1.5-3.3-3.3-3.3c-1.8,0-3.3,1.5-3.3,3.3C289.9,295,291.4,296.4,293.2,296.4z"/>
	<path d="M312.7,295.8c1.5,0,2.7-1.2,2.7-2.7c0-1.5-1.2-2.7-2.7-2.7c-1.5,0-2.7,1.2-2.7,2.7C310,294.6,311.2,295.8,312.7,295.8z"/>
	<path d="M332.2,295.3c1.2,0,2.1-0.9,2.1-2.1c0-1.2-0.9-2.1-2.1-2.1c-1.2,0-2.1,0.9-2.1,2.1C330.1,294.3,331.1,295.3,332.2,295.3z"
		/>
	<path d="M351.8,294.7c0.8,0,1.5-0.7,1.5-1.5c0-0.8-0.7-1.5-1.5-1.5s-1.5,0.7-1.5,1.5C350.3,294,350.9,294.7,351.8,294.7z"/>
	<path d="M371.3,294.1c0.5,0,1-0.4,1-1s-0.4-1-1-1s-1,0.4-1,1S370.8,294.1,371.3,294.1z"/>
	<path d="M390.9,293.7c0.3,0,0.5-0.2,0.5-0.5c0-0.3-0.2-0.5-0.5-0.5s-0.5,0.2-0.5,0.5C390.3,293.5,390.6,293.7,390.9,293.7z"/>
	<circle cx="410.4" cy="293.2" r="0.2"/>
	<circle cx="39.1" cy="312.7" r="0.3"/>
	<circle cx="58.7" cy="312.7" r="0.7"/>
	<circle cx="78.2" cy="312.7" r="1.1"/>
	<path d="M97.8,314.4c0.9,0,1.7-0.8,1.7-1.7c0-0.9-0.8-1.7-1.7-1.7c-0.9,0-1.7,0.8-1.7,1.7C96.1,313.6,96.8,314.4,97.8,314.4z"/>
	<circle cx="117.3" cy="312.7" r="2.2"/>
	<path d="M136.8,315.4c1.5,0,2.7-1.2,2.7-2.7c0-1.5-1.2-2.7-2.7-2.7c-1.5,0-2.7,1.2-2.7,2.7C134.2,314.2,135.4,315.4,136.8,315.4z"
		/>
	<path d="M156.4,315.8c1.7,0,3.1-1.4,3.1-3.1c0-1.7-1.4-3.1-3.1-3.1c-1.7,0-3.1,1.4-3.1,3.1C153.3,314.4,154.7,315.8,156.4,315.8z"
		/>
	<path d="M175.9,316.2c1.9,0,3.5-1.6,3.5-3.5c0-1.9-1.6-3.5-3.5-3.5s-3.5,1.6-3.5,3.5C172.5,314.6,174,316.2,175.9,316.2z"/>
	<path d="M195.5,316.4c2,0,3.7-1.6,3.7-3.7s-1.6-3.7-3.7-3.7c-2,0-3.7,1.6-3.7,3.7S193.4,316.4,195.5,316.4z"/>
	<circle cx="215" cy="312.7" r="3.7"/>
	<path d="M234.5,316.4c2,0,3.7-1.6,3.7-3.7s-1.6-3.7-3.7-3.7c-2,0-3.7,1.6-3.7,3.7S232.5,316.4,234.5,316.4z"/>
	<path d="M254.1,316.2c1.9,0,3.5-1.6,3.5-3.5c0-1.9-1.6-3.5-3.5-3.5s-3.5,1.6-3.5,3.5C250.6,314.6,252.2,316.2,254.1,316.2z"/>
	<path d="M273.6,315.8c1.7,0,3.1-1.4,3.1-3.1c0-1.7-1.4-3.1-3.1-3.1c-1.7,0-3.1,1.4-3.1,3.1C270.5,314.4,271.9,315.8,273.6,315.8z"
		/>
	<path d="M293.2,315.4c1.5,0,2.7-1.2,2.7-2.7c0-1.5-1.2-2.7-2.7-2.7c-1.5,0-2.7,1.2-2.7,2.7C290.5,314.2,291.7,315.4,293.2,315.4z"
		/>
	<path d="M312.7,314.9c1.2,0,2.2-1,2.2-2.2c0-1.2-1-2.2-2.2-2.2c-1.2,0-2.2,1-2.2,2.2C310.5,313.9,311.5,314.9,312.7,314.9z"/>
	<path d="M332.2,314.4c0.9,0,1.7-0.8,1.7-1.7c0-0.9-0.8-1.7-1.7-1.7c-0.9,0-1.7,0.8-1.7,1.7C330.6,313.6,331.3,314.4,332.2,314.4z"
		/>
	<path d="M351.8,313.9c0.7,0,1.2-0.5,1.2-1.2c0-0.7-0.5-1.2-1.2-1.2c-0.7,0-1.2,0.5-1.2,1.2C350.6,313.4,351.1,313.9,351.8,313.9z"
		/>
	<circle cx="371.3" cy="312.7" r="0.7"/>
	<path d="M390.9,313c0.2,0,0.3-0.1,0.3-0.3s-0.1-0.3-0.3-0.3c-0.2,0-0.3,0.1-0.3,0.3S390.7,313,390.9,313z"/>
	<path d="M410.4,312.8C410.4,312.8,410.5,312.7,410.4,312.8c0.1-0.1,0-0.1,0-0.1S410.4,312.7,410.4,312.8
		C410.4,312.7,410.4,312.8,410.4,312.8z"/>
	<path d="M39.1,332.4c0.1,0,0.1,0,0.1-0.1c0-0.1,0-0.1-0.1-0.1c-0.1,0-0.1,0-0.1,0.1C39,332.3,39.1,332.4,39.1,332.4z"/>
	<circle cx="58.7" cy="332.2" r="0.4"/>
	<path d="M78.2,333.1c0.4,0,0.8-0.4,0.8-0.8c0-0.4-0.4-0.8-0.8-0.8c-0.4,0-0.8,0.4-0.8,0.8C77.4,332.7,77.8,333.1,78.2,333.1z"/>
	<path d="M97.8,333.5c0.7,0,1.2-0.6,1.2-1.2c0-0.7-0.6-1.2-1.2-1.2c-0.7,0-1.2,0.6-1.2,1.2C96.5,332.9,97.1,333.5,97.8,333.5z"/>
	<path d="M117.3,333.9c0.9,0,1.7-0.8,1.7-1.7c0-0.9-0.8-1.7-1.7-1.7c-0.9,0-1.7,0.8-1.7,1.7C115.6,333.2,116.4,333.9,117.3,333.9z"
		/>
	<path d="M136.8,334.3c1.1,0,2.1-0.9,2.1-2.1c0-1.1-0.9-2.1-2.1-2.1c-1.1,0-2.1,0.9-2.1,2.1C134.8,333.4,135.7,334.3,136.8,334.3z"
		/>
	<circle cx="156.4" cy="332.2" r="2.4"/>
	<circle cx="175.9" cy="332.2" r="2.7"/>
	<circle cx="195.5" cy="332.2" r="2.9"/>
	<path d="M215,335.2c1.6,0,3-1.3,3-3s-1.3-3-3-3s-3,1.3-3,3S213.4,335.2,215,335.2z"/>
	<path d="M234.5,335.2c1.6,0,2.9-1.3,2.9-2.9s-1.3-2.9-2.9-2.9s-2.9,1.3-2.9,2.9S232.9,335.2,234.5,335.2z"/>
	<path d="M254.1,335c1.5,0,2.8-1.2,2.8-2.8s-1.2-2.8-2.8-2.8c-1.5,0-2.8,1.2-2.8,2.8S252.6,335,254.1,335z"/>
	<circle cx="273.6" cy="332.2" r="2.4"/>
	<path d="M293.2,334.4c1.2,0,2.1-0.9,2.1-2.1c0-1.2-0.9-2.1-2.1-2.1c-1.2,0-2.1,0.9-2.1,2.1C291,333.4,292,334.4,293.2,334.4z"/>
	<path d="M312.7,333.9c0.9,0,1.7-0.8,1.7-1.7c0-0.9-0.8-1.7-1.7-1.7c-0.9,0-1.7,0.8-1.7,1.7C311,333.2,311.8,333.9,312.7,333.9z"/>
	<path d="M332.2,333.5c0.7,0,1.2-0.6,1.2-1.2c0-0.7-0.6-1.2-1.2-1.2c-0.7,0-1.2,0.6-1.2,1.2C331,332.9,331.6,333.5,332.2,333.5z"/>
	<path d="M351.8,333.1c0.4,0,0.8-0.4,0.8-0.8c0-0.4-0.4-0.8-0.8-0.8c-0.4,0-0.8,0.4-0.8,0.8C351,332.7,351.3,333.1,351.8,333.1z"/>
	<circle cx="371.3" cy="332.2" r="0.4"/>
	<path d="M390.9,332.4c0.1,0,0.1,0,0.1-0.1c0-0.1,0-0.1-0.1-0.1c-0.1,0-0.1,0-0.1,0.1C390.8,332.3,390.8,332.4,390.9,332.4z"/>
	<circle cx="58.7" cy="351.8" r="0.2"/>
	<path d="M78.2,352.3c0.3,0,0.5-0.2,0.5-0.5c0-0.3-0.2-0.5-0.5-0.5s-0.5,0.2-0.5,0.5C77.7,352.1,77.9,352.3,78.2,352.3z"/>
	<path d="M97.8,352.6c0.4,0,0.8-0.4,0.8-0.8s-0.4-0.8-0.8-0.8c-0.4,0-0.8,0.4-0.8,0.8S97.3,352.6,97.8,352.6z"/>
	<path d="M117.3,353c0.7,0,1.2-0.5,1.2-1.2c0-0.7-0.5-1.2-1.2-1.2c-0.7,0-1.2,0.5-1.2,1.2C116.1,352.4,116.6,353,117.3,353z"/>
	<path d="M136.8,353.3c0.8,0,1.5-0.7,1.5-1.5s-0.7-1.5-1.5-1.5s-1.5,0.7-1.5,1.5S136,353.3,136.8,353.3z"/>
	<path d="M156.4,353.6c1,0,1.8-0.8,1.8-1.8s-0.8-1.8-1.8-1.8c-1,0-1.8,0.8-1.8,1.8S155.4,353.6,156.4,353.6z"/>
	<circle cx="175.9" cy="351.8" r="2"/>
	<circle cx="195.5" cy="351.8" r="2.2"/>
	<path d="M215,354c1.2,0,2.2-1,2.2-2.2c0-1.2-1-2.2-2.2-2.2c-1.2,0-2.2,1-2.2,2.2C212.8,353,213.8,354,215,354z"/>
	<circle cx="234.5" cy="351.8" r="2.2"/>
	<path d="M254.1,353.8c1.1,0,2.1-0.9,2.1-2.1s-0.9-2.1-2.1-2.1c-1.1,0-2.1,0.9-2.1,2.1S252.9,353.8,254.1,353.8z"/>
	<circle cx="273.6" cy="351.8" r="1.8"/>
	<path d="M293.2,353.3c0.8,0,1.5-0.7,1.5-1.5s-0.7-1.5-1.5-1.5c-0.8,0-1.5,0.7-1.5,1.5S292.3,353.3,293.2,353.3z"/>
	<path d="M312.7,353c0.7,0,1.2-0.5,1.2-1.2c0-0.7-0.5-1.2-1.2-1.2c-0.7,0-1.2,0.5-1.2,1.2C311.5,352.4,312,353,312.7,353z"/>
	<path d="M332.2,352.6c0.4,0,0.8-0.4,0.8-0.8s-0.4-0.8-0.8-0.8c-0.4,0-0.8,0.4-0.8,0.8S331.8,352.6,332.2,352.6z"/>
	<path d="M351.8,352.3c0.3,0,0.5-0.2,0.5-0.5c0-0.3-0.2-0.5-0.5-0.5c-0.3,0-0.5,0.2-0.5,0.5C351.3,352.1,351.5,352.3,351.8,352.3z"
		/>
	<circle cx="371.3" cy="351.8" r="0.2"/>
	<circle cx="78.2" cy="371.3" r="0.2"/>
	<circle cx="97.8" cy="371.3" r="0.4"/>
	<circle cx="117.3" cy="371.3" r="0.7"/>
	<path d="M136.8,372.3c0.5,0,1-0.4,1-1s-0.4-1-1-1s-1,0.4-1,1S136.3,372.3,136.8,372.3z"/>
	<path d="M156.4,372.5c0.7,0,1.2-0.5,1.2-1.2c0-0.7-0.5-1.2-1.2-1.2c-0.7,0-1.2,0.5-1.2,1.2C155.2,372,155.7,372.5,156.4,372.5z"/>
	<circle cx="175.9" cy="371.3" r="1.4"/>
	<path d="M195.5,372.8c0.8,0,1.5-0.7,1.5-1.5s-0.7-1.5-1.5-1.5c-0.8,0-1.5,0.7-1.5,1.5S194.6,372.8,195.5,372.8z"/>
	<circle cx="215" cy="371.3" r="1.6"/>
	<path d="M234.5,372.8c0.8,0,1.5-0.7,1.5-1.5s-0.7-1.5-1.5-1.5s-1.5,0.7-1.5,1.5S233.7,372.8,234.5,372.8z"/>
	<circle cx="254.1" cy="371.3" r="1.4"/>
	<path d="M273.6,372.6c0.7,0,1.2-0.6,1.2-1.2s-0.6-1.2-1.2-1.2c-0.7,0-1.2,0.6-1.2,1.2S272.9,372.6,273.6,372.6z"/>
	<path d="M293.2,372.3c0.5,0,1-0.4,1-1s-0.4-1-1-1s-1,0.4-1,1S292.6,372.3,293.2,372.3z"/>
	<circle cx="312.7" cy="371.3" r="0.7"/>
	<circle cx="332.2" cy="371.3" r="0.4"/>
	<circle cx="351.8" cy="371.3" r="0.2"/>
	<path d="M97.8,391c0.1,0,0.1,0,0.1-0.1s0-0.1-0.1-0.1c-0.1,0-0.1,0-0.1,0.1S97.7,391,97.8,391z"/>
	<circle cx="117.3" cy="390.9" r="0.3"/>
	<path d="M136.8,391.4c0.3,0,0.5-0.2,0.5-0.5c0-0.3-0.2-0.5-0.5-0.5s-0.5,0.2-0.5,0.5C136.4,391.1,136.6,391.4,136.8,391.4z"/>
	<path d="M156.4,391.5c0.4,0,0.7-0.3,0.7-0.7s-0.3-0.7-0.7-0.7c-0.4,0-0.7,0.3-0.7,0.7S156,391.5,156.4,391.5z"/>
	<path d="M175.9,391.7c0.4,0,0.8-0.4,0.8-0.8s-0.4-0.8-0.8-0.8c-0.4,0-0.8,0.4-0.8,0.8S175.5,391.7,175.9,391.7z"/>
	<path d="M195.5,391.8c0.5,0,0.9-0.4,0.9-0.9s-0.4-0.9-0.9-0.9c-0.5,0-0.9,0.4-0.9,0.9S195,391.8,195.5,391.8z"/>
	<path d="M215,391.8c0.5,0,0.9-0.4,0.9-0.9s-0.4-0.9-0.9-0.9c-0.5,0-0.9,0.4-0.9,0.9S214.5,391.8,215,391.8z"/>
	<path d="M234.5,391.8c0.5,0,0.9-0.4,0.9-0.9s-0.4-0.9-0.9-0.9c-0.5,0-0.9,0.4-0.9,0.9S234,391.8,234.5,391.8z"/>
	<path d="M254.1,391.7c0.4,0,0.8-0.4,0.8-0.8s-0.4-0.8-0.8-0.8c-0.4,0-0.8,0.4-0.8,0.8S253.6,391.7,254.1,391.7z"/>
	<circle cx="273.6" cy="390.9" r="0.7"/>
	<path d="M293.2,391.4c0.3,0,0.5-0.2,0.5-0.5s-0.2-0.5-0.5-0.5c-0.3,0-0.5,0.2-0.5,0.5S292.9,391.4,293.2,391.4z"/>
	<path d="M312.7,391.2c0.2,0,0.3-0.1,0.3-0.3s-0.1-0.3-0.3-0.3c-0.2,0-0.3,0.1-0.3,0.3S312.5,391.2,312.7,391.2z"/>
	<path d="M332.2,391c0.1,0,0.1,0,0.1-0.1s0-0.1-0.1-0.1c-0.1,0-0.1,0-0.1,0.1S332.2,391,332.2,391z"/>
	<path d="M117.3,410.5C117.3,410.5,117.4,410.4,117.3,410.5c0.1-0.1,0-0.1,0-0.1S117.2,410.4,117.3,410.5
		C117.2,410.4,117.3,410.5,117.3,410.5z"/>
	<path d="M136.8,410.5c0.1,0,0.1,0,0.1-0.1c0-0.1,0-0.1-0.1-0.1c-0.1,0-0.1,0-0.1,0.1C136.7,410.5,136.8,410.5,136.8,410.5z"/>
	<circle cx="156.4" cy="410.4" r="0.3"/>
	<path d="M175.9,410.7c0.2,0,0.3-0.1,0.3-0.3s-0.1-0.3-0.3-0.3c-0.2,0-0.3,0.1-0.3,0.3S175.7,410.7,175.9,410.7z"/>
	<path d="M195.5,410.8c0.2,0,0.4-0.2,0.4-0.4s-0.2-0.4-0.4-0.4c-0.2,0-0.4,0.2-0.4,0.4S195.2,410.8,195.5,410.8z"/>
	<circle cx="215" cy="410.4" r="0.4"/>
	<circle cx="234.5" cy="410.4" r="0.4"/>
	<path d="M254.1,410.7c0.2,0,0.3-0.1,0.3-0.3s-0.1-0.3-0.3-0.3c-0.2,0-0.3,0.1-0.3,0.3S253.9,410.7,254.1,410.7z"/>
	<circle cx="273.6" cy="410.4" r="0.3"/>
	<circle cx="293.2" cy="410.4" r="0.2"/>
	<path d="M312.7,410.5C312.7,410.5,312.8,410.4,312.7,410.5c0.1-0.1,0-0.1,0-0.1S312.6,410.4,312.7,410.5
		C312.6,410.4,312.7,410.5,312.7,410.5z"/>
	<path d="M175.9,430C175.9,430,176,430,175.9,430c0.1-0.1,0-0.1,0-0.1C175.9,429.9,175.9,429.9,175.9,430
		C175.9,430,175.9,430,175.9,430z"/>
	<path d="M195.5,430C195.5,430,195.5,430,195.5,430c0.1-0.1,0-0.1,0-0.1C195.4,429.9,195.4,429.9,195.5,430
		C195.4,430,195.4,430,195.5,430z"/>
	<path d="M215,430C215,430,215.1,430,215,430c0.1-0.1,0-0.1,0-0.1C215,429.9,214.9,429.9,215,430C214.9,430,215,430,215,430z"/>
	<path d="M234.5,430C234.6,430,234.6,430,234.5,430c0.1-0.1,0-0.1,0-0.1C234.5,429.9,234.5,429.9,234.5,430
		C234.5,430,234.5,430,234.5,430z"/>
	<path d="M254.1,430C254.1,430,254.1,430,254.1,430c0.1-0.1,0-0.1,0-0.1S254,429.9,254.1,430C254,430,254.1,430,254.1,430z"/>
</g>
</svg>
