<?xml version="1.0" encoding="utf-8"?>
<!-- Generator: Adobe Illustrator 24.0.1, SVG Export Plug-In . SVG Version: 6.00 Build 0)  -->
<svg version="1.1" id="Layer_1" xmlns="http://www.w3.org/2000/svg" xmlns:xlink="http://www.w3.org/1999/xlink" x="0px" y="0px"
	 viewBox="0 0 297.7 297.7" style="enable-background:new 0 0 297.7 297.7;" xml:space="preserve">
<g>
	<circle cx="4.6" cy="4.6" r="3.1"/>
	<path d="M24.1,8.2c2,0,3.7-1.6,3.7-3.7s-1.6-3.7-3.7-3.7c-2,0-3.7,1.6-3.7,3.7S22.1,8.2,24.1,8.2z"/>
	<path d="M43.6,8.7c2.3,0,4.1-1.8,4.1-4.1c0-2.3-1.8-4.1-4.1-4.1c-2.3,0-4.1,1.8-4.1,4.1C39.5,6.8,41.4,8.7,43.6,8.7z"/>
	<path d="M63.2,8.9c2.4,0,4.4-2,4.4-4.4s-2-4.4-4.4-4.4s-4.4,2-4.4,4.4S60.7,8.9,63.2,8.9z"/>
	<path d="M82.7,9.1c2.5,0,4.6-2,4.6-4.6S85.2,0,82.7,0c-2.5,0-4.6,2-4.6,4.6S80.2,9.1,82.7,9.1z"/>
	<circle cx="102.3" cy="4.6" r="4.4"/>
	<path d="M121.8,8.7c2.3,0,4.1-1.8,4.1-4.1c0-2.3-1.8-4.1-4.1-4.1c-2.3,0-4.1,1.8-4.1,4.1C117.7,6.8,119.5,8.7,121.8,8.7z"/>
	<circle cx="141.3" cy="4.6" r="3.7"/>
	<path d="M160.9,7.7c1.8,0,3.2-1.4,3.2-3.2s-1.4-3.2-3.2-3.2c-1.8,0-3.2,1.4-3.2,3.2S159.1,7.7,160.9,7.7z"/>
	<path d="M180.4,7.2c1.5,0,2.7-1.2,2.7-2.7c0-1.5-1.2-2.7-2.7-2.7c-1.5,0-2.7,1.2-2.7,2.7C177.8,6,178.9,7.2,180.4,7.2z"/>
	<path d="M200,6.6c1.1,0,2.1-0.9,2.1-2.1s-0.9-2.1-2.1-2.1c-1.1,0-2.1,0.9-2.1,2.1S198.8,6.6,200,6.6z"/>
	<path d="M219.5,6.1c0.8,0,1.5-0.7,1.5-1.5S220.3,3,219.5,3S218,3.7,218,4.6S218.7,6.1,219.5,6.1z"/>
	<path d="M239,5.5c0.5,0,1-0.4,1-1s-0.4-1-1-1s-1,0.4-1,1S238.5,5.5,239,5.5z"/>
	<path d="M258.6,5c0.3,0,0.5-0.2,0.5-0.5c0-0.3-0.2-0.5-0.5-0.5c-0.3,0-0.5,0.2-0.5,0.5C258.1,4.8,258.3,5,258.6,5z"/>
	<path d="M278.1,4.7c0.1,0,0.1,0,0.1-0.1s0-0.1-0.1-0.1c-0.1,0-0.1,0-0.1,0.1S278.1,4.7,278.1,4.7z"/>
	<path d="M4.6,27.8c2,0,3.7-1.6,3.7-3.7s-1.6-3.7-3.7-3.7c-2,0-3.7,1.6-3.7,3.7S2.5,27.8,4.6,27.8z"/>
	<path d="M24.1,28.4c2.4,0,4.3-1.9,4.3-4.3s-1.9-4.3-4.3-4.3s-4.3,1.9-4.3,4.3S21.7,28.4,24.1,28.4z"/>
	<circle cx="43.6" cy="24.1" r="4.9"/>
	<path d="M63.2,29.3c2.9,0,5.3-2.4,5.3-5.3s-2.4-5.3-5.3-5.3c-2.9,0-5.3,2.4-5.3,5.3S60.3,29.3,63.2,29.3z"/>
	<path d="M82.7,29.5c3,0,5.4-2.4,5.4-5.4s-2.4-5.4-5.4-5.4c-3,0-5.4,2.4-5.4,5.4S79.7,29.5,82.7,29.5z"/>
	<path d="M102.3,29.3c2.9,0,5.3-2.4,5.3-5.3s-2.4-5.3-5.3-5.3c-2.9,0-5.3,2.4-5.3,5.3S99.4,29.3,102.3,29.3z"/>
	<circle cx="121.8" cy="24.1" r="4.9"/>
	<path d="M141.3,28.4c2.4,0,4.3-1.9,4.3-4.3s-1.9-4.3-4.3-4.3s-4.3,1.9-4.3,4.3S138.9,28.4,141.3,28.4z"/>
	<circle cx="160.9" cy="24.1" r="3.7"/>
	<path d="M180.4,27.2c1.7,0,3.1-1.4,3.1-3.1c0-1.7-1.4-3.1-3.1-3.1c-1.7,0-3.1,1.4-3.1,3.1C177.3,25.8,178.7,27.2,180.4,27.2z"/>
	<circle cx="200" cy="24.1" r="2.4"/>
	<path d="M219.5,25.9c1,0,1.8-0.8,1.8-1.8s-0.8-1.8-1.8-1.8c-1,0-1.8,0.8-1.8,1.8S218.5,25.9,219.5,25.9z"/>
	<path d="M239,25.3c0.7,0,1.2-0.5,1.2-1.2c0-0.7-0.5-1.2-1.2-1.2c-0.7,0-1.2,0.5-1.2,1.2C237.8,24.8,238.4,25.3,239,25.3z"/>
	<path d="M258.6,24.7c0.4,0,0.7-0.3,0.7-0.7s-0.3-0.7-0.7-0.7c-0.4,0-0.7,0.3-0.7,0.7S258.2,24.7,258.6,24.7z"/>
	<circle cx="278.1" cy="24.1" r="0.3"/>
	<path d="M4.6,47.8c2.3,0,4.1-1.8,4.1-4.1c0-2.3-1.8-4.1-4.1-4.1c-2.3,0-4.1,1.8-4.1,4.1C0.4,45.9,2.3,47.8,4.6,47.8z"/>
	<circle cx="24.1" cy="43.6" r="4.9"/>
	<path d="M43.6,49.2c3.1,0,5.5-2.5,5.5-5.5s-2.5-5.5-5.5-5.5c-3.1,0-5.5,2.5-5.5,5.5S40.6,49.2,43.6,49.2z"/>
	<path d="M63.2,49.7c3.4,0,6.1-2.7,6.1-6.1c0-3.4-2.7-6.1-6.1-6.1c-3.4,0-6.1,2.7-6.1,6.1C57.1,47,59.8,49.7,63.2,49.7z"/>
	<circle cx="82.7" cy="43.6" r="6.3"/>
	<path d="M102.3,49.8c3.4,0,6.1-2.7,6.1-6.1s-2.7-6.1-6.1-6.1c-3.4,0-6.1,2.7-6.1,6.1S98.9,49.8,102.3,49.8z"/>
	<circle cx="121.8" cy="43.6" r="5.6"/>
	<path d="M141.3,48.6c2.7,0,4.9-2.2,4.9-4.9s-2.2-4.9-4.9-4.9c-2.7,0-4.9,2.2-4.9,4.9S138.6,48.6,141.3,48.6z"/>
	<circle cx="160.9" cy="43.6" r="4.2"/>
	<path d="M180.4,47.1c1.9,0,3.5-1.6,3.5-3.5c0-1.9-1.6-3.5-3.5-3.5c-1.9,0-3.5,1.6-3.5,3.5C176.9,45.5,178.5,47.1,180.4,47.1z"/>
	<circle cx="200" cy="43.6" r="2.7"/>
	<circle cx="219.5" cy="43.6" r="2"/>
	<circle cx="239" cy="43.6" r="1.4"/>
	<path d="M258.6,44.4c0.4,0,0.8-0.4,0.8-0.8s-0.4-0.8-0.8-0.8c-0.4,0-0.8,0.4-0.8,0.8S258.1,44.4,258.6,44.4z"/>
	<path d="M278.1,44c0.2,0,0.3-0.1,0.3-0.3s-0.1-0.3-0.3-0.3c-0.2,0-0.3,0.1-0.3,0.3S277.9,44,278.1,44z"/>
	<path d="M297.7,43.7C297.7,43.7,297.7,43.7,297.7,43.7c0.1-0.1,0-0.1,0-0.1C297.6,43.6,297.6,43.6,297.7,43.7
		C297.6,43.7,297.6,43.7,297.7,43.7z"/>
	<path d="M4.6,67.6c2.4,0,4.4-2,4.4-4.4s-2-4.4-4.4-4.4s-4.4,2-4.4,4.4S2.1,67.6,4.6,67.6z"/>
	<path d="M24.1,68.4c2.9,0,5.3-2.4,5.3-5.3s-2.4-5.3-5.3-5.3s-5.3,2.4-5.3,5.3S21.2,68.4,24.1,68.4z"/>
	<path d="M43.6,69.2c3.4,0,6.1-2.7,6.1-6.1c0-3.4-2.7-6.1-6.1-6.1c-3.4,0-6.1,2.7-6.1,6.1C37.6,66.5,40.3,69.2,43.6,69.2z"/>
	<path d="M63.2,70c3.8,0,6.8-3.1,6.8-6.8c0-3.8-3.1-6.8-6.8-6.8c-3.8,0-6.8,3.1-6.8,6.8C56.3,66.9,59.4,70,63.2,70z"/>
	<path d="M82.7,70.4c4,0,7.2-3.2,7.2-7.2S86.7,56,82.7,56s-7.2,3.2-7.2,7.2S78.7,70.4,82.7,70.4z"/>
	<circle cx="102.3" cy="63.2" r="6.9"/>
	<path d="M121.8,69.3c3.4,0,6.1-2.7,6.1-6.1s-2.7-6.1-6.1-6.1c-3.4,0-6.1,2.7-6.1,6.1S118.4,69.3,121.8,69.3z"/>
	<circle cx="141.3" cy="63.2" r="5.3"/>
	<path d="M160.9,67.7c2.5,0,4.5-2,4.5-4.5c0-2.5-2-4.5-4.5-4.5c-2.5,0-4.5,2-4.5,4.5C156.4,65.7,158.4,67.7,160.9,67.7z"/>
	<path d="M180.4,66.9c2,0,3.7-1.6,3.7-3.7c0-2-1.6-3.7-3.7-3.7c-2,0-3.7,1.6-3.7,3.7C176.7,65.2,178.4,66.9,180.4,66.9z"/>
	<circle cx="200" cy="63.2" r="2.9"/>
	<circle cx="219.5" cy="63.2" r="2.2"/>
	<path d="M239,64.7c0.8,0,1.5-0.7,1.5-1.5s-0.7-1.5-1.5-1.5s-1.5,0.7-1.5,1.5S238.2,64.7,239,64.7z"/>
	<path d="M258.6,64.1c0.5,0,0.9-0.4,0.9-0.9s-0.4-0.9-0.9-0.9c-0.5,0-0.9,0.4-0.9,0.9S258.1,64.1,258.6,64.1z"/>
	<circle cx="278.1" cy="63.2" r="0.4"/>
	<path d="M297.7,63.2C297.7,63.2,297.7,63.2,297.7,63.2c0.1-0.1,0-0.1,0-0.1C297.6,63.1,297.6,63.1,297.7,63.2
		C297.6,63.2,297.6,63.2,297.7,63.2z"/>
	<path d="M4.6,87.3c2.5,0,4.6-2,4.6-4.6c0-2.5-2-4.6-4.6-4.6c-2.5,0-4.6,2-4.6,4.6C0,85.2,2,87.3,4.6,87.3z"/>
	<path d="M24.1,88.1c3,0,5.4-2.4,5.4-5.4s-2.4-5.4-5.4-5.4c-3,0-5.4,2.4-5.4,5.4S21.1,88.1,24.1,88.1z"/>
	<circle cx="43.6" cy="82.7" r="6.3"/>
	<path d="M63.2,89.9c4,0,7.2-3.2,7.2-7.2s-3.2-7.2-7.2-7.2S56,78.7,56,82.7S59.2,89.9,63.2,89.9z"/>
	<path d="M82.7,90.6c4.4,0,7.9-3.5,7.9-7.9s-3.5-7.9-7.9-7.9c-4.4,0-7.9,3.5-7.9,7.9S78.3,90.6,82.7,90.6z"/>
	<circle cx="102.3" cy="82.7" r="7.3"/>
	<path d="M121.8,89.1c3.5,0,6.4-2.9,6.4-6.4c0-3.5-2.9-6.4-6.4-6.4c-3.5,0-6.4,2.9-6.4,6.4C115.4,86.2,118.3,89.1,121.8,89.1z"/>
	<path d="M141.3,88.2c3,0,5.5-2.5,5.5-5.5c0-3-2.5-5.5-5.5-5.5c-3,0-5.5,2.5-5.5,5.5C135.9,85.7,138.3,88.2,141.3,88.2z"/>
	<circle cx="160.9" cy="82.7" r="4.6"/>
	<circle cx="180.4" cy="82.7" r="3.7"/>
	<path d="M200,85.7c1.6,0,3-1.3,3-3c0-1.6-1.3-3-3-3c-1.6,0-3,1.3-3,3C197,84.4,198.3,85.7,200,85.7z"/>
	<path d="M219.5,84.9c1.2,0,2.2-1,2.2-2.2c0-1.2-1-2.2-2.2-2.2c-1.2,0-2.2,1-2.2,2.2C217.3,83.9,218.3,84.9,219.5,84.9z"/>
	<circle cx="239" cy="82.7" r="1.6"/>
	<path d="M258.6,83.6c0.5,0,0.9-0.4,0.9-0.9s-0.4-0.9-0.9-0.9c-0.5,0-0.9,0.4-0.9,0.9S258.1,83.6,258.6,83.6z"/>
	<circle cx="278.1" cy="82.7" r="0.4"/>
	<path d="M297.7,82.8C297.7,82.8,297.7,82.7,297.7,82.8c0.1-0.1,0-0.1,0-0.1C297.6,82.7,297.6,82.7,297.7,82.8
		C297.6,82.7,297.6,82.8,297.7,82.8z"/>
	<circle cx="4.6" cy="102.3" r="4.4"/>
	<path d="M24.1,107.5c2.9,0,5.3-2.4,5.3-5.3S27,97,24.1,97s-5.3,2.4-5.3,5.3S21.2,107.5,24.1,107.5z"/>
	<path d="M43.6,108.4c3.4,0,6.1-2.7,6.1-6.1s-2.7-6.1-6.1-6.1c-3.4,0-6.1,2.7-6.1,6.1S40.3,108.4,43.6,108.4z"/>
	<circle cx="63.2" cy="102.3" r="6.9"/>
	<circle cx="82.7" cy="102.3" r="7.3"/>
	<path d="M102.3,109.2c3.8,0,6.9-3.1,6.9-6.9s-3.1-6.9-6.9-6.9c-3.8,0-6.9,3.1-6.9,6.9S98.4,109.2,102.3,109.2z"/>
	<circle cx="121.8" cy="102.3" r="6.2"/>
	<path d="M141.3,107.6c3,0,5.4-2.4,5.4-5.4s-2.4-5.4-5.4-5.4c-3,0-5.4,2.4-5.4,5.4S138.4,107.6,141.3,107.6z"/>
	<path d="M160.9,106.8c2.5,0,4.5-2,4.5-4.5s-2-4.5-4.5-4.5c-2.5,0-4.5,2-4.5,4.5S158.4,106.8,160.9,106.8z"/>
	<path d="M180.4,105.9c2,0,3.7-1.6,3.7-3.7s-1.6-3.7-3.7-3.7c-2,0-3.7,1.6-3.7,3.7S178.4,105.9,180.4,105.9z"/>
	<path d="M200,105.2c1.6,0,2.9-1.3,2.9-2.9s-1.3-2.9-2.9-2.9c-1.6,0-2.9,1.3-2.9,2.9S198.3,105.2,200,105.2z"/>
	<circle cx="219.5" cy="102.3" r="2.2"/>
	<path d="M239,103.8c0.8,0,1.5-0.7,1.5-1.5s-0.7-1.5-1.5-1.5s-1.5,0.7-1.5,1.5S238.2,103.8,239,103.8z"/>
	<path d="M258.6,103.2c0.5,0,0.9-0.4,0.9-0.9s-0.4-0.9-0.9-0.9c-0.5,0-0.9,0.4-0.9,0.9S258.1,103.2,258.6,103.2z"/>
	<circle cx="278.1" cy="102.3" r="0.4"/>
	<path d="M297.7,102.3C297.7,102.3,297.7,102.3,297.7,102.3c0.1-0.1,0-0.1,0-0.1C297.6,102.2,297.6,102.2,297.7,102.3
		C297.6,102.3,297.6,102.3,297.7,102.3z"/>
	<path d="M4.6,125.9c2.3,0,4.1-1.8,4.1-4.1c0-2.3-1.8-4.1-4.1-4.1c-2.3,0-4.1,1.8-4.1,4.1C0.4,124.1,2.3,125.9,4.6,125.9z"/>
	<circle cx="24.1" cy="121.8" r="4.9"/>
	<circle cx="43.6" cy="121.8" r="5.6"/>
	<path d="M63.2,127.9c3.4,0,6.1-2.7,6.1-6.1c0-3.4-2.7-6.1-6.1-6.1c-3.4,0-6.1,2.7-6.1,6.1C57.1,125.2,59.8,127.9,63.2,127.9z"/>
	<path d="M82.7,128.2c3.5,0,6.4-2.9,6.4-6.4c0-3.5-2.9-6.4-6.4-6.4c-3.5,0-6.4,2.9-6.4,6.4C76.3,125.3,79.2,128.2,82.7,128.2z"/>
	<circle cx="102.3" cy="121.8" r="6.2"/>
	<path d="M121.8,127.4c3.1,0,5.6-2.5,5.6-5.6c0-3.1-2.5-5.6-5.6-5.6c-3.1,0-5.6,2.5-5.6,5.6C116.2,124.9,118.7,127.4,121.8,127.4z"
		/>
	<path d="M141.3,126.7c2.7,0,4.9-2.2,4.9-4.9s-2.2-4.9-4.9-4.9c-2.7,0-4.9,2.2-4.9,4.9S138.6,126.7,141.3,126.7z"/>
	<path d="M160.9,126c2.3,0,4.2-1.9,4.2-4.2c0-2.3-1.9-4.2-4.2-4.2c-2.3,0-4.2,1.9-4.2,4.2C156.6,124.1,158.5,126,160.9,126z"/>
	<path d="M180.4,125.3c1.9,0,3.5-1.6,3.5-3.5c0-1.9-1.6-3.5-3.5-3.5c-1.9,0-3.5,1.6-3.5,3.5C176.9,123.7,178.5,125.3,180.4,125.3z"
		/>
	<path d="M200,124.6c1.5,0,2.8-1.2,2.8-2.8s-1.2-2.8-2.8-2.8c-1.5,0-2.8,1.2-2.8,2.8S198.4,124.6,200,124.6z"/>
	<path d="M219.5,123.9c1.1,0,2.1-0.9,2.1-2.1c0-1.1-0.9-2.1-2.1-2.1c-1.1,0-2.1,0.9-2.1,2.1C217.4,122.9,218.4,123.9,219.5,123.9z"
		/>
	<circle cx="239" cy="121.8" r="1.4"/>
	<path d="M258.6,122.6c0.4,0,0.8-0.4,0.8-0.8c0-0.4-0.4-0.8-0.8-0.8c-0.4,0-0.8,0.4-0.8,0.8C257.8,122.2,258.1,122.6,258.6,122.6z"
		/>
	<path d="M278.1,122.1c0.2,0,0.3-0.1,0.3-0.3c0-0.2-0.1-0.3-0.3-0.3c-0.2,0-0.3,0.1-0.3,0.3C277.8,122,277.9,122.1,278.1,122.1z"/>
	<path d="M297.7,121.8C297.7,121.8,297.7,121.8,297.7,121.8c0.1-0.1,0-0.1,0-0.1C297.6,121.7,297.6,121.8,297.7,121.8
		C297.6,121.8,297.6,121.8,297.7,121.8z"/>
	<circle cx="4.6" cy="141.3" r="3.7"/>
	<path d="M24.1,145.7c2.4,0,4.3-1.9,4.3-4.3s-1.9-4.3-4.3-4.3s-4.3,1.9-4.3,4.3S21.7,145.7,24.1,145.7z"/>
	<path d="M43.6,146.3c2.7,0,4.9-2.2,4.9-4.9s-2.2-4.9-4.9-4.9c-2.7,0-4.9,2.2-4.9,4.9S40.9,146.3,43.6,146.3z"/>
	<circle cx="63.2" cy="141.3" r="5.3"/>
	<path d="M82.7,146.8c3,0,5.5-2.5,5.5-5.5s-2.5-5.5-5.5-5.5c-3,0-5.5,2.5-5.5,5.5S79.7,146.8,82.7,146.8z"/>
	<path d="M102.3,146.7c3,0,5.4-2.4,5.4-5.4c0-3-2.4-5.4-5.4-5.4s-5.4,2.4-5.4,5.4C96.9,144.3,99.3,146.7,102.3,146.7z"/>
	<path d="M121.8,146.3c2.7,0,4.9-2.2,4.9-4.9s-2.2-4.9-4.9-4.9c-2.7,0-4.9,2.2-4.9,4.9S119.1,146.3,121.8,146.3z"/>
	<path d="M141.3,145.7c2.4,0,4.4-2,4.4-4.4c0-2.4-2-4.4-4.4-4.4c-2.4,0-4.4,2-4.4,4.4C136.9,143.8,138.9,145.7,141.3,145.7z"/>
	<path d="M160.9,145.1c2.1,0,3.8-1.7,3.8-3.8s-1.7-3.8-3.8-3.8s-3.8,1.7-3.8,3.8S158.8,145.1,160.9,145.1z"/>
	<path d="M180.4,144.4c1.7,0,3.1-1.4,3.1-3.1s-1.4-3.1-3.1-3.1c-1.7,0-3.1,1.4-3.1,3.1S178.7,144.4,180.4,144.4z"/>
	<circle cx="200" cy="141.3" r="2.4"/>
	<circle cx="219.5" cy="141.3" r="1.8"/>
	<path d="M239,142.6c0.7,0,1.2-0.6,1.2-1.2s-0.6-1.2-1.2-1.2c-0.7,0-1.2,0.6-1.2,1.2S238.3,142.6,239,142.6z"/>
	<circle cx="258.6" cy="141.3" r="0.7"/>
	<circle cx="278.1" cy="141.3" r="0.3"/>
	<path d="M4.6,164.1c1.8,0,3.2-1.4,3.2-3.2s-1.4-3.2-3.2-3.2c-1.8,0-3.2,1.4-3.2,3.2S2.8,164.1,4.6,164.1z"/>
	<circle cx="24.1" cy="160.9" r="3.7"/>
	<circle cx="43.6" cy="160.9" r="4.2"/>
	<path d="M63.2,165.4c2.5,0,4.5-2,4.5-4.5s-2-4.5-4.5-4.5c-2.5,0-4.5,2-4.5,4.5S60.7,165.4,63.2,165.4z"/>
	<circle cx="82.7" cy="160.9" r="4.6"/>
	<path d="M102.3,165.4c2.5,0,4.5-2,4.5-4.5s-2-4.5-4.5-4.5c-2.5,0-4.5,2-4.5,4.5S99.8,165.4,102.3,165.4z"/>
	<path d="M121.8,165.1c2.3,0,4.2-1.9,4.2-4.2s-1.9-4.2-4.2-4.2c-2.3,0-4.2,1.9-4.2,4.2S119.5,165.1,121.8,165.1z"/>
	<path d="M141.3,164.7c2.1,0,3.8-1.7,3.8-3.8s-1.7-3.8-3.8-3.8s-3.8,1.7-3.8,3.8S139.2,164.7,141.3,164.7z"/>
	<path d="M160.9,164.1c1.8,0,3.3-1.5,3.3-3.3c0-1.8-1.5-3.3-3.3-3.3c-1.8,0-3.3,1.5-3.3,3.3C157.6,162.7,159.1,164.1,160.9,164.1z"
		/>
	<path d="M180.4,163.5c1.5,0,2.7-1.2,2.7-2.7c0-1.5-1.2-2.7-2.7-2.7c-1.5,0-2.7,1.2-2.7,2.7C177.8,162.3,178.9,163.5,180.4,163.5z"
		/>
	<path d="M200,163c1.2,0,2.1-0.9,2.1-2.1s-0.9-2.1-2.1-2.1c-1.2,0-2.1,0.9-2.1,2.1S198.8,163,200,163z"/>
	<path d="M219.5,162.4c0.8,0,1.5-0.7,1.5-1.5s-0.7-1.5-1.5-1.5s-1.5,0.7-1.5,1.5S218.7,162.4,219.5,162.4z"/>
	<path d="M239,161.9c0.5,0,1-0.4,1-1s-0.4-1-1-1s-1,0.4-1,1S238.5,161.9,239,161.9z"/>
	<path d="M258.6,161.4c0.3,0,0.5-0.2,0.5-0.5s-0.2-0.5-0.5-0.5c-0.3,0-0.5,0.2-0.5,0.5S258.3,161.4,258.6,161.4z"/>
	<circle cx="278.1" cy="160.9" r="0.2"/>
	<path d="M4.6,183.1c1.5,0,2.7-1.2,2.7-2.7c0-1.5-1.2-2.7-2.7-2.7c-1.5,0-2.7,1.2-2.7,2.7C1.9,181.9,3.1,183.1,4.6,183.1z"/>
	<path d="M24.1,183.5c1.7,0,3.1-1.4,3.1-3.1s-1.4-3.1-3.1-3.1c-1.7,0-3.1,1.4-3.1,3.1S22.4,183.5,24.1,183.5z"/>
	<path d="M43.6,183.9c1.9,0,3.5-1.6,3.5-3.5s-1.6-3.5-3.5-3.5c-1.9,0-3.5,1.6-3.5,3.5S41.7,183.9,43.6,183.9z"/>
	<path d="M63.2,184.1c2,0,3.7-1.6,3.7-3.7s-1.6-3.7-3.7-3.7c-2,0-3.7,1.6-3.7,3.7S61.1,184.1,63.2,184.1z"/>
	<circle cx="82.7" cy="180.4" r="3.7"/>
	<path d="M102.3,184.1c2,0,3.7-1.6,3.7-3.7s-1.6-3.7-3.7-3.7c-2,0-3.7,1.6-3.7,3.7S100.2,184.1,102.3,184.1z"/>
	<path d="M121.8,183.9c1.9,0,3.5-1.6,3.5-3.5s-1.6-3.5-3.5-3.5s-3.5,1.6-3.5,3.5S119.9,183.9,121.8,183.9z"/>
	<path d="M141.3,183.5c1.7,0,3.1-1.4,3.1-3.1s-1.4-3.1-3.1-3.1c-1.7,0-3.1,1.4-3.1,3.1S139.6,183.5,141.3,183.5z"/>
	<path d="M160.9,183.1c1.5,0,2.7-1.2,2.7-2.7c0-1.5-1.2-2.7-2.7-2.7c-1.5,0-2.7,1.2-2.7,2.7C158.2,181.9,159.4,183.1,160.9,183.1z"
		/>
	<path d="M180.4,182.6c1.2,0,2.2-1,2.2-2.2s-1-2.2-2.2-2.2c-1.2,0-2.2,1-2.2,2.2S179.2,182.6,180.4,182.6z"/>
	<path d="M200,182.1c0.9,0,1.7-0.8,1.7-1.7c0-0.9-0.8-1.7-1.7-1.7c-0.9,0-1.7,0.8-1.7,1.7C198.3,181.3,199,182.1,200,182.1z"/>
	<path d="M219.5,181.6c0.7,0,1.2-0.5,1.2-1.2c0-0.7-0.5-1.2-1.2-1.2c-0.7,0-1.2,0.5-1.2,1.2C218.3,181.1,218.8,181.6,219.5,181.6z"
		/>
	<circle cx="239" cy="180.4" r="0.7"/>
	<path d="M258.6,180.7c0.2,0,0.3-0.1,0.3-0.3s-0.1-0.3-0.3-0.3c-0.2,0-0.3,0.1-0.3,0.3S258.4,180.7,258.6,180.7z"/>
	<path d="M278.1,180.5C278.1,180.5,278.2,180.4,278.1,180.5c0.1-0.1,0-0.1,0-0.1C278.1,180.4,278.1,180.4,278.1,180.5
		C278.1,180.4,278.1,180.5,278.1,180.5z"/>
	<path d="M4.6,202c1.1,0,2.1-0.9,2.1-2.1c0-1.1-0.9-2.1-2.1-2.1c-1.1,0-2.1,0.9-2.1,2.1C2.5,201.1,3.4,202,4.6,202z"/>
	<circle cx="24.1" cy="200" r="2.4"/>
	<circle cx="43.6" cy="200" r="2.7"/>
	<circle cx="63.2" cy="200" r="2.9"/>
	<path d="M82.7,202.9c1.6,0,3-1.3,3-3s-1.3-3-3-3c-1.6,0-3,1.3-3,3S81.1,202.9,82.7,202.9z"/>
	<path d="M102.3,202.9c1.6,0,2.9-1.3,2.9-2.9c0-1.6-1.3-2.9-2.9-2.9c-1.6,0-2.9,1.3-2.9,2.9C99.3,201.6,100.6,202.9,102.3,202.9z"/>
	<path d="M121.8,202.7c1.5,0,2.8-1.2,2.8-2.8c0-1.5-1.2-2.8-2.8-2.8c-1.5,0-2.8,1.2-2.8,2.8C119,201.5,120.3,202.7,121.8,202.7z"/>
	<circle cx="141.3" cy="200" r="2.4"/>
	<path d="M160.9,202.1c1.2,0,2.1-0.9,2.1-2.1s-0.9-2.1-2.1-2.1c-1.2,0-2.1,0.9-2.1,2.1S159.7,202.1,160.9,202.1z"/>
	<path d="M180.4,201.6c0.9,0,1.7-0.8,1.7-1.7c0-0.9-0.8-1.7-1.7-1.7c-0.9,0-1.7,0.8-1.7,1.7C178.7,200.9,179.5,201.6,180.4,201.6z"
		/>
	<path d="M200,201.2c0.7,0,1.2-0.6,1.2-1.2c0-0.7-0.6-1.2-1.2-1.2c-0.7,0-1.2,0.6-1.2,1.2C198.7,200.6,199.3,201.2,200,201.2z"/>
	<path d="M219.5,200.8c0.4,0,0.8-0.4,0.8-0.8c0-0.4-0.4-0.8-0.8-0.8c-0.4,0-0.8,0.4-0.8,0.8C218.7,200.4,219,200.8,219.5,200.8z"/>
	<circle cx="239" cy="200" r="0.4"/>
	<path d="M258.6,200.1c0.1,0,0.1,0,0.1-0.1s0-0.1-0.1-0.1c-0.1,0-0.1,0-0.1,0.1S258.5,200.1,258.6,200.1z"/>
	<path d="M4.6,221c0.8,0,1.5-0.7,1.5-1.5c0-0.8-0.7-1.5-1.5-1.5S3,218.7,3,219.5C3,220.3,3.7,221,4.6,221z"/>
	<path d="M24.1,221.3c1,0,1.8-0.8,1.8-1.8c0-1-0.8-1.8-1.8-1.8c-1,0-1.8,0.8-1.8,1.8C22.3,220.5,23.1,221.3,24.1,221.3z"/>
	<circle cx="43.6" cy="219.5" r="2"/>
	<circle cx="63.2" cy="219.5" r="2.2"/>
	<path d="M82.7,221.7c1.2,0,2.2-1,2.2-2.2c0-1.2-1-2.2-2.2-2.2c-1.2,0-2.2,1-2.2,2.2C80.5,220.7,81.5,221.7,82.7,221.7z"/>
	<circle cx="102.3" cy="219.5" r="2.2"/>
	<path d="M121.8,221.6c1.1,0,2.1-0.9,2.1-2.1c0-1.1-0.9-2.1-2.1-2.1c-1.1,0-2.1,0.9-2.1,2.1C119.7,220.6,120.7,221.6,121.8,221.6z"
		/>
	<circle cx="141.3" cy="219.5" r="1.8"/>
	<path d="M160.9,221c0.8,0,1.5-0.7,1.5-1.5c0-0.8-0.7-1.5-1.5-1.5c-0.8,0-1.5,0.7-1.5,1.5C159.4,220.3,160,221,160.9,221z"/>
	<path d="M180.4,220.7c0.7,0,1.2-0.5,1.2-1.2c0-0.7-0.5-1.2-1.2-1.2c-0.7,0-1.2,0.5-1.2,1.2C179.2,220.2,179.8,220.7,180.4,220.7z"
		/>
	<path d="M200,220.3c0.4,0,0.8-0.4,0.8-0.8c0-0.4-0.4-0.8-0.8-0.8c-0.4,0-0.8,0.4-0.8,0.8C199.1,219.9,199.5,220.3,200,220.3z"/>
	<path d="M219.5,220c0.3,0,0.5-0.2,0.5-0.5s-0.2-0.5-0.5-0.5s-0.5,0.2-0.5,0.5S219.2,220,219.5,220z"/>
	<circle cx="239" cy="219.5" r="0.2"/>
	<path d="M4.6,240c0.5,0,1-0.4,1-1c0-0.5-0.4-1-1-1s-1,0.4-1,1C3.6,239.6,4,240,4.6,240z"/>
	<path d="M24.1,240.2c0.7,0,1.2-0.5,1.2-1.2c0-0.7-0.5-1.2-1.2-1.2c-0.7,0-1.2,0.5-1.2,1.2C22.9,239.7,23.4,240.2,24.1,240.2z"/>
	<circle cx="43.6" cy="239" r="1.4"/>
	<path d="M63.2,240.6c0.8,0,1.5-0.7,1.5-1.5c0-0.8-0.7-1.5-1.5-1.5c-0.8,0-1.5,0.7-1.5,1.5C61.7,239.9,62.3,240.6,63.2,240.6z"/>
	<circle cx="82.7" cy="239" r="1.6"/>
	<path d="M102.3,240.6c0.8,0,1.5-0.7,1.5-1.5c0-0.8-0.7-1.5-1.5-1.5c-0.8,0-1.5,0.7-1.5,1.5C100.7,239.9,101.4,240.6,102.3,240.6z"
		/>
	<circle cx="121.8" cy="239" r="1.4"/>
	<path d="M141.3,240.3c0.7,0,1.2-0.6,1.2-1.2c0-0.7-0.6-1.2-1.2-1.2c-0.7,0-1.2,0.6-1.2,1.2C140.1,239.7,140.6,240.3,141.3,240.3z"
		/>
	<path d="M160.9,240c0.5,0,1-0.4,1-1c0-0.5-0.4-1-1-1s-1,0.4-1,1C159.9,239.6,160.3,240,160.9,240z"/>
	<circle cx="180.4" cy="239" r="0.7"/>
	<circle cx="200" cy="239" r="0.4"/>
	<circle cx="219.5" cy="239" r="0.2"/>
	<path d="M4.6,259.1c0.3,0,0.5-0.2,0.5-0.5c0-0.3-0.2-0.5-0.5-0.5c-0.3,0-0.5,0.2-0.5,0.5C4.1,258.8,4.3,259.1,4.6,259.1z"/>
	<path d="M24.1,259.2c0.4,0,0.7-0.3,0.7-0.7s-0.3-0.7-0.7-0.7c-0.4,0-0.7,0.3-0.7,0.7S23.7,259.2,24.1,259.2z"/>
	<path d="M43.6,259.4c0.4,0,0.8-0.4,0.8-0.8s-0.4-0.8-0.8-0.8c-0.4,0-0.8,0.4-0.8,0.8S43.2,259.4,43.6,259.4z"/>
	<path d="M63.2,259.5c0.5,0,0.9-0.4,0.9-0.9s-0.4-0.9-0.9-0.9s-0.9,0.4-0.9,0.9S62.7,259.5,63.2,259.5z"/>
	<path d="M82.7,259.5c0.5,0,0.9-0.4,0.9-0.9s-0.4-0.9-0.9-0.9s-0.9,0.4-0.9,0.9S82.2,259.5,82.7,259.5z"/>
	<path d="M102.3,259.5c0.5,0,0.9-0.4,0.9-0.9s-0.4-0.9-0.9-0.9s-0.9,0.4-0.9,0.9S101.7,259.5,102.3,259.5z"/>
	<path d="M121.8,259.4c0.4,0,0.8-0.4,0.8-0.8s-0.4-0.8-0.8-0.8c-0.4,0-0.8,0.4-0.8,0.8S121.3,259.4,121.8,259.4z"/>
	<circle cx="141.3" cy="258.6" r="0.7"/>
	<path d="M160.9,259.1c0.3,0,0.5-0.2,0.5-0.5s-0.2-0.5-0.5-0.5c-0.3,0-0.5,0.2-0.5,0.5S160.6,259.1,160.9,259.1z"/>
	<path d="M180.4,258.9c0.2,0,0.3-0.1,0.3-0.3s-0.1-0.3-0.3-0.3c-0.2,0-0.3,0.1-0.3,0.3S180.2,258.9,180.4,258.9z"/>
	<path d="M200,258.7c0.1,0,0.1,0,0.1-0.1c0-0.1,0-0.1-0.1-0.1c-0.1,0-0.1,0-0.1,0.1C199.8,258.6,199.9,258.7,200,258.7z"/>
	<path d="M4.6,278.2c0.1,0,0.1,0,0.1-0.1s0-0.1-0.1-0.1c-0.1,0-0.1,0-0.1,0.1S4.5,278.2,4.6,278.2z"/>
	<circle cx="24.1" cy="278.1" r="0.3"/>
	<path d="M43.6,278.4c0.2,0,0.3-0.1,0.3-0.3s-0.1-0.3-0.3-0.3c-0.2,0-0.3,0.1-0.3,0.3S43.5,278.4,43.6,278.4z"/>
	<path d="M63.2,278.5c0.2,0,0.4-0.2,0.4-0.4s-0.2-0.4-0.4-0.4c-0.2,0-0.4,0.2-0.4,0.4S63,278.5,63.2,278.5z"/>
	<circle cx="82.7" cy="278.1" r="0.4"/>
	<circle cx="102.3" cy="278.1" r="0.4"/>
	<path d="M121.8,278.4c0.2,0,0.3-0.1,0.3-0.3s-0.1-0.3-0.3-0.3c-0.2,0-0.3,0.1-0.3,0.3S121.6,278.4,121.8,278.4z"/>
	<circle cx="141.3" cy="278.1" r="0.3"/>
	<circle cx="160.9" cy="278.1" r="0.2"/>
	<path d="M180.4,278.2C180.4,278.2,180.5,278.1,180.4,278.2c0.1-0.1,0-0.1,0-0.1C180.4,278.1,180.4,278.1,180.4,278.2
		C180.4,278.1,180.4,278.2,180.4,278.2z"/>
	<path d="M43.6,297.7C43.7,297.7,43.7,297.7,43.6,297.7c0.1-0.1,0-0.1,0-0.1C43.6,297.6,43.6,297.6,43.6,297.7
		C43.6,297.7,43.6,297.7,43.6,297.7z"/>
	<path d="M63.2,297.7C63.2,297.7,63.2,297.7,63.2,297.7c0.1-0.1,0-0.1,0-0.1C63.1,297.6,63.1,297.6,63.2,297.7
		C63.1,297.7,63.1,297.7,63.2,297.7z"/>
	<path d="M82.7,297.7C82.7,297.7,82.8,297.7,82.7,297.7c0.1-0.1,0-0.1,0-0.1C82.7,297.6,82.7,297.6,82.7,297.7
		C82.7,297.7,82.7,297.7,82.7,297.7z"/>
	<path d="M102.3,297.7C102.3,297.7,102.3,297.7,102.3,297.7c0.1-0.1,0-0.1,0-0.1S102.2,297.6,102.3,297.7
		C102.2,297.7,102.2,297.7,102.3,297.7z"/>
	<path d="M121.8,297.7C121.8,297.7,121.8,297.7,121.8,297.7c0.1-0.1,0-0.1,0-0.1S121.7,297.6,121.8,297.7
		C121.7,297.7,121.8,297.7,121.8,297.7z"/>
</g>
</svg>
